<?xml version="1.0" standalone="no"?>
<!DOCTYPE svg PUBLIC "-//W3C//DTD SVG 20010904//EN"
 "http://www.w3.org/TR/2001/REC-SVG-20010904/DTD/svg10.dtd">
<svg version="1.0" xmlns="http://www.w3.org/2000/svg"
 width="1280.000000pt" height="1280.000000pt" viewBox="0 0 1280.000000 1280.000000"
 preserveAspectRatio="xMidYMid meet">
<metadata>
Created by potrace 1.15, written by Peter Selinger 2001-2017
</metadata>
<g transform="translate(0.000000,1280.000000) scale(0.100000,-0.100000)"
fill="#000000" stroke="none">
<path d="M0 6400 l0 -6400 6400 0 6400 0 0 6400 0 6400 -6400 0 -6400 0 0
-6400z m6352 5283 c10 -9 18 -21 18 -27 0 -6 -7 0 -16 12 -35 50 -94 12 -94
-62 0 -29 -16 -70 -61 -154 -96 -182 -104 -192 -142 -190 l-32 1 32 4 c29 4
38 14 81 91 88 155 112 210 112 250 0 72 58 115 102 75z m78 -220 c27 -57 47
-103 44 -103 -3 0 -27 46 -54 103 -37 75 -49 112 -48 142 l1 40 4 -40 c2 -22
26 -86 53 -142z m79 -151 l20 -39 148 -7 c81 -5 173 -12 203 -16 41 -6 32 -7
-35 -3 -49 3 -142 9 -205 12 l-115 6 -23 43 c-13 23 -21 42 -18 42 3 0 14 -17
25 -38z m-511 -59 c-15 -2 -42 -2 -60 0 -18 2 -6 4 27 4 33 0 48 -2 33 -4z
m-148 -13 c-30 -5 -71 -8 -90 -8 -31 1 -30 2 10 8 25 4 65 7 90 7 44 0 44 0
-10 -7z m1230 -14 c97 -17 50 -18 -60 -1 -47 7 -69 13 -50 13 19 1 69 -5 110
-12z m-1372 -3 c-10 -2 -26 -2 -35 0 -10 3 -2 5 17 5 19 0 27 -2 18 -5z m-70
-10 c-10 -2 -26 -2 -35 0 -10 3 -2 5 17 5 19 0 27 -2 18 -5z m-218 -39 c-91
-19 -178 -37 -195 -39 -26 -4 -26 -4 5 6 54 17 302 68 330 68 14 0 -49 -16
-140 -35z m1865 17 c50 -10 81 -19 70 -19 -11 -1 -60 7 -110 17 -49 11 -81 19
-70 19 11 1 61 -7 110 -17z m155 -31 c20 -6 21 -8 5 -8 -11 0 -31 4 -45 8 -20
6 -21 8 -5 8 11 0 31 -4 45 -8z m243 -61 c81 -23 146 -43 144 -46 -4 -3 -193
47 -327 87 l-35 10 35 -5 c19 -3 102 -24 183 -46z m-2496 25 c-3 -3 -12 -4
-19 -1 -8 3 -5 6 6 6 11 1 17 -2 13 -5z m-40 -10 c-3 -3 -12 -4 -19 -1 -8 3
-5 6 6 6 11 1 17 -2 13 -5z m-67 -16 c-19 -6 -127 -41 -240 -78 -259 -86 -251
-83 -215 -65 27 13 393 136 440 148 38 9 50 5 15 -5z m2854 -74 c26 -9 45 -18
43 -20 -2 -2 -28 5 -58 15 -30 11 -49 20 -43 20 6 1 32 -6 58 -15z m131 -50
c24 -11 25 -13 5 -8 -14 4 -38 13 -55 20 -24 11 -25 13 -5 8 14 -4 39 -13 55
-20z m161 -34 c50 -4 103 -15 120 -23 36 -20 30 -21 -21 -2 -22 8 -69 15 -105
15 -36 1 -78 8 -95 16 -16 8 -21 11 -10 8 11 -4 61 -10 111 -14z m-3646 -10
c-8 -5 -19 -10 -25 -10 -5 0 -3 5 5 10 8 5 20 10 25 10 6 0 3 -5 -5 -10z m-50
-20 c-8 -5 -19 -10 -25 -10 -5 0 -3 5 5 10 8 5 20 10 25 10 6 0 3 -5 -5 -10z
m-60 -25 c-14 -8 -29 -14 -35 -14 -5 0 1 6 15 14 14 8 30 14 35 14 6 0 -1 -6
-15 -14z m3980 -35 l35 -32 -45 33 c-55 40 -72 55 -45 41 11 -6 36 -25 55 -42z
m-4060 0 c-19 -11 -39 -19 -45 -19 -5 0 6 8 25 19 19 11 40 19 45 19 6 0 -6
-8 -25 -19z m-61 -24 c-10 -9 -289 -146 -289 -141 0 6 271 144 284 144 5 1 7
-1 5 -3z m4289 -95 c56 -28 102 -53 102 -56 0 -11 -217 104 -230 122 -14 17
-14 17 5 2 11 -9 66 -40 123 -68z m-4588 -56 c0 -2 -18 -14 -40 -25 -22 -11
-40 -18 -40 -15 0 2 17 13 38 24 42 23 42 23 42 16z m4846 -86 c46 -27 84 -52
84 -56 0 -3 -10 1 -22 9 -13 9 -65 39 -115 68 -51 29 -93 54 -93 56 0 6 48
-19 146 -77z m-4936 37 c0 -2 -44 -30 -97 -62 -130 -79 -130 -79 -118 -66 9
10 206 132 212 132 2 0 3 -2 3 -4z m5160 -180 c405 -269 815 -649 1126 -1041
86 -109 128 -165 122 -165 -3 0 -46 54 -98 121 -317 410 -733 799 -1155 1079
-60 40 -114 77 -120 83 -16 16 10 0 125 -77z m-5390 40 c0 -2 -25 -20 -55 -40
-30 -20 -55 -34 -55 -31 0 4 101 75 107 75 2 0 3 -2 3 -4z m-130 -89 c-24 -22
-126 -92 -114 -78 13 14 116 90 124 91 2 0 -2 -6 -10 -13z m-135 -96 c-6 -5
-63 -52 -129 -104 l-118 -94 -102 -5 c-117 -6 -198 -30 -296 -88 -75 -44 -166
-131 -212 -201 -34 -54 -47 -65 -24 -21 27 49 94 126 153 174 114 94 259 147
403 148 l75 0 125 100 c69 55 127 100 129 100 3 0 1 -4 -4 -9z m-916 -603
c-22 -56 -37 -79 -24 -39 12 39 35 91 40 91 3 0 -5 -24 -16 -52z m-97 -60 c39
-18 58 -23 62 -15 2 7 5 4 5 -5 1 -23 4 -23 -65 10 -52 24 -71 27 -159 27 -93
0 -105 -2 -166 -32 -81 -40 -160 -121 -196 -200 -19 -41 -29 -84 -34 -148 l-7
-90 2 90 c3 112 31 179 108 261 95 101 177 135 308 131 66 -2 98 -9 142 -29z
m7991 -500 c77 -110 215 -335 246 -398 28 -59 18 -43 -85 130 -48 80 -120 193
-161 253 -40 59 -71 107 -69 107 3 0 34 -42 69 -92z m-8317 -18 c112 0 204 -2
204 -4 0 -2 -38 -63 -84 -136 -46 -72 -117 -192 -157 -266 -40 -74 -74 -132
-76 -131 -9 9 192 358 279 485 l29 42 -201 0 -200 0 -10 26 c-6 14 -10 31 -9
37 1 7 6 -3 11 -20 l11 -33 203 0z m8660 -561 c36 -72 64 -133 62 -135 -2 -2
-34 57 -71 131 -37 74 -65 135 -62 135 3 0 34 -59 71 -131z m-8779 4 c-2 -5
-23 -50 -47 -100 -24 -51 -45 -91 -47 -89 -4 4 87 196 93 196 3 0 3 -3 1 -7z
m8882 -228 c0 -5 -6 1 -14 15 -8 14 -14 30 -14 35 0 6 6 -1 14 -15 8 -14 14
-29 14 -35z m-9006 -43 c-14 -34 -28 -60 -30 -58 -2 2 8 31 23 65 15 34 28 60
30 58 2 -2 -8 -31 -23 -65z m9116 -225 c57 -154 108 -318 151 -484 36 -141 74
-323 68 -329 -3 -2 -13 35 -22 83 -55 281 -163 639 -271 895 -19 45 -35 85
-34 88 2 12 60 -124 108 -253z m-9158 126 c-12 -20 -14 -14 -5 12 4 9 9 14 11
11 3 -2 0 -13 -6 -23z m-40 -104 c-17 -41 -30 -70 -30 -64 -1 14 51 146 56
141 2 -2 -10 -37 -26 -77z m-81 -234 c-27 -83 -49 -145 -49 -138 -1 16 90 296
94 291 2 -2 -18 -71 -45 -153z m-71 -246 c-20 -80 -39 -127 -25 -64 15 71 39
155 43 151 2 -2 -6 -41 -18 -87z m-45 -188 c-10 -45 -19 -79 -22 -77 -2 3 4
41 14 86 9 44 19 78 21 76 2 -2 -3 -40 -13 -85z m-43 -223 c-34 -206 -57 -407
-64 -568 l-3 -65 -2 76 c-3 108 26 373 63 579 8 47 15 91 15 99 0 8 3 12 6 8
3 -3 -3 -61 -15 -129z m9677 -53 c-1 -31 -16 35 -16 70 0 25 2 24 9 -10 4 -22
8 -49 7 -60z m20 -135 c0 -16 -3 -10 -9 15 -4 22 -8 54 -7 70 0 22 3 19 9 -15
4 -25 7 -56 7 -70z m9 -97 c-2 -16 -4 -5 -4 22 0 28 2 40 4 28 2 -13 2 -35 0
-50z m10 -95 c-2 -13 -4 -3 -4 22 0 25 2 35 4 23 2 -13 2 -33 0 -45z m21 -463
c0 -137 -1 -245 -3 -240 -2 6 -5 161 -7 345 -2 184 -1 292 3 240 4 -52 7 -207
7 -345z m-9788 -425 c5 -47 9 -101 9 -120 -1 -19 -7 15 -15 75 -7 61 -15 238
-18 395 l-5 285 9 -275 c5 -151 14 -313 20 -360z m9777 58 c-2 -24 -4 -7 -4
37 0 44 2 63 4 43 2 -21 2 -57 0 -80z m-11 -130 c-4 -46 -11 -110 -16 -143
-25 -159 -42 -260 -46 -264 -6 -6 -5 8 6 74 23 135 39 255 46 333 3 45 9 82
12 82 2 0 2 -37 -2 -82z m-9731 -216 c9 -68 15 -125 13 -128 -4 -4 -21 96 -34
206 -13 106 3 44 21 -78z m44 -255 c13 -60 21 -111 18 -113 -3 -4 -29 107 -43
191 -14 82 4 26 25 -78z m9616 3 c-4 -23 -9 -39 -11 -37 -3 2 -2 23 2 46 4 23
9 40 11 37 3 -3 2 -23 -2 -46z m-18 -82 c-3 -7 -5 -2 -5 12 0 14 2 19 5 13 2
-7 2 -19 0 -25z m-32 -138 c-16 -60 -30 -108 -33 -106 -2 3 9 54 24 115 16 60
30 108 33 106 2 -3 -9 -54 -24 -115z m-9527 30 c0 -9 -3 -7 -8 5 -5 11 -8 29
-8 40 0 16 2 15 8 -5 4 -14 8 -32 8 -40z m20 -80 c0 -9 -3 -7 -8 5 -5 11 -8
29 -8 40 0 16 2 15 8 -5 4 -14 8 -32 8 -40z m9 -42 c-3 -8 -6 -5 -6 6 -1 11 2
17 5 13 3 -3 4 -12 1 -19z m22 -68 c0 -9 -4 -8 -9 5 -5 11 -9 27 -9 35 0 9 4
8 9 -5 5 -11 9 -27 9 -35z m9435 6 c-3 -15 -8 -25 -11 -23 -2 3 -1 17 3 31 3
15 8 25 11 23 2 -3 1 -17 -3 -31z m-9324 -345 c0 -2 -2 -2 -5 1 -9 8 -95 267
-94 281 0 10 99 -270 99 -282z m9279 200 c-13 -39 -25 -69 -27 -67 -2 3 7 36
19 75 13 39 25 69 27 67 2 -3 -7 -36 -19 -75z m-60 -175 c-17 -48 -33 -85 -35
-83 -2 2 10 42 28 90 17 48 33 86 35 84 2 -3 -11 -43 -28 -91z m-9180 -120
c17 -44 29 -82 27 -84 -4 -3 -66 151 -66 164 0 15 9 -4 39 -80z m9132 -3 c-12
-20 -14 -14 -5 12 4 9 9 14 11 11 3 -2 0 -13 -6 -23z m-20 -50 c-12 -20 -14
-14 -5 12 4 9 9 14 11 11 3 -2 0 -13 -6 -23z m-37 -92 c-15 -34 -28 -60 -30
-58 -2 2 8 31 23 65 14 34 28 60 30 58 2 -2 -8 -31 -23 -65z m-8962 -121 c5
-13 6 -21 2 -17 -9 9 -84 177 -83 186 1 6 64 -125 81 -169z m8894 -26 c-19
-38 -35 -66 -36 -62 0 11 63 138 68 134 2 -2 -13 -35 -32 -72z m-8696 -354
c79 -136 75 -128 55 -105 -36 43 -245 430 -245 452 0 5 33 -55 73 -132 40 -77
93 -174 117 -215z m8653 263 c-12 -30 -85 -167 -96 -178 -5 -5 14 36 43 93 48
94 69 128 53 85z m-134 -250 c-51 -92 -140 -233 -146 -233 -3 0 5 15 16 33 12
17 51 83 88 145 68 115 100 157 42 55z m-8366 -260 c37 -57 65 -103 62 -103
-5 0 -90 126 -125 185 -41 70 -6 24 63 -82z m8207 -2 c-5 -11 -15 -23 -21 -27
-6 -3 -3 5 6 20 20 30 30 35 15 7z m-36 -53 c-19 -31 -76 -108 -81 -108 -2 0
15 27 38 60 23 33 44 60 46 60 2 0 1 -6 -3 -12z m-8074 -88 c12 -16 19 -30 16
-30 -2 0 -14 14 -26 30 -12 17 -19 30 -16 30 2 0 14 -13 26 -30z m7964 -67
c-221 -297 -474 -572 -734 -799 -99 -86 -273 -226 -320 -258 -38 -25 21 25
110 94 313 244 639 572 877 886 47 63 88 114 91 114 2 0 -8 -17 -24 -37z
m-7880 -50 c32 -43 44 -63 28 -45 -35 40 -95 122 -89 122 3 0 30 -35 61 -77z
m213 -259 c125 -147 410 -428 561 -553 61 -51 112 -95 112 -98 0 -3 -24 15
-52 38 -260 213 -560 515 -737 739 -58 73 -9 20 116 -126z m833 -771 c0 -6
-82 54 -122 89 -18 16 2 4 45 -28 42 -31 77 -58 77 -61z m5755 7 c-8 -13 -339
-233 -375 -249 -21 -10 -22 -9 -6 1 84 57 382 256 384 257 2 0 0 -4 -3 -9z
m-5442 -210 c91 -56 121 -82 40 -35 -75 43 -332 215 -339 227 -4 6 42 -23 102
-64 60 -41 148 -99 197 -128z m5037 -54 c0 -7 -142 -87 -147 -82 -2 2 29 22
69 44 79 44 78 44 78 38z m-4880 -42 c0 -2 -13 2 -30 11 -16 9 -30 18 -30 21
0 2 14 -2 30 -11 17 -9 30 -18 30 -21z m90 -49 c0 -3 -18 4 -40 15 -22 11 -40
23 -40 25 0 3 18 -4 40 -15 22 -11 40 -23 40 -25z m4630 0 c0 -6 -257 -135
-267 -134 -6 0 253 136 265 138 1 1 2 -1 2 -4z m-4414 -113 c-5 -4 -186 86
-186 93 0 3 43 -16 95 -42 52 -26 93 -49 91 -51z m171 -68 c73 -32 131 -59
129 -61 -4 -5 -202 79 -251 106 -53 29 -35 23 122 -45z m3923 21 c-14 -8 -29
-14 -35 -14 -5 0 1 6 15 14 14 8 30 14 35 14 6 0 -1 -6 -15 -14z m-70 -30
c-14 -8 -29 -14 -35 -14 -5 0 1 6 15 14 14 8 30 14 35 14 6 0 -1 -6 -15 -14z
m-64 -27 c-27 -15 -334 -128 -349 -128 -7 1 66 30 162 65 95 35 176 67 179 70
3 3 10 5 16 5 6 0 3 -6 -8 -12z m-3523 -70 c48 -17 86 -32 84 -35 -5 -4 -176
55 -197 69 -18 11 -12 10 113 -34z m222 -74 c44 -14 157 -45 250 -69 94 -24
162 -44 153 -44 -42 -2 -529 135 -493 138 6 0 46 -11 90 -25z m2935 12 c0 -5
-104 -36 -117 -35 -8 1 95 37 110 38 4 1 7 -1 7 -3z m-163 -52 c-3 -3 -12 -4
-19 -1 -8 3 -5 6 6 6 11 1 17 -2 13 -5z m-77 -20 c-64 -20 -353 -84 -376 -83
-10 0 49 15 131 34 83 18 175 40 205 48 69 19 100 20 40 1z m-2205 -64 c27 -7
27 -8 5 -8 -14 0 -36 4 -50 8 -20 6 -21 8 -5 8 11 0 34 -4 50 -8z m110 -20
c27 -7 27 -8 5 -8 -14 0 -38 4 -55 8 -27 7 -27 8 -5 8 14 0 39 -4 55 -8z
m1688 -7 c-7 -2 -21 -2 -30 0 -10 3 -4 5 12 5 17 0 24 -2 18 -5z m-1488 -23
c82 -13 98 -17 50 -13 -80 6 -233 30 -195 31 14 0 79 -8 145 -18z m1400 9
c-22 -4 -51 -8 -65 -7 -35 1 34 15 75 16 25 0 23 -2 -10 -9z m-107 -16 c-10
-2 -28 -2 -40 0 -13 2 -5 4 17 4 22 1 32 -1 23 -4z m-80 -10 c-10 -2 -28 -2
-40 0 -13 2 -5 4 17 4 22 1 32 -1 23 -4z m-1000 -10 c-15 -2 -42 -2 -60 0 -18
2 -6 4 27 4 33 0 48 -2 33 -4z m872 -3 c-36 -4 -94 -7 -130 -7 l-65 1 75 6
c41 4 100 7 130 7 l55 0 -65 -7z m-743 -7 c-20 -2 -52 -2 -70 0 -17 2 0 4 38
4 39 0 53 -2 32 -4z m421 -10 c-71 -2 -185 -2 -255 0 -71 1 -13 3 127 3 140 0
198 -2 128 -3z"/>
</g>
</svg>
