<?xml version="1.0" standalone="no"?>
<!DOCTYPE svg PUBLIC "-//W3C//DTD SVG 20010904//EN"
 "http://www.w3.org/TR/2001/REC-SVG-20010904/DTD/svg10.dtd">
<svg version="1.0" xmlns="http://www.w3.org/2000/svg"
 width="1280.000000pt" height="1280.000000pt" viewBox="0 0 1280.000000 1280.000000"
 preserveAspectRatio="xMidYMid meet">
<metadata>
Created by potrace 1.15, written by Peter Selinger 2001-2017
</metadata>
<g transform="translate(0.000000,1280.000000) scale(0.100000,-0.100000)"
fill="#000000" stroke="none">
<path d="M0 6400 l0 -6400 6400 0 6400 0 0 6400 0 6400 -6400 0 -6400 0 0
-6400z m6930 4145 c0 -3 43 -189 95 -413 53 -224 118 -501 145 -617 87 -372
266 -1137 380 -1625 113 -480 195 -830 290 -1238 28 -123 50 -225 48 -226 -1
-2 -124 -31 -273 -64 -438 -100 -879 -200 -1040 -237 -82 -19 -279 -64 -437
-100 -159 -36 -415 -94 -570 -129 -531 -121 -1872 -427 -2223 -507 -192 -44
-433 -97 -535 -119 -102 -23 -198 -45 -215 -50 -59 -18 -276 -63 -280 -58 -3
3 -30 110 -59 239 -30 129 -114 486 -186 794 -263 1121 -300 1280 -300 1293 0
27 26 38 115 49 182 23 281 102 300 238 10 78 12 81 38 57 40 -38 117 -65 197
-70 100 -6 175 10 279 57 47 22 115 45 150 52 121 23 188 92 147 151 -40 58
-170 176 -256 233 -183 122 -299 175 -540 245 -74 21 -156 48 -181 59 -41 19
-45 23 -41 50 3 23 10 30 34 35 63 13 95 7 134 -25 47 -38 101 -62 121 -55 21
8 6 26 -22 26 -12 0 -47 18 -76 40 -55 41 -114 57 -168 47 -66 -14 -88 15 -69
89 10 34 8 53 -6 107 -15 55 -16 75 -7 117 14 64 6 78 -26 48 l-25 -23 6 25
c11 44 36 254 36 300 1 83 -119 48 1190 345 179 41 453 103 610 139 157 35
612 139 1012 230 400 91 737 166 748 166 11 0 20 -4 20 -9 0 -21 91 -96 153
-126 132 -64 265 -56 356 21 57 49 81 100 81 172 0 32 6 66 13 75 8 12 127 43
402 106 373 86 435 98 435 86z m-5056 -1708 c17 -51 9 -87 -19 -87 -16 0 -19
37 -9 103 8 45 7 45 28 -16z m-229 -518 c4 -5 -6 -28 -21 -51 l-28 -40 -8 27
c-11 43 37 97 57 64z m7469 -2195 c-70 -32 -74 -31 -55 19 9 24 11 24 57 14
l48 -11 -50 -22z m485 -95 c146 -39 340 -91 431 -114 91 -24 201 -53 245 -65
44 -12 154 -41 245 -65 91 -23 228 -59 305 -80 278 -74 514 -136 745 -196 129
-33 237 -62 241 -65 10 -6 37 97 -472 -1773 -38 -140 -71 -256 -73 -259 -3 -2
-117 25 -253 61 -684 182 -1281 339 -1783 472 -305 80 -590 155 -632 167 -46
12 -78 25 -78 33 0 11 42 175 84 325 23 86 97 356 122 450 41 151 93 332 97
336 2 2 25 -7 50 -21 91 -51 197 -42 268 22 52 47 80 103 86 172 7 75 -10 132
-52 177 -19 20 -35 38 -35 39 0 1 18 14 39 28 61 40 93 104 102 201 11 116 19
167 32 199 7 15 14 27 16 27 2 0 123 -32 270 -71z"/>
</g>
</svg>
