<?xml version="1.0" standalone="no"?>
<!DOCTYPE svg PUBLIC "-//W3C//DTD SVG 20010904//EN"
 "http://www.w3.org/TR/2001/REC-SVG-20010904/DTD/svg10.dtd">
<svg version="1.0" xmlns="http://www.w3.org/2000/svg"
 width="992.000000pt" height="1280.000000pt" viewBox="0 0 992.000000 1280.000000"
 preserveAspectRatio="xMidYMid meet">
<metadata>
Created by potrace 1.15, written by Peter Selinger 2001-2017
</metadata>
<g transform="translate(0.000000,1280.000000) scale(0.100000,-0.100000)"
fill="#000000" stroke="none">
<path d="M2050 6400 l0 -6400 353 2 352 3 0 6395 0 6395 -352 3 -353 2 0
-6400z m690 0 l0 -6380 -335 0 -335 0 0 6380 0 6380 335 0 335 0 0 -6380z"/>
<path d="M2190 6400 l0 -6260 215 0 215 0 0 6260 0 6260 -215 0 -215 0 0
-6260z m410 0 l0 -6240 -195 0 -195 0 0 6240 0 6240 195 0 195 0 0 -6240z"/>
<path d="M7165 12788 c-3 -7 -4 -2886 -3 -6398 l3 -6385 353 -3 352 -2 0 6400
0 6400 -350 0 c-271 0 -352 -3 -355 -12z m545 -6388 l0 -6240 -195 0 -195 0 0
6240 0 6240 195 0 195 0 0 -6240z"/>
<path d="M680 12595 l0 -64 -67 -3 -68 -3 -3 -67 -3 -67 -67 -3 -67 -3 -3 -67
-3 -67 -67 -3 -67 -3 0 -75 0 -75 68 -3 67 -3 0 -54 0 -55 -57 0 c-81 0 -85
-4 -81 -86 l3 -69 68 -3 67 -3 0 -69 0 -70 70 0 70 0 0 -70 0 -70 70 0 70 0 0
-65 0 -65 75 0 75 0 0 65 0 65 60 0 60 0 0 -65 0 -65 80 0 80 0 0 65 0 64 68
3 67 3 3 68 3 67 64 0 64 0 3 68 3 67 68 3 68 3 -3 77 -3 77 -67 3 -68 3 0 54
0 55 70 0 70 0 0 80 0 80 -70 0 -70 0 0 70 0 70 -65 0 -64 0 -3 68 -3 67 -67
3 -68 3 0 64 0 65 -80 0 -80 0 0 -65 0 -65 -60 0 -60 0 0 65 0 65 -75 0 -75 0
0 -65z m130 -20 l0 -65 70 0 c39 0 73 -1 78 -2 4 -2 8 27 10 65 l3 67 59 0 60
0 0 -65 0 -64 68 -3 67 -3 3 -67 3 -68 64 0 64 0 3 -67 3 -68 68 -3 67 -3 0
-59 0 -60 -70 0 -71 0 3 -76 3 -77 65 -1 65 -1 3 -57 3 -57 -68 -3 -68 -3 -3
-67 -3 -68 -64 0 -64 0 -3 -67 -3 -68 -67 -3 -68 -3 0 -64 0 -65 -60 0 -60 0
0 65 0 65 -80 0 -80 0 0 -65 0 -65 -55 0 -55 0 0 65 0 65 -70 0 -70 0 0 70 0
70 -70 0 -70 0 0 70 0 69 -66 3 -67 3 0 55 0 55 64 1 64 2 3 75 3 76 -67 3
-67 3 0 55 0 55 67 3 66 3 0 69 0 70 70 0 70 0 0 70 0 70 70 0 70 0 0 65 0 65
55 0 55 0 0 -65z"/>
<path d="M680 12035 l0 -215 215 0 215 0 0 215 0 215 -215 0 -215 0 0 -215z
m410 0 l0 -195 -195 0 -195 0 0 195 0 195 195 0 195 0 0 -195z"/>
<path d="M855 12200 c-4 -6 -5 -36 -4 -68 l3 -57 -67 -3 -67 -3 0 -34 0 -34
66 -3 67 -3 1 -65 1 -65 38 -3 37 -3 0 70 0 71 70 0 70 0 0 35 0 35 -70 0 -70
0 0 70 0 70 -34 0 c-19 0 -38 -5 -41 -10z m55 -80 l0 -70 70 0 c55 0 70 -3 70
-15 0 -11 -16 -15 -67 -17 l-68 -3 -3 -67 c-2 -50 -7 -68 -17 -68 -10 0 -15
18 -17 68 l-3 67 -67 3 c-50 2 -68 7 -68 17 0 10 18 15 68 17 l67 3 3 68 c2
51 6 67 17 67 12 0 15 -15 15 -70z"/>
<path d="M3700 12596 l0 -65 -67 -3 -68 -3 -3 -67 -3 -67 -67 -3 -67 -3 -3
-67 -3 -68 -64 0 -65 0 0 -80 0 -80 65 0 65 0 0 -55 0 -54 -62 -3 -63 -3 -3
-77 -3 -78 65 0 65 0 3 -67 3 -68 67 -3 67 -3 3 -67 3 -67 68 -3 67 -3 0 -64
0 -65 80 0 80 0 0 65 0 65 55 0 55 0 0 -65 0 -65 80 0 80 0 0 65 0 64 68 3 67
3 3 67 3 67 66 3 66 3 1 65 1 65 68 3 68 3 -3 77 -3 77 -67 3 -68 3 0 54 0 55
70 0 70 0 0 80 0 79 -67 3 -68 3 -3 68 -3 67 -64 0 -64 0 -3 68 -3 67 -67 3
-68 3 0 64 0 65 -80 0 -80 0 0 -65 0 -65 -55 0 -54 0 -3 63 -3 62 -77 3 -78 3
0 -65z m140 -20 l0 -64 71 -4 c39 -2 73 -1 75 1 2 2 4 33 4 68 l0 63 60 0 59
0 3 -66 3 -67 65 -1 65 -1 3 -67 3 -68 64 0 64 0 3 -67 3 -68 68 -3 67 -3 0
-59 0 -59 -67 -3 -68 -3 -3 -72 c-2 -54 0 -73 10 -74 7 0 39 0 71 1 l57 1 0
-60 0 -60 -67 -3 -68 -3 -3 -67 -3 -68 -64 0 -64 0 -3 -67 -3 -68 -67 -3 -68
-3 0 -64 0 -65 -60 0 -60 0 0 65 0 65 -75 0 -75 0 0 -65 0 -65 -60 0 -60 0 0
65 0 65 -70 0 -70 0 0 70 0 70 -70 0 -70 0 0 70 0 70 -65 0 -65 0 0 61 0 60
63 -2 62 -3 3 77 3 77 -66 0 -65 0 0 60 0 60 65 0 64 0 3 68 3 67 67 3 67 3 3
67 3 67 68 3 67 3 0 64 0 65 60 0 60 0 0 -64z"/>
<path d="M3700 12035 l0 -215 215 0 215 0 0 215 0 215 -215 0 -215 0 0 -215z
m410 0 l0 -195 -195 0 -195 0 0 195 0 195 195 0 195 0 0 -195z"/>
<path d="M3880 12140 l0 -70 -70 0 -70 0 0 -35 0 -34 68 -3 67 -3 3 -67 3 -68
34 0 35 0 0 70 0 70 70 0 70 0 0 35 0 35 -70 0 -70 0 0 70 0 70 -35 0 -35 0 0
-70z m50 -20 l0 -70 70 0 c55 0 70 -3 70 -15 0 -11 -16 -15 -67 -17 l-68 -3
-3 -67 c-2 -50 -7 -68 -17 -68 -10 0 -15 18 -17 68 l-3 67 -67 3 c-50 2 -68 7
-68 17 0 10 18 15 68 17 l67 3 3 68 c2 51 6 67 17 67 12 0 15 -15 15 -70z"/>
<path d="M5790 12595 l0 -64 -67 -3 -68 -3 -3 -67 -3 -68 -64 0 -64 0 -3 -67
-3 -68 -67 -3 -68 -3 0 -79 0 -80 70 0 70 0 0 -55 0 -54 -67 -3 -68 -3 -3 -77
-3 -77 68 -3 68 -3 1 -65 1 -65 66 -3 66 -3 3 -67 3 -67 68 -3 67 -3 0 -64 0
-65 80 0 80 0 0 65 0 65 55 0 55 0 0 -65 0 -65 80 0 80 0 0 65 0 64 68 3 67 3
3 67 3 67 67 3 67 3 3 68 3 67 65 0 65 0 -3 78 -3 77 -62 3 -63 3 0 54 0 55
65 0 65 0 0 80 0 80 -65 0 -64 0 -3 68 -3 67 -67 3 -67 3 -3 67 -3 67 -67 3
-68 3 0 65 0 65 -77 -3 -78 -3 -3 -62 -3 -63 -54 0 -55 0 0 65 0 65 -80 0 -80
0 0 -65z"/>
<path d="M8810 12595 l0 -64 -67 -3 -68 -3 -3 -67 -3 -68 -64 0 -65 0 0 -70 0
-70 -70 0 -70 0 0 -80 0 -80 70 0 70 0 0 -55 0 -54 -67 -3 -68 -3 -3 -77 -3
-77 68 -3 68 -3 3 -67 3 -68 64 0 64 0 3 -67 3 -68 68 -3 67 -3 0 -64 0 -65
80 0 80 0 0 65 0 65 60 0 60 0 0 -65 0 -65 75 0 75 0 0 65 0 65 70 0 70 0 0
70 0 70 70 0 70 0 0 70 0 69 68 3 67 3 3 69 c4 82 0 86 -80 86 l-58 0 0 55 0
54 68 3 67 3 0 75 0 75 -67 3 -67 3 -3 67 -3 67 -67 3 -67 3 -3 67 -3 67 -67
3 -68 3 0 64 0 65 -75 0 -75 0 0 -65 0 -65 -60 0 -60 0 0 65 0 65 -80 0 -80 0
0 -65z"/>
<path d="M1577 11974 c-4 -4 -7 -85 -7 -181 l0 -173 -135 0 -135 0 0 -165 0
-165 -172 -2 -173 -3 0 -145 0 -145 75 0 75 0 3 78 3 77 -46 0 c-25 0 -45 -4
-45 -10 0 -5 16 -10 35 -10 l35 0 0 -60 0 -60 -60 0 -60 0 0 130 0 130 166 -2
166 -3 0 -89 0 -89 -73 -73 -73 -74 -126 0 -125 0 -107 107 c-59 59 -111 104
-115 100 -4 -4 39 -54 95 -110 l102 -102 0 -135 0 -135 -132 -132 -133 -133
-140 -2 -140 -3 0 -145 0 -145 148 -3 147 -3 0 143 0 143 132 132 133 133 135
0 135 0 107 -107 c60 -59 108 -101 108 -93 0 9 -45 60 -100 115 l-100 100 0
135 0 136 68 67 68 67 92 0 92 0 0 -165 0 -165 -125 0 -125 0 0 60 0 60 55 0
55 0 0 -35 c0 -19 5 -35 10 -35 6 0 10 20 10 45 l0 45 -75 0 -75 0 0 -80 0
-80 145 0 145 0 0 175 0 175 60 0 60 0 0 -175 0 -175 145 0 145 0 0 80 0 80
-75 0 -75 0 0 -35 c0 -19 0 -37 0 -40 0 -3 3 -6 8 -7 4 -2 8 12 10 30 3 32 4
32 58 32 l54 0 0 -60 0 -60 -125 0 -125 0 0 165 0 165 95 0 95 0 0 275 0 275
-130 0 -130 0 2 168 3 167 123 3 122 3 0 -61 0 -60 -55 0 c-54 0 -55 0 -55 29
0 17 -4 33 -10 36 -6 4 -10 -12 -10 -39 l0 -46 75 0 76 0 -3 78 -3 77 -136 3
c-74 1 -138 -1 -142 -4z m-417 -1179 l0 -125 -130 0 -130 0 0 125 0 125 130 0
130 0 0 -125z m-550 -550 l0 -125 -130 0 -130 0 0 125 0 125 130 0 130 0 0
-125z"/>
<path d="M2947 11974 c-4 -4 -7 -40 -7 -81 l0 -73 80 0 80 0 0 46 c0 27 -4 43
-10 39 -5 -3 -10 -19 -10 -36 0 -29 0 -29 -60 -29 l-61 0 3 58 3 57 125 0 125
0 3 -167 2 -168 -135 0 -135 0 0 -275 0 -275 100 0 100 0 0 -165 0 -165 -130
0 -131 0 3 58 3 57 58 3 57 3 0 -36 c0 -19 5 -35 11 -35 6 0 9 17 7 43 l-3 42
-75 0 -75 0 0 -75 0 -75 148 -3 147 -3 0 176 0 175 60 0 60 0 0 -175 0 -175
145 0 146 0 -3 78 -3 77 -75 0 -75 0 -3 -42 c-4 -50 15 -59 20 -10 3 32 4 32
61 35 l57 3 0 -61 0 -60 -125 0 -125 0 0 165 0 165 89 0 89 0 71 -72 71 -73 0
-130 0 -130 -106 -106 c-58 -59 -102 -109 -97 -112 5 -3 56 41 114 99 l104
104 130 0 130 0 138 -138 137 -137 0 -138 0 -137 145 0 146 0 -3 148 -3 147
-141 3 -140 3 -132 133 -132 133 0 129 0 129 107 107 c59 59 104 111 100 114
-4 4 -56 -40 -116 -99 l-108 -107 -128 0 -127 0 -74 72 -74 71 0 94 0 93 168
-2 167 -3 0 -125 0 -125 -57 -3 -58 -3 0 61 c0 60 0 60 29 60 17 0 33 5 36 10
4 6 -12 10 -39 10 l-46 0 0 -80 0 -81 78 3 77 3 0 145 0 145 -177 3 -178 2 0
165 0 165 -130 0 -130 0 -2 178 -3 177 -141 3 c-77 1 -143 -1 -147 -4z m953
-1174 l0 -130 -125 0 -125 0 0 125 0 124 123 4 c67 1 123 4 125 5 1 1 2 -56 2
-128z m550 -555 l0 -125 -125 0 -125 0 0 125 0 125 125 0 125 0 0 -125z"/>
<path d="M6687 11974 c-4 -4 -7 -85 -7 -181 l0 -173 -130 0 -130 0 0 -165 0
-165 -177 -2 -178 -3 0 -145 0 -145 78 -3 77 -3 0 81 0 80 -46 0 c-27 0 -43
-4 -39 -10 3 -5 19 -10 36 -10 29 0 29 0 29 -60 l0 -61 -57 3 -58 3 0 125 0
125 168 3 167 2 0 -93 0 -93 -69 -68 -69 -68 -138 1 -139 2 -102 101 c-56 56
-106 99 -110 95 -4 -4 41 -56 100 -115 l107 -107 0 -129 0 -129 -132 -133
-132 -133 -140 -3 -141 -3 -3 -147 -3 -148 146 0 145 0 0 138 0 137 136 138
136 137 132 0 131 0 104 -104 c58 -58 109 -102 114 -99 5 3 -39 53 -97 112
l-106 106 0 133 0 133 70 69 70 70 90 0 90 0 0 -165 0 -165 -125 0 -125 0 0
60 0 61 58 -3 c56 -3 57 -3 60 -35 5 -49 24 -40 20 10 l-3 42 -75 0 -75 0 -3
-77 -3 -78 146 0 145 0 0 175 0 175 60 0 60 0 0 -175 0 -176 148 3 147 3 0 75
0 75 -75 0 -75 0 -3 -42 c-2 -26 1 -43 7 -43 6 0 11 16 11 35 l0 36 58 -3 57
-3 3 -57 3 -58 -131 0 -130 0 0 165 0 165 100 0 100 0 0 275 0 275 -135 0
-135 0 2 168 3 167 125 0 125 0 3 -57 3 -58 -61 0 c-60 0 -60 0 -60 29 0 17
-4 33 -10 36 -6 4 -10 -12 -10 -39 l0 -46 80 0 81 0 -3 78 -3 77 -141 3 c-77
1 -143 -1 -147 -4z"/>
<path d="M8067 11974 c-4 -4 -7 -40 -7 -81 l0 -73 75 0 75 0 0 46 c0 27 -4 43
-10 39 -5 -3 -10 -19 -10 -36 0 -29 -1 -29 -55 -29 l-55 0 0 60 0 61 123 -3
122 -3 3 -167 2 -168 -130 0 -130 0 0 -275 0 -275 95 0 95 0 0 -165 0 -165
-125 0 -125 0 0 60 0 60 55 0 c54 0 55 0 55 -29 0 -17 5 -33 10 -36 6 -4 10
12 10 39 l0 46 -75 0 -75 0 0 -80 0 -80 145 0 145 0 0 175 0 175 60 0 60 0 0
-175 0 -175 145 0 145 0 0 80 0 80 -75 0 -75 0 0 -45 c0 -25 5 -45 10 -45 6 0
10 16 10 35 l0 35 55 0 55 0 0 -60 0 -60 -125 0 -125 0 0 165 0 165 93 0 93 0
67 -68 67 -68 0 -134 0 -135 -100 -100 c-55 -55 -100 -106 -100 -115 0 -8 48
34 108 93 l107 107 135 0 135 0 133 -133 132 -132 0 -143 0 -143 148 3 147 3
0 145 0 145 -140 3 -140 2 -132 133 -133 132 0 135 0 135 102 102 c56 56 99
106 95 110 -4 4 -54 -39 -110 -95 l-102 -101 -134 -2 -134 -1 -69 69 -70 70 0
89 0 89 166 3 166 2 0 -130 0 -130 -60 0 -60 0 0 60 0 60 35 0 c19 0 35 5 35
10 0 6 -20 10 -45 10 l-46 0 3 -77 3 -78 75 0 75 0 3 148 3 147 -176 0 -175 0
0 165 0 165 -135 0 -135 0 -2 178 -3 177 -136 3 c-74 1 -138 -1 -142 -4z"/>
<path d="M10 11342 c0 -4 91 -98 203 -210 l202 -202 205 0 205 0 -210 210
-210 210 -197 0 c-109 0 -198 -3 -198 -8z"/>
<path d="M4192 11147 c-111 -111 -202 -206 -202 -210 0 -4 91 -7 203 -7 l202
0 202 207 c112 115 203 209 203 211 0 1 -91 2 -203 2 l-202 0 -203 -203z"/>
<path d="M5120 11348 c0 -2 91 -96 203 -211 l202 -207 203 0 c111 0 202 3 202
8 0 4 -91 98 -203 210 l-202 202 -203 0 c-111 0 -202 -1 -202 -2z"/>
<path d="M9305 11140 l-210 -210 205 0 205 0 203 203 c111 111 202 206 202
210 0 4 -89 7 -198 7 l-197 0 -210 -210z"/>
<path d="M275 10730 l-140 -140 205 0 205 0 140 140 140 140 -205 0 -205 0
-140 -140z"/>
<path d="M3990 10863 c0 -4 60 -67 132 -140 l133 -133 202 0 c112 0 203 4 203
8 0 4 -60 67 -133 140 l-134 132 -201 0 c-111 0 -202 -3 -202 -7z"/>
<path d="M5393 10738 c-73 -73 -133 -136 -133 -140 0 -4 91 -8 203 -8 l202 0
133 133 c72 73 132 136 132 140 0 4 -91 7 -202 7 l-201 0 -134 -132z"/>
<path d="M9235 10730 l140 -140 205 0 205 0 -140 140 -140 140 -205 0 -205 0
140 -140z"/>
<path d="M957 10452 l-137 -139 0 -201 c0 -111 2 -202 5 -202 4 0 66 62 140
138 l135 137 0 203 c0 111 -1 202 -3 202 -2 0 -65 -62 -140 -138z"/>
<path d="M8820 10390 l0 -205 136 -137 c75 -76 138 -138 140 -138 2 0 4 91 4
202 l0 202 -140 140 -140 141 0 -205z"/>
<path d="M1170 10380 l0 -205 205 -205 205 -205 0 205 0 205 -205 205 -205
205 0 -205z"/>
<path d="M3427 10382 l-197 -197 0 -210 0 -210 205 205 205 205 0 202 c0 112
-3 203 -8 203 -4 0 -96 -89 -205 -198z"/>
<path d="M3710 10380 l0 -205 135 -135 135 -135 0 205 0 205 -135 135 -135
135 0 -205z"/>
<path d="M6073 10448 l-133 -133 0 -205 0 -205 135 135 135 136 -2 202 -3 202
-132 -132z"/>
<path d="M6280 10377 l0 -202 205 -205 205 -205 0 210 0 210 -198 198 c-108
108 -201 197 -205 197 -4 0 -7 -91 -7 -203z"/>
<path d="M8543 10378 l-203 -203 0 -205 0 -205 205 205 205 205 -2 203 -3 202
-202 -202z"/>
<path d="M678 9433 l-3 -68 -65 -1 -65 -2 -3 -65 -3 -66 -67 -3 -67 -3 -3 -67
-3 -67 -67 -3 -67 -3 0 -75 0 -75 68 -3 67 -3 0 -59 0 -60 -70 0 -71 0 3 -72
3 -73 68 -3 67 -3 0 -69 0 -70 70 0 70 0 0 -70 0 -70 70 0 70 0 0 -65 0 -65
75 0 75 0 0 65 0 65 60 0 60 0 0 -65 0 -65 80 0 80 0 0 65 0 64 68 3 67 3 3
68 3 67 64 0 64 0 3 68 3 67 68 3 67 3 0 74 0 74 -67 3 -68 3 -3 58 -3 57 71
0 70 0 0 80 0 80 -70 0 -70 0 0 70 0 70 -65 0 -65 0 0 65 c0 45 -4 65 -12 66
-7 0 -38 1 -68 2 l-55 2 -3 68 -3 67 -79 0 -79 0 -3 -67 -3 -68 -55 0 -55 0
-3 68 -3 67 -74 0 -74 0 -3 -67z m134 -20 l3 -68 75 0 75 0 3 68 3 67 59 0 59
0 3 -67 3 -68 68 -3 67 -3 0 -64 0 -65 65 0 64 0 3 -67 3 -68 68 -3 67 -3 0
-59 0 -60 -70 0 -71 0 3 -77 3 -78 68 -3 67 -3 0 -54 0 -54 -67 -3 -68 -3 -3
-67 -3 -68 -64 0 -64 0 -3 -67 -3 -68 -67 -3 -68 -3 0 -64 0 -65 -60 0 -60 0
0 65 0 65 -80 0 -80 0 0 -65 0 -65 -55 0 -55 0 0 65 0 65 -70 0 -70 0 0 70 0
70 -70 0 -70 0 0 70 0 70 -64 0 -64 0 -4 55 -3 54 65 3 65 3 3 77 3 77 -67 3
-67 3 0 55 0 55 67 3 66 3 0 69 0 70 70 0 70 0 0 65 0 64 68 3 67 3 3 68 3 67
54 0 54 0 3 -67z"/>
<path d="M680 8875 l0 -215 215 0 215 0 0 215 0 215 -215 0 -215 0 0 -215z
m410 0 l0 -195 -195 0 -195 0 0 195 0 195 195 0 195 0 0 -195z"/>
<path d="M855 9040 c-4 -6 -5 -36 -4 -68 l3 -57 -67 -3 -67 -3 0 -34 0 -34 66
-3 67 -3 1 -65 1 -65 37 -3 37 -3 3 68 3 68 68 3 67 3 0 34 0 35 -70 0 -70 0
0 70 0 70 -34 0 c-19 0 -38 -5 -41 -10z m55 -80 l0 -70 70 0 c55 0 70 -3 70
-15 0 -11 -16 -15 -67 -17 l-68 -3 -3 -67 c-2 -50 -7 -68 -17 -68 -10 0 -15
18 -17 68 l-3 67 -67 3 c-50 2 -68 7 -68 17 0 10 18 15 68 17 l67 3 3 68 c2
51 6 67 17 67 12 0 15 -15 15 -70z"/>
<path d="M3698 9433 l-3 -68 -65 -1 -65 -2 -3 -65 -3 -66 -67 -3 -67 -3 -3
-67 -3 -68 -64 0 -65 0 0 -80 0 -80 65 0 65 0 0 -60 0 -60 -65 0 -65 0 0 -75
0 -75 65 0 64 0 3 -67 3 -68 67 -3 67 -3 3 -67 3 -67 67 -3 67 -3 3 -65 c2
-35 6 -64 11 -64 4 0 39 0 77 0 l70 0 0 65 0 65 55 0 55 0 0 -65 0 -65 70 0
c39 0 73 0 78 0 4 0 8 29 10 64 l3 65 67 3 67 3 3 67 3 67 66 3 66 3 1 65 1
65 68 3 67 3 0 74 0 74 -67 3 -68 3 -3 58 -3 57 71 0 70 0 0 80 0 79 -67 3
-68 3 -3 68 -3 67 -64 0 -64 0 -3 66 -3 67 -65 1 -65 1 -3 68 -3 67 -79 0 -80
0 0 -71 0 -70 -52 2 -53 3 -5 65 -5 66 -77 3 -77 3 -3 -68z m142 -23 l0 -70
75 0 75 0 0 70 0 70 60 0 59 0 3 -67 3 -68 68 -3 67 -3 0 -64 0 -65 65 0 64 0
3 -67 3 -68 68 -3 67 -3 0 -59 0 -59 -67 -3 -68 -3 0 -75 0 -75 68 -3 67 -3 0
-54 0 -54 -67 -3 -68 -3 -3 -67 -3 -68 -64 0 -64 0 -3 -67 -3 -68 -67 -3 -68
-3 0 -64 0 -65 -60 0 -60 0 0 65 0 65 -75 0 -75 0 0 -65 0 -65 -60 0 -60 0 0
65 0 65 -70 0 -70 0 0 70 0 70 -70 0 -70 0 0 70 0 70 -65 0 -65 0 0 55 0 55
65 0 65 0 0 80 0 80 -65 0 -65 0 0 60 0 60 65 0 64 0 3 68 3 67 68 3 67 3 0
64 0 64 68 3 67 3 3 68 3 67 59 0 60 0 0 -70z"/>
<path d="M3700 8875 l0 -215 215 0 215 0 0 215 0 215 -215 0 -215 0 0 -215z
m410 0 l0 -195 -195 0 -195 0 0 195 0 195 195 0 195 0 0 -195z"/>
<path d="M3880 8980 l0 -70 -70 0 -70 0 0 -35 0 -34 68 -3 67 -3 3 -67 3 -68
34 0 34 0 3 68 3 67 68 3 67 3 0 34 0 35 -70 0 -70 0 0 70 0 70 -35 0 -35 0 0
-70z m50 -20 l0 -70 70 0 c55 0 70 -3 70 -15 0 -11 -16 -15 -67 -17 l-68 -3
-3 -67 c-2 -50 -7 -68 -17 -68 -10 0 -15 18 -17 68 l-3 67 -67 3 c-50 2 -68 7
-68 17 0 10 18 15 68 17 l67 3 3 68 c2 51 6 67 17 67 12 0 15 -15 15 -70z"/>
<path d="M5790 9435 l0 -64 -67 -3 -68 -3 -3 -67 -3 -68 -64 0 -64 0 -3 -67
-3 -68 -67 -3 -68 -3 0 -79 0 -80 70 0 71 0 -3 -57 -3 -58 -65 -1 -65 -1 -3
-76 -3 -76 68 -3 68 -3 1 -65 1 -65 66 -3 66 -3 3 -67 3 -67 67 -3 67 -3 3
-65 c2 -35 6 -64 11 -64 4 0 39 0 77 0 l70 0 0 65 0 65 55 0 55 0 0 -65 0 -65
70 0 c39 0 73 0 78 0 4 0 8 29 10 64 l3 65 67 3 67 3 3 67 3 67 67 3 67 3 3
68 3 67 65 0 65 0 -3 77 -3 77 -62 -3 -63 -2 0 60 0 61 65 0 65 0 0 80 0 80
-65 0 -64 0 -3 68 -3 67 -67 3 -67 3 -3 67 -3 67 -65 1 -65 1 -3 67 -3 67 -77
-3 -77 -3 -3 -65 -3 -65 -54 3 -55 4 0 64 0 64 -80 0 -80 0 0 -65z"/>
<path d="M8810 9435 l0 -65 -54 0 c-83 0 -86 -3 -86 -76 l0 -64 -65 0 -65 0 0
-70 0 -70 -70 0 -70 0 0 -80 0 -80 70 0 71 0 -3 -57 c-2 -37 -7 -58 -15 -59
-7 -1 -38 -2 -68 -3 l-55 -1 0 -75 0 -74 68 -3 67 -3 3 -67 3 -68 64 0 64 0 3
-67 3 -68 68 -3 67 -3 0 -64 0 -65 80 0 80 0 0 65 0 65 60 0 60 0 0 -64 0 -64
71 -4 c39 -2 73 -1 75 1 2 2 4 33 4 68 l0 63 70 0 70 0 0 70 0 70 70 0 70 0 0
70 0 69 68 3 67 3 3 72 3 72 -68 3 -68 3 -3 57 -3 57 68 3 68 3 0 75 0 75 -67
3 -67 3 -3 67 -3 67 -67 3 -67 3 -3 67 -3 67 -65 1 -65 1 -3 67 -3 66 -74 0
-75 0 0 -63 c0 -35 -2 -66 -4 -68 -2 -2 -29 -2 -60 -1 l-56 4 0 64 0 64 -80 0
-80 0 0 -65z"/>
<path d="M1570 8635 l0 -174 -132 -3 -133 -3 -3 -162 -2 -163 -173 -2 -172 -3
0 -145 0 -145 75 0 75 0 3 78 3 77 -46 0 c-25 0 -45 -4 -45 -10 0 -5 16 -10
35 -10 l35 0 0 -60 0 -60 -60 0 -60 0 0 130 0 130 166 -2 166 -3 0 -89 0 -89
-73 -73 -73 -74 -126 0 -125 0 -107 107 c-59 59 -111 104 -115 100 -4 -4 39
-54 95 -110 l102 -102 0 -135 0 -135 -138 -138 -137 -137 -138 0 -137 0 0
-145 0 -145 150 0 150 0 0 142 0 143 132 132 133 133 135 0 135 0 107 -107
c60 -59 108 -101 108 -93 0 9 -45 60 -100 115 l-100 100 0 135 0 136 68 67 68
67 92 0 92 0 0 -165 0 -165 -125 0 -125 0 0 58 0 59 55 2 55 2 0 -35 c0 -20 5
-36 11 -36 6 0 9 17 7 43 l-3 42 -70 0 -70 0 -3 -77 -3 -78 146 0 145 0 0 175
0 175 60 0 60 0 0 -175 0 -175 145 0 146 0 -3 78 -3 77 -70 0 -70 0 -3 -43
c-2 -29 0 -42 7 -37 6 3 11 19 11 36 0 29 1 29 55 29 l55 0 0 -60 0 -60 -125
0 -125 0 0 165 0 165 95 0 95 0 0 275 0 275 -130 0 -130 0 0 165 0 165 125 0
125 0 0 -55 0 -55 -55 0 c-54 0 -55 0 -55 29 0 17 -4 33 -10 36 -6 4 -10 -12
-10 -39 l0 -46 75 0 75 0 0 75 0 75 -145 0 -145 0 0 -175z m-410 -1000 l0
-125 -130 0 -130 0 0 125 0 125 130 0 130 0 0 -125z m-550 -550 l0 -125 -130
0 -130 0 0 125 0 125 130 0 130 0 0 -125z"/>
<path d="M2940 8735 l0 -75 80 0 80 0 0 40 c0 22 -4 40 -10 40 -5 0 -10 -13
-10 -30 l0 -30 -60 0 -60 0 0 55 0 55 130 0 130 0 0 -165 0 -165 -135 0 -135
0 0 -275 0 -275 100 0 100 0 0 -165 0 -165 -130 0 -131 0 3 58 3 57 58 3 57 3
0 -36 c0 -19 5 -35 11 -35 6 0 9 17 7 43 l-3 42 -75 0 -75 0 -3 -77 -3 -78
151 0 150 0 0 175 0 175 60 0 60 0 0 -175 0 -175 145 0 146 0 -3 78 -3 77 -75
0 -75 0 -3 -42 c-4 -50 15 -59 20 -10 3 32 3 32 58 32 l55 0 3 -57 3 -58 -126
0 -125 0 0 165 0 165 87 0 88 0 72 -72 73 -72 0 -131 0 -130 -106 -106 c-58
-59 -102 -109 -97 -112 5 -3 56 41 114 99 l104 104 130 0 130 0 138 -138 137
-137 0 -138 0 -137 145 0 145 0 0 145 0 145 -138 0 -137 0 -138 138 -137 137
0 130 0 130 107 107 c59 59 104 111 100 115 -4 4 -56 -41 -115 -100 l-107
-107 -129 0 -128 0 -74 72 -74 71 0 94 0 93 168 -2 167 -3 0 -125 0 -125 -57
-3 -58 -3 0 61 0 60 30 0 c17 0 30 5 30 10 0 6 -18 10 -40 10 l-40 0 0 -80 0
-81 78 3 77 3 0 145 0 145 -177 3 -178 2 0 165 0 165 -130 0 -130 0 0 175 0
175 -150 0 -150 0 0 -75z m960 -1100 l0 -125 -125 0 -125 0 0 125 0 125 125 0
125 0 0 -125z m550 -550 l0 -125 -125 0 -125 0 0 125 0 125 125 0 125 0 0
-125z"/>
<path d="M6680 8635 l0 -175 -130 0 -130 0 0 -165 0 -165 -177 -2 -178 -3 0
-145 0 -145 78 -3 77 -3 0 81 0 80 -40 0 c-22 0 -40 -4 -40 -10 0 -5 14 -10
30 -10 l30 0 0 -60 0 -61 -57 3 -58 3 0 125 0 125 168 3 167 2 0 -93 0 -94
-74 -71 -74 -72 -128 0 -129 0 -107 107 c-59 59 -111 104 -115 100 -4 -4 41
-56 100 -115 l107 -107 0 -130 0 -129 -138 -138 -138 -138 -137 0 -137 0 0
-145 0 -145 145 0 145 0 0 138 0 137 138 138 137 137 130 0 130 0 104 -104
c58 -58 109 -102 114 -99 5 3 -39 53 -97 112 l-106 106 0 130 0 131 73 72 72
72 88 0 87 0 0 -165 0 -165 -125 0 -126 0 3 58 3 57 55 0 c55 0 55 0 58 -32 5
-49 24 -40 20 10 l-3 42 -75 0 -75 0 -3 -77 -3 -78 146 0 145 0 0 175 0 175
60 0 60 0 0 -175 0 -175 150 0 151 0 -3 78 -3 77 -75 0 -75 0 -3 -42 c-2 -26
1 -43 7 -43 6 0 11 16 11 35 l0 36 58 -3 57 -3 3 -57 3 -58 -131 0 -130 0 0
165 0 165 100 0 100 0 0 275 0 275 -135 0 -135 0 0 165 0 165 130 0 130 0 0
-55 0 -55 -60 0 -60 0 0 30 c0 17 -4 30 -10 30 -5 0 -10 -18 -10 -40 l0 -40
80 0 80 0 0 75 0 75 -150 0 -150 0 0 -175z"/>
<path d="M8060 8735 l0 -75 75 0 75 0 0 46 c0 27 -4 43 -10 39 -5 -3 -10 -19
-10 -36 0 -29 -1 -29 -55 -29 l-55 0 0 55 0 55 125 0 125 0 0 -165 0 -165
-130 0 -130 0 0 -275 0 -275 95 0 95 0 0 -165 0 -165 -125 0 -125 0 0 60 0 60
55 0 c54 0 55 0 55 -29 0 -17 5 -33 11 -36 7 -5 9 8 7 37 l-3 43 -70 0 -70 0
-3 -77 -3 -78 146 0 145 0 0 175 0 175 60 0 60 0 0 -175 0 -175 145 0 146 0
-3 78 -3 77 -70 0 -70 0 -3 -42 c-2 -26 1 -43 7 -43 6 0 11 16 11 36 l0 35 55
-2 55 -2 0 -59 0 -58 -125 0 -125 0 0 165 0 165 93 0 93 0 67 -68 67 -68 0
-134 0 -135 -100 -100 c-55 -55 -100 -106 -100 -115 0 -8 48 34 108 93 l107
107 135 0 135 0 133 -133 132 -132 0 -143 0 -142 150 0 150 0 0 145 0 145
-138 0 -137 0 -138 138 -137 137 0 135 0 135 102 102 c56 56 99 106 95 110 -4
4 -56 -41 -115 -100 l-107 -107 -125 0 -126 0 -73 74 -73 73 0 89 0 89 166 3
166 2 0 -130 0 -130 -60 0 -60 0 0 60 0 60 35 0 c19 0 35 5 35 10 0 6 -20 10
-45 10 l-46 0 3 -77 3 -78 75 0 75 0 0 145 0 145 -172 3 -173 2 -2 163 -3 162
-132 3 -133 3 0 174 0 175 -145 0 -145 0 0 -75z"/>
<path d="M10 8182 c0 -4 91 -98 203 -210 l202 -202 205 0 205 0 -210 210 -210
210 -197 0 c-109 0 -198 -3 -198 -8z"/>
<path d="M4193 7988 c-112 -111 -203 -206 -203 -210 0 -4 91 -8 202 -8 l202 0
203 202 c112 111 203 206 203 210 0 4 -91 8 -202 8 l-202 0 -203 -202z"/>
<path d="M5120 8182 c0 -4 91 -99 203 -210 l203 -202 202 0 c111 0 202 4 202
8 0 4 -91 99 -203 210 l-203 202 -202 0 c-111 0 -202 -4 -202 -8z"/>
<path d="M9305 7980 l-210 -210 205 0 205 0 203 203 c111 111 202 206 202 210
0 4 -89 7 -198 7 l-197 0 -210 -210z"/>
<path d="M276 7570 l-141 -140 205 0 205 0 140 140 140 140 -204 0 -205 0
-140 -140z"/>
<path d="M3990 7703 c0 -4 60 -67 132 -140 l133 -133 202 0 c112 0 203 4 203
8 0 4 -60 67 -133 140 l-134 132 -201 0 c-111 0 -202 -3 -202 -7z"/>
<path d="M5393 7578 c-73 -73 -133 -136 -133 -140 0 -4 91 -8 203 -8 l202 0
133 133 c72 73 132 136 132 140 0 4 -91 7 -202 7 l-201 0 -134 -132z"/>
<path d="M9235 7570 l140 -140 205 0 205 0 -141 140 -140 140 -205 0 -204 0
140 -140z"/>
<path d="M958 7292 l-138 -139 0 -201 c0 -111 3 -202 8 -202 4 0 67 60 140
133 l132 133 -2 207 -3 208 -137 -139z"/>
<path d="M8820 7225 l0 -210 133 -133 c73 -72 136 -132 140 -132 4 0 7 91 7
202 l0 202 -140 140 -140 141 0 -210z"/>
<path d="M1170 7220 l0 -205 205 -205 205 -205 0 205 0 205 -205 205 -205 205
0 -205z"/>
<path d="M3427 7222 l-197 -197 0 -210 0 -210 205 205 205 205 0 202 c0 112
-3 203 -8 203 -4 0 -96 -89 -205 -198z"/>
<path d="M3710 7220 l0 -205 135 -135 135 -135 0 205 0 205 -135 135 -135 135
0 -205z"/>
<path d="M6073 7288 l-133 -133 0 -205 0 -205 135 135 135 136 -2 202 -3 202
-132 -132z"/>
<path d="M6280 7217 l0 -202 205 -205 205 -205 0 210 0 210 -198 198 c-108
108 -201 197 -205 197 -4 0 -7 -91 -7 -203z"/>
<path d="M8543 7218 l-203 -203 0 -205 0 -205 205 205 205 205 -2 203 -3 202
-202 -202z"/>
<path d="M680 6135 l0 -64 -67 -3 -68 -3 -3 -67 -3 -67 -67 -3 -67 -3 -3 -67
-3 -67 -67 -3 -67 -3 0 -75 0 -75 68 -3 67 -3 0 -54 0 -54 -67 -3 -68 -3 0
-75 0 -75 67 -3 67 -3 3 -67 3 -67 67 -3 67 -3 3 -67 3 -67 68 -3 67 -3 0 -64
0 -65 75 0 75 0 0 65 0 65 60 0 60 0 0 -65 0 -65 80 0 80 0 0 65 0 64 68 3 67
3 3 68 3 67 64 0 65 0 0 70 0 70 70 0 71 0 -3 78 -3 77 -67 3 -68 3 0 54 0 54
68 3 67 3 3 77 3 77 -68 3 -68 3 -3 68 -3 67 -64 0 -64 0 -3 68 -3 67 -67 3
-68 3 0 64 0 65 -80 0 -80 0 0 -65 0 -65 -60 0 -60 0 0 65 0 65 -75 0 -75 0 0
-65z m130 -20 l0 -65 80 0 80 0 0 65 0 65 60 0 60 0 0 -65 0 -64 68 -3 67 -3
3 -67 3 -68 64 0 64 0 3 -67 3 -68 68 -3 67 -3 0 -59 0 -60 -70 0 -70 0 0 -75
0 -75 70 0 70 0 0 -60 0 -59 -67 -3 -68 -3 -3 -67 -3 -68 -64 0 -64 0 -3 -67
-3 -68 -65 -1 -65 -2 -3 -66 -3 -66 -59 0 -59 0 -3 66 -3 66 -67 0 c-38 -1
-72 -1 -78 -1 -6 -1 -10 -30 -10 -66 l0 -65 -55 0 -55 0 0 65 c0 45 -4 65 -12
66 -7 0 -38 1 -68 2 l-55 2 -3 68 -3 67 -69 0 -70 0 0 70 0 69 -66 3 -67 3 0
55 0 55 67 3 66 3 0 74 0 74 -66 3 -67 3 0 55 0 55 67 3 66 3 0 69 0 70 70 0
70 0 0 70 0 70 70 0 70 0 0 65 0 65 55 0 55 0 0 -65z"/>
<path d="M680 5575 l0 -215 215 0 215 0 0 215 0 215 -215 0 -215 0 0 -215z
m410 0 l0 -195 -195 0 -195 0 0 195 0 195 195 0 195 0 0 -195z"/>
<path d="M855 5740 c-4 -6 -5 -36 -4 -68 l3 -57 -67 -3 -67 -3 0 -34 0 -34 66
-3 67 -3 1 -65 1 -65 38 -3 37 -3 0 70 0 71 70 0 70 0 0 35 0 35 -70 0 -70 0
0 70 0 70 -34 0 c-19 0 -38 -5 -41 -10z m55 -80 l0 -70 70 0 c56 0 70 -3 70
-15 0 -12 -14 -15 -70 -15 l-70 0 0 -70 c0 -55 -3 -70 -15 -70 -11 0 -15 16
-17 68 l-3 67 -67 3 c-50 2 -68 7 -68 17 0 10 18 15 68 17 l67 3 3 68 c2 51 6
67 17 67 12 0 15 -15 15 -70z"/>
<path d="M3700 6135 l0 -64 -67 -3 -68 -3 -3 -67 -3 -67 -67 -3 -67 -3 -3 -67
-3 -68 -64 0 -65 0 0 -80 0 -80 65 0 65 0 0 -55 0 -55 -65 0 -65 0 0 -80 0
-80 65 0 64 0 3 -67 3 -68 67 -3 67 -3 3 -67 3 -67 68 -3 67 -3 0 -64 0 -65
80 0 80 0 0 65 0 65 55 0 55 0 0 -65 0 -65 80 0 80 0 0 65 0 64 68 3 67 3 3
67 3 67 66 3 66 3 1 65 1 65 68 3 67 3 0 79 0 80 -70 0 -70 0 0 55 0 55 70 0
70 0 0 80 0 79 -67 3 -68 3 -1 65 -1 65 -66 3 -66 3 -3 67 -3 67 -67 3 -68 3
0 64 0 65 -80 0 -80 0 0 -65 0 -65 -55 0 -55 0 0 65 0 65 -80 0 -80 0 0 -65z
m140 -20 l0 -65 75 0 75 0 0 65 0 65 60 0 60 0 0 -65 0 -64 68 -3 67 -3 3 -67
3 -68 64 0 64 0 3 -67 3 -68 68 -3 67 -3 0 -59 0 -60 -70 0 -71 0 3 -72 3 -73
68 -3 67 -3 0 -59 0 -59 -67 -3 -68 -3 -3 -67 -3 -68 -64 0 -64 0 -3 -67 -3
-68 -65 -1 -65 -2 -3 -66 -3 -66 -59 0 -59 0 -3 66 -3 66 -70 0 -70 0 -3 -66
-3 -66 -59 0 -59 0 -3 66 -3 66 -65 2 -65 1 -3 67 -3 67 -67 3 -67 3 -3 68 -3
67 -64 0 -65 0 0 60 0 60 65 0 65 0 0 75 0 75 -65 0 -65 0 0 60 0 60 65 0 65
0 0 70 0 70 70 0 70 0 0 70 0 70 70 0 70 0 0 65 0 65 60 0 60 0 0 -65z"/>
<path d="M3700 5575 l0 -215 215 0 215 0 0 215 0 215 -215 0 -215 0 0 -215z
m410 0 l0 -195 -195 0 -195 0 0 195 0 195 195 0 195 0 0 -195z"/>
<path d="M3878 5683 l-3 -68 -67 -3 -68 -3 0 -34 0 -35 70 0 70 0 0 -70 0 -70
35 0 35 0 0 70 0 70 70 0 70 0 0 35 0 35 -70 0 -70 0 0 70 0 70 -35 0 -34 0
-3 -67z m54 -20 l3 -68 68 -3 c49 -2 67 -7 67 -17 0 -10 -18 -15 -67 -17 l-68
-3 -3 -67 c-2 -50 -7 -68 -17 -68 -10 0 -15 18 -17 68 l-3 67 -67 3 c-50 2
-68 7 -68 17 0 10 18 15 68 17 l67 3 3 68 c2 49 7 67 17 67 10 0 15 -18 17
-67z"/>
<path d="M5790 6135 l0 -64 -67 -3 -68 -3 -3 -67 -3 -67 -66 -3 -66 -3 -1 -65
-1 -65 -67 -3 -68 -3 0 -79 0 -80 70 0 70 0 0 -55 0 -55 -70 0 -70 0 0 -80 0
-79 68 -3 67 -3 1 -65 1 -65 66 -3 66 -3 3 -67 3 -67 68 -3 67 -3 0 -64 0 -65
80 0 80 0 0 65 0 65 55 0 55 0 0 -65 0 -65 80 0 80 0 0 65 0 64 68 3 67 3 3
67 3 67 67 3 67 3 3 68 3 67 64 0 65 0 0 80 0 80 -65 0 -65 0 0 55 0 55 65 0
65 0 0 80 0 80 -65 0 -64 0 -3 68 -3 67 -67 3 -67 3 -3 67 -3 67 -67 3 -68 3
0 64 0 65 -80 0 -80 0 0 -65 0 -65 -55 0 -55 0 0 65 0 65 -80 0 -80 0 0 -65z"/>
<path d="M8810 6135 l0 -64 -67 -3 -68 -3 -3 -67 -3 -68 -64 0 -64 0 -3 -67
-3 -68 -68 -3 -68 -3 3 -77 3 -77 68 -3 67 -3 0 -54 0 -54 -67 -3 -68 -3 -3
-77 -3 -78 71 0 70 0 0 -70 0 -70 65 0 64 0 3 -67 3 -68 68 -3 67 -3 0 -64 0
-65 80 0 80 0 0 65 0 65 60 0 60 0 0 -65 0 -65 75 0 75 0 0 65 0 64 68 3 67 3
3 67 3 67 67 3 67 3 3 67 3 67 67 3 67 3 0 75 0 75 -67 3 -68 3 0 54 0 54 68
3 67 3 0 75 0 75 -67 3 -67 3 -3 67 -3 67 -67 3 -67 3 -3 67 -3 67 -67 3 -68
3 0 64 0 65 -75 0 -75 0 0 -65 0 -65 -60 0 -60 0 0 65 0 65 -80 0 -80 0 0 -65z"/>
<path d="M1577 5513 c-4 -3 -7 -84 -7 -180 l0 -173 -135 0 -136 0 2 -162 1
-163 -176 -3 -177 -2 3 -148 3 -147 75 0 75 0 3 78 3 77 -46 0 c-25 0 -45 -4
-45 -10 0 -5 16 -10 35 -10 l36 0 -3 -57 -3 -58 -55 0 -55 0 -3 128 -3 127
167 -2 166 -3 0 -89 0 -89 -68 -68 -68 -69 -136 0 -135 0 -102 102 c-56 56
-106 99 -110 95 -4 -4 39 -54 95 -110 l102 -102 0 -135 0 -135 -132 -132 -133
-133 -140 -2 -140 -3 0 -145 0 -145 145 0 145 0 3 140 2 140 133 133 132 132
135 0 135 0 102 -102 c56 -56 106 -99 110 -95 4 4 -39 54 -95 110 l-102 102 0
135 0 136 68 67 68 67 92 0 92 0 0 -165 0 -165 -125 0 -125 0 0 60 0 60 55 0
55 0 0 -35 c0 -19 5 -35 10 -35 6 0 10 20 10 45 l0 45 -75 0 -75 0 0 -80 0
-80 145 0 145 0 0 175 0 175 60 0 60 0 0 -175 0 -175 145 0 145 0 0 80 0 81
-77 -3 -76 -3 0 -37 c0 -47 17 -55 21 -10 3 32 4 32 58 32 l54 0 0 -60 0 -60
-125 0 -125 0 0 165 0 165 95 0 95 0 0 275 0 275 -130 0 -130 0 0 170 0 170
125 0 125 0 0 -60 0 -60 -55 0 c-54 0 -55 0 -55 29 0 17 -4 33 -10 36 -6 4
-10 -12 -10 -39 l0 -46 75 0 75 0 0 80 0 80 -138 0 c-76 0 -142 -3 -145 -7z
m-419 -1175 l3 -128 -131 0 -130 0 0 123 c0 68 3 127 7 131 4 3 61 5 127 4
l121 -3 3 -127z m-550 -550 l3 -128 -131 0 -130 0 0 123 c0 68 3 127 7 131 4
3 61 5 127 4 l121 -3 3 -127z"/>
<path d="M2947 5514 c-4 -4 -7 -40 -7 -81 l0 -73 80 0 80 0 0 45 c0 25 -4 45
-10 45 -5 0 -10 -16 -10 -35 l0 -35 -60 0 -61 0 3 58 3 57 125 0 125 0 0 -165
0 -165 -133 -3 -132 -3 2 -272 3 -272 98 -3 97 -3 0 -164 0 -165 -130 0 -131
0 3 58 3 57 58 3 57 3 0 -36 c0 -19 5 -35 10 -35 6 0 10 20 10 45 l0 46 -77
-3 -78 -3 0 -75 0 -75 148 -3 147 -3 0 176 0 175 60 0 60 0 0 -175 0 -175 145
0 145 0 0 80 0 81 -77 -3 -78 -3 -3 -42 c-4 -50 15 -59 20 -10 3 32 4 32 61
35 l57 3 0 -61 0 -60 -125 0 -125 0 0 165 0 165 93 0 93 0 67 -68 67 -68 0
-134 0 -135 -107 -107 c-59 -60 -101 -108 -93 -108 9 0 60 45 115 100 l100
100 135 0 135 0 133 -133 132 -132 0 -143 0 -142 145 0 145 0 0 150 0 150
-143 0 -143 0 -132 133 -132 134 0 129 0 129 107 107 c59 59 104 111 100 115
-4 4 -54 -39 -110 -95 l-102 -102 -137 0 -137 0 -71 70 -70 71 0 90 0 89 168
-2 167 -3 0 -125 0 -125 -57 -3 -58 -3 0 61 c0 60 0 60 29 60 17 0 33 5 36 10
4 6 -12 10 -40 10 l-46 0 3 -77 3 -78 75 0 75 0 0 145 0 145 -177 3 -178 2 0
165 0 165 -130 0 -130 0 -2 178 -3 177 -141 3 c-77 1 -143 -1 -147 -4z m953
-1174 l0 -130 -125 0 -125 0 0 130 0 130 125 0 125 0 0 -130z m550 -550 l0
-130 -125 0 -125 0 0 130 0 130 125 0 125 0 0 -130z"/>
<path d="M6687 5514 c-4 -4 -7 -85 -7 -181 l0 -173 -130 0 -130 0 0 -165 0
-165 -177 -2 -178 -3 0 -145 0 -145 75 0 75 0 3 78 3 77 -46 0 c-28 0 -44 -4
-40 -10 3 -5 19 -10 36 -10 29 0 29 0 29 -60 l0 -61 -57 3 -58 3 0 125 0 125
168 3 167 2 0 -90 0 -90 -72 -70 -73 -70 -135 0 -135 0 -102 102 c-56 56 -106
99 -110 95 -4 -4 41 -56 100 -115 l107 -107 0 -129 0 -129 -132 -134 -132
-133 -143 0 -143 0 0 -150 0 -150 145 0 145 0 0 142 0 143 132 132 133 133
135 0 135 0 100 -100 c55 -55 106 -100 115 -100 8 0 -34 48 -93 108 l-107 107
0 135 0 136 68 67 68 67 92 0 92 0 0 -165 0 -165 -125 0 -125 0 0 60 0 61 58
-3 c56 -3 57 -3 60 -35 5 -49 24 -40 20 10 l-3 42 -77 3 -78 3 0 -81 0 -80
145 0 145 0 0 175 0 175 60 0 60 0 0 -175 0 -176 148 3 147 3 0 75 0 75 -77 3
-78 3 0 -46 c0 -25 5 -45 10 -45 6 0 10 16 10 35 l0 36 58 -3 57 -3 3 -57 3
-58 -131 0 -130 0 0 165 0 164 98 3 97 3 3 273 2 272 -135 0 -135 0 2 168 3
167 125 0 125 0 3 -57 3 -58 -61 0 -60 0 0 35 c0 19 -4 35 -10 35 -5 0 -10
-20 -10 -45 l0 -45 80 0 81 0 -3 78 -3 77 -141 3 c-77 1 -143 -1 -147 -4z"/>
<path d="M8060 5440 l0 -80 75 0 75 0 0 46 c0 27 -4 43 -10 39 -5 -3 -10 -19
-10 -36 0 -29 -1 -29 -55 -29 l-55 0 0 60 0 60 125 0 125 0 0 -170 0 -170
-130 0 -130 0 0 -275 0 -275 95 0 95 0 0 -165 0 -165 -125 0 -125 0 0 60 0 60
54 0 c54 0 55 0 58 -32 2 -18 6 -32 11 -30 4 1 7 4 7 7 0 3 0 21 0 40 l0 35
-75 0 -75 0 0 -80 0 -80 145 0 145 0 0 175 0 175 60 0 60 0 0 -175 0 -175 145
0 145 0 0 80 0 80 -75 0 -75 0 0 -45 c0 -25 5 -45 10 -45 6 0 10 16 10 35 l0
35 55 0 55 0 0 -60 0 -60 -125 0 -125 0 0 165 0 165 93 0 93 0 67 -68 67 -68
0 -134 0 -135 -102 -102 c-56 -56 -99 -106 -95 -110 4 -4 54 39 110 95 l102
102 135 0 135 0 132 -132 133 -133 2 -140 3 -140 145 0 145 0 0 145 0 145
-140 3 -140 2 -132 133 -133 132 0 135 0 135 102 102 c56 56 99 106 95 110 -4
4 -54 -39 -110 -95 l-102 -102 -135 0 -136 0 -68 69 -68 68 0 89 0 89 166 3
167 2 -3 -127 -3 -128 -55 0 -55 0 -3 58 -3 57 36 0 c19 0 35 5 35 10 0 6 -20
10 -45 10 l-46 0 3 -77 3 -78 75 0 75 0 3 147 3 148 -177 2 -176 3 1 163 2
162 -135 0 -136 0 -2 178 -3 177 -142 3 -143 3 0 -81z"/>
<path d="M10 4882 c0 -4 89 -96 198 -205 l197 -197 210 0 210 0 -205 205 -205
205 -202 0 c-112 0 -203 -3 -203 -8z"/>
<path d="M4190 4685 l-205 -205 205 0 205 0 205 205 205 205 -205 0 -205 0
-205 -205z"/>
<path d="M5320 4685 l205 -205 205 0 205 0 -205 205 -205 205 -205 0 -205 0
205 -205z"/>
<path d="M9300 4685 l-205 -205 210 0 210 0 198 198 c108 108 197 201 197 205
0 4 -91 7 -202 7 l-203 0 -205 -205z"/>
<path d="M275 4270 l-140 -140 205 0 205 0 140 140 140 140 -205 0 -205 0
-140 -140z"/>
<path d="M3990 4405 c0 -3 60 -66 133 -140 l132 -135 203 0 c111 0 202 3 202
8 0 4 -60 67 -133 140 l-132 132 -203 0 c-111 0 -202 -2 -202 -5z"/>
<path d="M5392 4277 c-72 -73 -132 -136 -132 -140 0 -4 91 -7 202 -7 l202 0
133 135 c73 75 133 138 133 140 0 3 -91 5 -203 5 l-202 0 -133 -133z"/>
<path d="M9235 4270 l140 -140 205 0 205 0 -140 140 -140 140 -205 0 -205 0
140 -140z"/>
<path d="M958 3993 l-138 -138 0 -205 0 -205 140 140 140 141 -2 202 -3 202
-137 -137z"/>
<path d="M1170 3923 l0 -208 205 -205 205 -205 0 205 0 205 -205 208 -205 209
0 -209z"/>
<path d="M3433 3928 l-203 -203 0 -205 0 -205 205 205 205 205 -2 203 -3 202
-202 -202z"/>
<path d="M3710 3925 l0 -210 135 -135 135 -135 0 210 0 210 -135 135 -135 135
0 -210z"/>
<path d="M6073 3998 l-133 -133 0 -210 0 -210 135 135 135 136 -2 207 -3 207
-132 -132z"/>
<path d="M6280 3930 l0 -205 205 -205 205 -205 0 205 0 205 -205 205 -205 205
0 -205z"/>
<path d="M8543 3921 l-203 -206 0 -205 0 -205 205 205 205 205 -2 206 -3 206
-202 -206z"/>
<path d="M8820 3930 l0 -205 140 -140 140 -140 0 205 0 205 -140 140 -140 140
0 -205z"/>
<path d="M680 2975 l0 -64 -67 -3 -68 -3 -3 -67 -3 -67 -67 -3 -67 -3 -3 -67
-3 -67 -67 -3 -67 -3 0 -75 0 -75 68 -3 67 -3 0 -54 0 -54 -67 -3 -68 -3 0
-75 0 -75 68 -3 67 -3 0 -69 0 -70 70 0 69 0 3 -67 3 -68 68 -3 67 -3 0 -64 0
-65 75 0 75 0 0 65 0 65 60 0 60 0 0 -65 0 -65 80 0 80 0 0 65 0 64 68 3 67 3
3 68 3 67 64 0 64 0 3 68 3 67 68 3 68 3 -3 77 -3 77 -67 3 -68 3 0 54 0 55
70 0 70 0 0 80 0 80 -70 0 -70 0 0 70 0 70 -65 0 -64 0 -3 68 -3 67 -67 3 -68
3 0 64 0 65 -80 0 -80 0 0 -65 0 -65 -60 0 -60 0 0 65 0 65 -75 0 -75 0 0 -65z
m130 -20 l0 -65 80 0 80 0 0 65 0 65 60 0 60 0 0 -65 0 -64 68 -3 67 -3 3 -67
3 -68 64 0 64 0 3 -67 3 -68 68 -3 67 -3 0 -59 0 -60 -70 0 -70 0 0 -75 0 -75
70 0 70 0 0 -60 0 -59 -67 -3 -68 -3 -3 -67 -3 -68 -64 0 -64 0 -3 -67 -3 -68
-67 -3 -68 -3 0 -64 0 -65 -60 0 -60 0 0 65 0 65 -80 0 -80 0 0 -65 0 -65 -55
0 -55 0 0 65 0 65 -70 0 -70 0 0 70 0 70 -70 0 -70 0 0 70 0 69 -66 3 -67 3 0
55 0 55 67 3 66 3 0 74 0 74 -66 3 -67 3 0 55 0 55 67 3 66 3 0 69 0 70 70 0
70 0 0 70 0 70 70 0 70 0 0 65 0 65 55 0 55 0 0 -65z"/>
<path d="M680 2415 l0 -215 215 0 215 0 0 215 0 215 -215 0 -215 0 0 -215z
m410 0 l0 -195 -195 0 -195 0 0 195 0 195 195 0 195 0 0 -195z"/>
<path d="M855 2580 c-4 -6 -5 -36 -4 -68 l3 -57 -67 -3 -67 -3 0 -34 0 -34 66
-3 67 -3 1 -65 1 -65 38 -3 37 -3 0 70 0 71 70 0 70 0 0 35 0 35 -70 0 -70 0
0 70 0 70 -34 0 c-19 0 -38 -5 -41 -10z m55 -80 l0 -70 70 0 c55 0 70 -3 70
-15 0 -11 -16 -15 -67 -17 l-68 -3 -3 -67 c-2 -50 -7 -68 -17 -68 -10 0 -15
18 -17 68 l-3 67 -67 3 c-50 2 -68 7 -68 17 0 10 18 15 68 17 l67 3 3 68 c2
51 6 67 17 67 12 0 15 -15 15 -70z"/>
<path d="M3700 2975 l0 -64 -67 -3 -68 -3 -3 -67 -3 -67 -67 -3 -67 -3 -3 -67
-3 -68 -64 0 -65 0 0 -80 0 -80 65 0 65 0 0 -55 0 -55 -65 0 -65 0 0 -80 0
-80 65 0 64 0 3 -67 3 -68 67 -3 67 -3 3 -67 3 -67 68 -3 67 -3 0 -64 0 -65
80 0 80 0 0 65 0 65 55 0 55 0 0 -65 0 -65 80 0 80 0 0 65 0 64 68 3 67 3 3
67 3 67 66 3 66 3 1 65 1 65 68 3 68 3 -3 77 -3 77 -67 3 -68 3 0 54 0 55 70
0 70 0 0 80 0 79 -67 3 -68 3 -1 65 -1 65 -66 3 -66 3 -3 67 -3 67 -67 3 -68
3 0 64 0 65 -80 0 -80 0 0 -65 0 -65 -55 0 -55 0 0 65 0 65 -80 0 -80 0 0 -65z
m140 -20 l0 -65 75 0 75 0 0 65 0 65 60 0 60 0 0 -65 0 -64 68 -3 67 -3 3 -67
3 -68 64 0 64 0 3 -67 3 -68 68 -3 67 -3 0 -59 0 -59 -67 -3 -68 -3 -3 -72 -3
-73 71 0 70 0 0 -60 0 -59 -67 -3 -68 -3 -3 -67 -3 -68 -64 0 -64 0 -3 -67 -3
-68 -67 -3 -68 -3 0 -64 0 -65 -60 0 -60 0 0 65 0 65 -75 0 -75 0 0 -65 0 -65
-60 0 -60 0 0 65 0 64 -67 3 -68 3 -3 68 -3 67 -69 0 -70 0 0 70 0 70 -65 0
-65 0 0 60 0 60 65 0 65 0 0 75 0 75 -65 0 -65 0 0 60 0 60 65 0 64 0 3 68 3
67 67 3 67 3 3 67 3 67 68 3 67 3 0 64 0 65 60 0 60 0 0 -65z"/>
<path d="M3700 2415 l0 -215 215 0 215 0 0 215 0 215 -215 0 -215 0 0 -215z
m410 0 l0 -195 -195 0 -195 0 0 195 0 195 195 0 195 0 0 -195z"/>
<path d="M3878 2523 l-3 -68 -67 -3 -68 -3 0 -34 0 -34 68 -3 67 -3 3 -67 3
-68 34 0 35 0 0 70 0 70 70 0 70 0 0 35 0 35 -70 0 -70 0 0 70 0 70 -35 0 -34
0 -3 -67z m54 -20 l3 -68 68 -3 c49 -2 67 -7 67 -17 0 -10 -18 -15 -67 -17
l-68 -3 -3 -67 c-2 -50 -7 -68 -17 -68 -10 0 -15 18 -17 68 l-3 67 -67 3 c-50
2 -68 7 -68 17 0 10 18 15 68 17 l67 3 3 68 c2 49 7 67 17 67 10 0 15 -18 17
-67z"/>
<path d="M5790 2975 l0 -64 -67 -3 -68 -3 -3 -67 -3 -67 -66 -3 -66 -3 -1 -65
-1 -65 -67 -3 -68 -3 0 -79 0 -80 70 0 70 0 0 -55 0 -54 -67 -3 -68 -3 -3 -77
-3 -77 68 -3 68 -3 1 -65 1 -65 66 -3 66 -3 3 -67 3 -67 68 -3 67 -3 0 -64 0
-65 80 0 80 0 0 65 0 65 55 0 55 0 0 -65 0 -65 80 0 80 0 0 65 0 64 68 3 67 3
3 67 3 67 67 3 67 3 3 68 3 67 64 0 65 0 0 80 0 80 -65 0 -65 0 0 55 0 55 65
0 65 0 0 80 0 80 -65 0 -64 0 -3 68 -3 67 -67 3 -67 3 -3 67 -3 67 -67 3 -68
3 0 64 0 65 -80 0 -80 0 0 -65 0 -65 -55 0 -55 0 0 65 0 65 -80 0 -80 0 0 -65z"/>
<path d="M8810 2975 l0 -64 -67 -3 -68 -3 -3 -67 -3 -68 -64 0 -64 0 -3 -67
-3 -68 -67 -3 -68 -3 0 -79 0 -80 70 0 70 0 0 -55 0 -54 -67 -3 -68 -3 -3 -77
-3 -77 68 -3 68 -3 3 -67 3 -68 64 0 64 0 3 -67 3 -68 68 -3 67 -3 0 -64 0
-65 80 0 80 0 0 65 0 65 60 0 60 0 0 -65 0 -65 75 0 75 0 0 65 0 64 68 3 67 3
3 67 3 67 67 3 67 3 3 67 3 67 67 3 67 3 0 75 0 75 -67 3 -68 3 0 54 0 54 68
3 67 3 0 75 0 75 -67 3 -67 3 -3 67 -3 67 -67 3 -67 3 -3 67 -3 67 -67 3 -68
3 0 64 0 65 -75 0 -75 0 0 -65 0 -65 -60 0 -60 0 0 65 0 65 -80 0 -80 0 0 -65z"/>
<path d="M1577 2353 c-4 -3 -7 -84 -7 -180 l0 -173 -135 0 -135 0 0 -165 0
-165 -175 0 -176 0 3 -147 3 -148 75 0 75 0 3 78 3 77 -46 0 c-25 0 -45 -4
-45 -10 0 -5 16 -10 35 -10 l36 0 -3 -57 -3 -58 -55 0 -55 0 -3 128 -3 127
167 -2 166 -3 0 -89 0 -89 -68 -68 -68 -69 -136 0 -135 0 -102 102 c-56 56
-106 99 -110 95 -4 -4 39 -54 95 -110 l102 -102 0 -135 0 -135 -132 -132 -133
-133 -140 -2 -140 -3 0 -145 0 -145 148 -3 147 -3 0 143 0 143 132 132 133
133 135 0 135 0 107 -107 c60 -59 108 -101 108 -93 0 9 -45 60 -100 115 l-100
100 0 135 0 136 68 67 68 67 92 0 92 0 0 -165 0 -165 -125 0 -125 0 0 60 0 60
55 0 55 0 0 -35 c0 -19 5 -35 10 -35 6 0 10 20 10 45 l0 45 -75 0 -75 0 0 -80
0 -80 145 0 145 0 0 175 0 175 60 0 60 0 0 -175 0 -175 145 0 145 0 0 80 0 80
-75 0 -75 0 0 -35 c0 -19 0 -37 0 -40 0 -3 3 -6 8 -7 4 -2 8 12 10 30 3 32 4
32 58 32 l54 0 0 -60 0 -60 -125 0 -125 0 0 165 0 165 95 0 95 0 0 275 0 275
-130 0 -130 0 2 168 3 167 123 3 122 3 0 -61 0 -60 -55 0 c-54 0 -55 0 -55 29
0 17 -4 33 -10 36 -6 4 -10 -12 -10 -39 l0 -46 75 0 75 0 0 80 0 80 -138 0
c-76 0 -142 -3 -145 -7z m-419 -1175 l3 -128 -131 0 -130 0 0 123 c0 68 3 127
7 131 4 3 61 5 127 4 l121 -3 3 -127z m-550 -550 l3 -128 -131 0 -130 0 0 123
c0 68 3 127 7 131 4 3 61 5 127 4 l121 -3 3 -127z"/>
<path d="M2947 2354 c-4 -4 -7 -40 -7 -81 l0 -73 80 0 80 0 0 45 c0 25 -4 45
-10 45 -5 0 -10 -16 -10 -35 l0 -35 -60 0 -61 0 3 58 3 57 125 0 125 0 3 -167
2 -168 -135 0 -135 0 0 -275 0 -275 100 0 100 0 0 -165 0 -165 -130 0 -131 0
3 58 3 57 58 3 57 3 0 -36 c0 -19 5 -35 10 -35 6 0 10 20 10 45 l0 46 -77 -3
-78 -3 0 -75 0 -75 148 -3 147 -3 0 176 0 175 60 0 60 0 0 -175 0 -175 145 0
146 0 -3 78 -3 77 -75 0 -75 0 -3 -42 c-4 -50 15 -59 20 -10 3 32 4 32 61 35
l57 3 0 -61 0 -60 -125 0 -125 0 0 165 0 165 93 0 93 0 67 -68 67 -68 0 -134
0 -135 -106 -106 c-58 -59 -102 -109 -97 -112 5 -3 56 41 114 99 l104 104 136
0 136 0 132 -136 131 -136 0 -139 0 -139 145 0 146 0 -3 147 -3 148 -141 3
-140 3 -132 133 -132 133 0 129 0 129 107 107 c59 59 104 111 100 115 -4 4
-54 -39 -110 -95 l-102 -102 -140 0 -141 0 -67 68 -67 68 0 92 0 92 168 -2
167 -3 0 -125 0 -125 -57 -3 -58 -3 0 61 c0 60 0 60 29 60 17 0 33 5 36 10 4
6 -12 10 -39 10 l-46 0 0 -80 0 -81 78 3 77 3 0 145 0 145 -177 3 -178 2 0
165 0 165 -130 0 -130 0 -2 178 -3 177 -141 3 c-77 1 -143 -1 -147 -4z m953
-1174 l0 -130 -125 0 -125 0 0 123 c0 68 3 127 7 130 3 4 60 7 125 7 l118 0 0
-130z m550 -550 l0 -130 -125 0 -125 0 0 130 0 130 125 0 125 0 0 -130z"/>
<path d="M6687 2354 c-4 -4 -7 -85 -7 -181 l0 -173 -130 0 -130 0 0 -165 0
-165 -177 -2 -178 -3 0 -145 0 -145 78 -3 77 -3 0 81 0 80 -46 0 c-27 0 -43
-4 -39 -10 3 -5 19 -10 36 -10 29 0 29 0 29 -60 l0 -61 -57 3 -58 3 0 125 0
125 168 3 167 2 0 -93 0 -93 -68 -67 -68 -67 -139 0 -140 0 -102 102 c-56 56
-106 99 -110 95 -4 -4 41 -56 100 -115 l107 -107 0 -129 0 -129 -132 -133
-132 -133 -140 -3 -141 -3 -3 -148 -3 -147 146 0 145 0 0 140 0 139 132 136
131 135 136 0 136 0 104 -104 c58 -58 109 -102 114 -99 5 3 -39 53 -97 112
l-106 106 0 135 0 136 68 67 68 67 92 0 92 0 0 -165 0 -165 -125 0 -125 0 0
60 0 61 58 -3 c56 -3 57 -3 60 -35 5 -49 24 -40 20 10 l-3 42 -75 0 -75 0 -3
-77 -3 -78 146 0 145 0 0 175 0 175 60 0 60 0 0 -175 0 -176 148 3 147 3 0 75
0 75 -77 3 -78 3 0 -46 c0 -25 5 -45 10 -45 6 0 10 16 10 35 l0 36 58 -3 57
-3 3 -57 3 -58 -131 0 -130 0 0 165 0 165 100 0 100 0 0 275 0 275 -135 0
-135 0 2 168 3 167 125 0 125 0 3 -57 3 -58 -61 0 -60 0 0 35 c0 19 -4 35 -10
35 -5 0 -10 -20 -10 -45 l0 -45 80 0 81 0 -3 78 -3 77 -141 3 c-77 1 -143 -1
-147 -4z"/>
<path d="M8060 2280 l0 -80 75 0 75 0 0 46 c0 27 -4 43 -10 39 -5 -3 -10 -19
-10 -36 0 -29 -1 -29 -55 -29 l-55 0 0 60 0 61 123 -3 122 -3 3 -167 2 -168
-130 0 -130 0 0 -275 0 -275 95 0 95 0 0 -165 0 -165 -125 0 -125 0 0 60 0 60
54 0 c54 0 55 0 58 -32 2 -18 6 -32 11 -30 4 1 7 4 7 7 0 3 0 21 0 40 l0 35
-75 0 -75 0 0 -80 0 -80 145 0 145 0 0 175 0 175 60 0 60 0 0 -175 0 -175 145
0 145 0 0 80 0 80 -75 0 -75 0 0 -45 c0 -25 5 -45 10 -45 6 0 10 16 10 35 l0
35 55 0 55 0 0 -60 0 -60 -125 0 -125 0 0 165 0 165 93 0 93 0 67 -68 67 -68
0 -134 0 -135 -100 -100 c-55 -55 -100 -106 -100 -115 0 -8 48 34 108 93 l107
107 135 0 135 0 133 -133 132 -132 0 -143 0 -143 148 3 147 3 0 145 0 145
-140 3 -140 2 -132 133 -133 132 0 135 0 135 102 102 c56 56 99 106 95 110 -4
4 -54 -39 -110 -95 l-102 -102 -135 0 -136 0 -68 69 -68 68 0 89 0 89 166 3
167 2 -3 -127 -3 -128 -55 0 -55 0 -3 58 -3 57 36 0 c19 0 35 5 35 10 0 6 -20
10 -45 10 l-46 0 3 -77 3 -78 75 0 75 0 3 148 3 147 -176 0 -175 0 0 165 0
165 -135 0 -135 0 -2 178 -3 177 -142 3 -143 3 0 -81z"/>
<path d="M10 1722 c0 -4 89 -96 198 -205 l197 -197 206 0 205 0 -206 205 -206
205 -197 0 c-108 0 -197 -3 -197 -8z"/>
<path d="M4192 1527 c-111 -111 -202 -204 -202 -207 0 -3 91 -4 203 -2 l203 3
204 204 205 205 -205 0 -205 0 -203 -203z"/>
<path d="M5325 1520 l210 -210 198 1 c108 0 197 4 197 7 0 4 -91 98 -203 210
l-202 202 -205 0 -205 0 210 -210z"/>
<path d="M9305 1520 l-210 -210 205 0 204 0 203 202 c112 111 203 206 203 210
0 4 -89 8 -198 8 l-197 0 -210 -210z"/>
<path d="M275 1110 l-140 -140 205 0 205 0 140 140 140 140 -205 0 -205 0
-140 -140z"/>
<path d="M3990 1243 c0 -4 60 -67 132 -140 l133 -133 202 0 c112 0 203 3 203
8 0 4 -60 67 -133 140 l-132 132 -203 0 c-111 0 -202 -3 -202 -7z"/>
<path d="M5392 1117 c-72 -73 -132 -136 -132 -140 0 -4 91 -7 203 -7 l202 0
133 133 c72 73 132 136 132 140 0 4 -91 7 -203 7 l-202 0 -133 -133z"/>
<path d="M9235 1110 l140 -140 205 0 205 0 -140 140 -140 140 -205 0 -205 0
140 -140z"/>
<path d="M958 833 l-138 -138 0 -205 0 -205 140 140 140 141 -2 202 -3 202
-137 -137z"/>
<path d="M3432 767 l-202 -202 0 -209 0 -210 205 210 205 209 0 202 c0 112 -1
203 -3 203 -1 0 -93 -91 -205 -203z"/>
<path d="M6280 770 l0 -206 205 -209 204 -210 1 210 0 210 -205 205 -205 205
0 -205z"/>
<path d="M8820 770 l0 -205 140 -140 140 -140 0 205 0 205 -140 140 -140 140
0 -205z"/>
<path d="M1170 760 l0 -205 205 -205 205 -205 0 205 0 205 -205 205 -205 205
0 -205z"/>
<path d="M3710 757 l0 -202 135 -135 135 -135 0 205 0 206 -127 132 c-71 73
-131 132 -135 132 -5 0 -8 -91 -8 -203z"/>
<path d="M6067 828 l-127 -133 0 -205 0 -205 135 135 135 135 0 202 c0 112 -3
203 -8 203 -4 0 -65 -60 -135 -132z"/>
<path d="M8543 758 l-203 -203 0 -205 0 -205 205 205 205 205 -2 203 -3 202
-202 -202z"/>
</g>
</svg>
