<?xml version="1.0" standalone="no"?>
<!DOCTYPE svg PUBLIC "-//W3C//DTD SVG 20010904//EN"
 "http://www.w3.org/TR/2001/REC-SVG-20010904/DTD/svg10.dtd">
<svg version="1.0" xmlns="http://www.w3.org/2000/svg"
 width="1280.000000pt" height="1280.000000pt" viewBox="0 0 1280.000000 1280.000000"
 preserveAspectRatio="xMidYMid meet">
<metadata>
Created by potrace 1.15, written by Peter Selinger 2001-2017
</metadata>
<g transform="translate(0.000000,1280.000000) scale(0.100000,-0.100000)"
fill="#000000" stroke="none">
<path d="M4459 11225 c-48 -31 -80 -97 -78 -159 2 -38 -3 -54 -30 -89 -46 -61
-71 -116 -71 -162 l0 -40 -26 26 c-16 17 -32 51 -44 100 -30 118 -95 161 -144
96 -17 -23 -21 -42 -20 -100 0 -93 27 -175 82 -256 24 -35 41 -69 38 -77 -3
-8 -30 -25 -60 -38 -75 -33 -79 -71 -14 -145 39 -44 27 -49 -61 -26 -110 29
-277 126 -371 216 -63 60 -79 66 -124 50 -29 -11 -41 -1 -52 44 -4 18 -52 75
-125 150 -121 125 -121 125 -146 240 -8 36 -12 40 -43 43 -19 1 -46 8 -59 15
-21 11 -26 8 -57 -28 -52 -62 -67 -120 -62 -234 4 -79 12 -114 43 -196 21 -55
50 -126 66 -157 16 -32 29 -60 29 -63 0 -3 -13 -5 -29 -5 -18 0 -56 19 -107
55 -190 131 -254 160 -254 114 0 -16 -4 -20 -17 -14 -10 3 -30 9 -45 12 -28 5
-28 5 -28 -44 0 -65 42 -130 124 -192 80 -60 194 -173 179 -178 -6 -2 -25 3
-42 11 -43 23 -78 21 -86 -4 -10 -32 16 -116 46 -153 26 -32 69 -56 222 -127
67 -31 76 -44 45 -64 -12 -7 -37 -4 -90 13 -40 13 -86 21 -103 19 -26 -2 -30
-8 -33 -35 -3 -27 6 -42 57 -97 34 -36 61 -74 61 -85 0 -53 -95 -60 -231 -18
-94 30 -212 37 -242 15 -16 -12 -14 -18 24 -72 22 -32 44 -66 47 -75 22 -52
89 -157 125 -194 57 -58 95 -73 212 -85 159 -15 252 -72 118 -72 -94 0 -101
-6 -78 -67 27 -69 104 -147 189 -188 67 -33 205 -65 278 -65 62 0 82 -32 58
-95 -11 -30 7 -52 77 -94 22 -13 83 -65 136 -116 151 -145 227 -170 372 -120
62 21 85 25 114 18 53 -13 49 -41 -12 -74 -48 -26 -129 -48 -257 -72 -63 -12
-65 -13 -68 -44 -2 -17 -10 -37 -18 -43 -8 -7 -14 -23 -14 -37 0 -26 41 -73
63 -73 8 0 20 -7 27 -15 10 -13 2 -19 -54 -44 -52 -24 -67 -35 -72 -58 -8 -30
15 -106 47 -160 25 -41 92 -73 152 -73 55 0 58 -5 86 -125 l17 -70 107 0 106
1 11 -30 c5 -16 10 -42 10 -58 0 -35 21 -88 43 -106 14 -12 27 -11 84 3 67 17
212 83 245 112 15 13 18 12 27 -6 6 -11 11 -55 11 -99 0 -103 5 -107 110 -99
59 5 80 3 81 -6 1 -20 6 -42 23 -100 24 -84 38 -84 250 -2 126 48 248 78 286
68 87 -22 125 -109 78 -176 -32 -46 -43 -53 -145 -102 -50 -24 -110 -60 -133
-81 l-41 -37 -132 -2 c-111 -1 -142 -5 -197 -24 -86 -31 -261 -122 -330 -172
-30 -21 -85 -59 -122 -84 -95 -63 -199 -170 -231 -235 -17 -37 -31 -90 -40
-161 l-15 -106 -61 -73 c-53 -63 -159 -226 -176 -272 -4 -10 -25 -17 -65 -21
-75 -6 -141 -37 -282 -130 -122 -81 -188 -104 -260 -93 -48 8 -117 53 -155
102 -37 46 -134 108 -208 132 -91 30 -215 36 -415 18 -196 -18 -327 -20 -362
-7 -13 5 -44 33 -68 63 -64 79 -127 125 -199 149 -55 19 -69 20 -105 9 -22 -6
-58 -25 -78 -41 -20 -16 -41 -29 -46 -29 -20 0 -151 -169 -292 -375 -120 -176
-188 -263 -212 -271 -10 -3 -18 -9 -18 -12 0 -4 -21 -30 -47 -57 -39 -41 -60
-79 -110 -196 -64 -152 -81 -218 -84 -332 -2 -62 0 -70 26 -97 36 -37 86 -54
139 -47 42 6 42 6 38 -23 -7 -46 21 -80 65 -80 45 0 113 19 135 38 10 8 27 40
38 71 43 114 162 219 385 338 168 90 175 94 208 121 16 12 38 22 50 22 12 0
64 -28 115 -63 111 -73 88 -59 237 -148 127 -75 367 -194 525 -261 79 -33 108
-40 170 -42 84 -2 87 -4 223 -95 123 -82 108 -73 200 -116 63 -30 89 -36 140
-36 34 0 77 4 95 10 36 11 114 64 178 122 44 39 53 42 195 54 119 10 310 67
464 140 267 125 452 195 609 231 69 16 80 17 88 4 145 -244 194 -308 356 -474
180 -183 318 -288 428 -325 61 -20 72 -33 73 -88 1 -17 15 -69 32 -115 37 -99
34 -129 -15 -199 -20 -27 -36 -52 -36 -55 0 -3 -18 -36 -40 -72 -98 -166 -144
-335 -137 -507 3 -101 7 -116 40 -188 21 -43 37 -85 37 -93 0 -8 -11 -36 -24
-62 -37 -72 -49 -155 -42 -279 3 -59 8 -126 12 -148 5 -38 2 -44 -56 -110 -85
-98 -130 -168 -152 -237 -32 -106 -18 -182 51 -260 26 -30 39 -36 88 -42 32
-3 81 -2 108 4 28 6 62 14 77 17 56 11 369 -171 450 -261 14 -16 41 -55 59
-85 18 -31 38 -65 45 -77 8 -13 34 -27 71 -37 32 -9 92 -25 133 -37 59 -17
114 -22 260 -27 l185 -5 43 73 c71 123 56 204 -51 276 -27 18 -80 42 -120 54
-198 60 -274 139 -354 372 -47 137 -71 192 -106 238 l-19 27 54 104 c30 56 84
157 120 223 132 242 232 497 262 669 3 16 14 38 24 50 11 12 23 31 26 42 4 12
17 34 30 49 20 23 25 41 28 105 3 75 6 84 83 234 l80 156 0 118 c0 115 -1 119
-31 167 -69 108 -82 146 -98 270 -12 91 -28 154 -65 260 -79 226 -101 275
-261 589 -84 164 -149 301 -143 305 104 72 233 198 292 284 30 44 104 207 142
312 25 67 175 169 377 256 32 14 47 28 58 56 18 42 40 73 100 141 23 26 46 56
52 68 10 19 16 20 64 12 73 -12 326 -12 483 1 93 8 185 8 323 1 187 -11 193
-11 221 10 16 11 40 33 53 48 13 15 95 88 182 161 l160 134 33 -12 c132 -48
283 -1 283 87 0 65 -57 140 -153 203 -86 56 -170 81 -282 83 -139 2 -98 17 67
25 106 5 151 12 176 24 17 10 32 22 32 27 0 20 -57 64 -119 94 -61 28 -74 31
-166 31 -81 -1 -115 -6 -181 -28 -105 -35 -220 -119 -312 -228 -51 -60 -73
-79 -92 -79 -39 0 -164 28 -245 55 -44 15 -110 28 -164 32 -57 4 -92 10 -95
18 -6 16 11 151 25 192 14 45 62 93 91 93 14 0 44 7 69 15 46 15 81 22 314 54
204 28 514 52 895 68 l145 5 61 38 c33 21 139 77 235 125 170 86 195 101 283
178 24 20 47 37 52 37 5 0 30 -26 55 -58 132 -164 226 -320 426 -707 134 -257
306 -560 363 -635 14 -19 73 -113 131 -208 57 -95 124 -205 148 -245 58 -97
192 -380 231 -492 53 -152 96 -232 143 -266 49 -36 93 -55 144 -65 l36 -7 -5
46 c-3 28 -28 92 -61 159 -122 247 -236 536 -263 663 -27 124 -30 484 -7 730
17 189 9 417 -22 632 -23 154 -29 176 -79 295 -71 170 -150 267 -292 360 l-92
60 -7 273 -7 274 -28 11 c-38 16 -58 68 -63 164 -4 71 -7 82 -30 102 -36 31
-129 56 -211 59 l-70 1 -49 110 c-27 60 -64 150 -82 199 -55 151 -95 238 -125
277 -17 20 -30 41 -30 46 0 17 -138 139 -209 186 -155 102 -353 196 -656 310
-169 64 -282 120 -367 181 -35 25 -94 66 -131 91 -38 25 -71 53 -74 62 -17 51
-56 128 -79 156 -14 17 -61 78 -105 136 -71 95 -79 109 -79 150 0 136 -82 220
-173 179 -26 -12 -87 -109 -87 -139 0 -10 15 -36 33 -58 99 -123 174 -243 197
-314 7 -23 24 -46 43 -59 52 -36 117 -101 138 -139 38 -68 117 -172 150 -196
27 -20 54 -68 135 -237 94 -198 132 -268 310 -570 38 -65 78 -135 90 -155 12
-20 66 -116 121 -212 152 -265 271 -509 254 -519 -7 -5 -50 -16 -95 -25 -80
-15 -136 -23 -376 -51 -348 -42 -520 -89 -629 -173 l-36 -27 -414 -2 c-229 -2
-420 1 -429 6 -29 17 57 31 179 30 125 -2 160 8 197 56 11 14 46 105 77 203
77 241 83 257 122 334 55 106 37 154 -88 234 -80 51 -86 64 -69 165 16 95 8
165 -35 297 -41 127 -44 188 -14 264 31 78 29 151 -4 214 -47 87 -158 198
-239 238 -90 46 -138 47 -248 6 -107 -39 -160 -39 -231 0 -30 17 -103 55 -163
85 -157 79 -202 77 -418 -21 -64 -29 -119 -46 -157 -50 l-59 -7 -6 -38 c-6
-40 -40 -86 -66 -91 -8 -1 -53 5 -100 15 -239 48 -296 50 -370 12 -40 -21 -80
-72 -80 -104 0 -49 52 -91 112 -91 21 0 38 -2 38 -4 0 -2 -6 -19 -14 -37 -23
-56 -29 -145 -15 -215 12 -62 12 -63 -12 -84 -50 -42 -82 -54 -154 -54 -38 -1
-88 3 -110 7 -39 8 -41 7 -84 -43 -40 -47 -43 -54 -34 -83 9 -31 10 -32 65
-30 l55 3 12 -40 c7 -22 21 -45 34 -51 12 -7 25 -17 29 -23 10 -15 -19 -59
-53 -78 -16 -10 -34 -29 -41 -43 -6 -14 -15 -25 -19 -25 -4 0 -28 28 -52 63
-52 72 -96 183 -127 317 -14 61 -42 134 -77 205 -138 281 -301 447 -581 595
-174 92 -239 142 -282 217 -19 33 -57 89 -84 124 -26 35 -80 129 -118 209 -73
150 -120 220 -147 219 -9 0 -32 -11 -52 -24z m4784 -1013 c69 -54 164 -119
207 -143 94 -52 240 -144 250 -157 3 -4 37 -27 75 -52 148 -94 223 -157 300
-252 76 -95 100 -138 150 -269 42 -112 45 -177 14 -289 -28 -102 -37 -270 -16
-300 19 -27 12 -50 -14 -50 -11 0 -36 -8 -57 -19 -51 -25 -96 -32 -115 -18 -9
7 -52 84 -95 172 -44 88 -119 230 -167 315 -48 85 -99 175 -112 200 -14 25
-51 88 -83 140 -162 268 -340 593 -418 763 -9 19 24 2 81 -41z m-3040 -1266
c7 -17 -6 -34 -56 -70 -61 -45 -104 -150 -71 -176 14 -12 29 -11 104 9 49 13
96 21 107 18 10 -3 37 -11 61 -17 35 -9 42 -15 42 -35 0 -22 -5 -25 -34 -25
-52 0 -86 -16 -86 -40 0 -39 21 -61 83 -91 58 -27 70 -29 187 -29 135 0 138
-2 56 -49 -24 -14 -66 -39 -91 -55 -55 -34 -114 -39 -160 -12 -116 65 -296
207 -331 261 -25 39 -28 109 -6 183 11 37 23 84 26 105 l7 37 78 0 c58 0 80
-4 84 -14z m4401 -797 c39 -12 103 -27 141 -33 69 -12 70 -13 75 -46 4 -30 15
-40 90 -86 155 -94 233 -190 301 -370 54 -144 68 -201 79 -319 45 -480 64
-647 85 -750 25 -121 30 -187 19 -244 -8 -38 -21 -40 -36 -3 -51 125 -131 274
-170 316 -10 11 -18 23 -18 27 0 3 -27 41 -60 84 -33 43 -60 82 -60 87 0 5
-38 87 -84 181 -78 159 -115 224 -296 524 -80 133 -204 379 -249 493 -42 108
-37 130 34 147 69 16 69 16 149 -8z"/>
</g>
</svg>
