<?xml version="1.0" standalone="no"?>
<!DOCTYPE svg PUBLIC "-//W3C//DTD SVG 20010904//EN"
 "http://www.w3.org/TR/2001/REC-SVG-20010904/DTD/svg10.dtd">
<svg version="1.0" xmlns="http://www.w3.org/2000/svg"
 width="786.000000pt" height="1280.000000pt" viewBox="0 0 786.000000 1280.000000"
 preserveAspectRatio="xMidYMid meet">
<metadata>
Created by potrace 1.15, written by Peter Selinger 2001-2017
</metadata>
<g transform="translate(0.000000,1280.000000) scale(0.100000,-0.100000)"
fill="#000000" stroke="none">
<path d="M3431 12793 c-14 -3 -39 -16 -56 -29 -18 -13 -36 -24 -40 -24 -5 0
-19 -10 -32 -22 l-23 -22 -28 25 c-65 60 -128 80 -167 55 -13 -9 -35 -16 -49
-16 -14 0 -46 -11 -73 -25 -26 -14 -68 -31 -93 -37 -25 -6 -49 -14 -55 -18 -5
-4 -35 -8 -65 -8 -30 0 -67 -5 -81 -10 -26 -10 -99 -80 -99 -95 0 -4 -17 -31
-39 -60 -21 -29 -41 -60 -44 -70 -4 -9 -15 -20 -24 -23 -10 -3 -27 -10 -38
-15 -19 -8 -100 -37 -120 -43 -18 -5 -69 -28 -160 -72 -49 -23 -124 -58 -165
-77 -42 -19 -82 -42 -89 -51 -7 -9 -18 -16 -23 -16 -6 0 -50 -31 -99 -70 -48
-38 -91 -70 -95 -70 -4 0 -37 -24 -73 -53 -36 -30 -86 -66 -111 -82 -25 -16
-122 -102 -217 -192 -94 -90 -175 -163 -181 -163 -5 0 -48 -40 -96 -90 l-87
-90 -97 0 c-75 0 -104 -4 -127 -18 -16 -10 -50 -24 -75 -31 -25 -7 -67 -23
-95 -36 -27 -12 -57 -26 -65 -29 -8 -3 -33 -17 -55 -30 -22 -13 -67 -38 -100
-56 -33 -18 -64 -36 -70 -40 -27 -22 -132 -70 -176 -81 l-49 -13 0 -138 0
-138 58 -59 c66 -68 118 -137 148 -195 28 -56 85 -159 95 -172 5 -6 32 -57 60
-115 45 -91 140 -243 200 -320 19 -24 21 -39 19 -207 0 -104 4 -189 9 -199 6
-10 14 -177 18 -388 l8 -370 3 585 2 585 43 12 c137 37 165 46 194 59 17 8 39
14 50 15 40 2 -33 17 -89 18 -31 1 -60 6 -63 11 -3 6 -23 10 -43 10 -27 0 -47
8 -72 30 -30 25 -32 29 -15 30 11 0 34 8 50 17 26 14 74 17 327 21 294 4 297
4 303 26 11 37 35 88 87 181 15 28 36 68 47 90 11 22 33 58 49 80 15 22 31 47
34 55 7 20 128 168 162 199 14 14 26 30 26 37 0 17 278 294 296 294 7 0 19 9
26 20 7 11 16 20 20 20 4 0 34 20 67 45 32 25 62 45 66 45 4 0 38 23 76 50 38
28 73 50 78 50 12 0 190 89 211 105 8 6 49 19 90 29 41 10 84 21 95 26 11 4
43 14 70 20 28 7 64 18 80 25 55 24 98 35 129 35 18 0 38 6 45 13 17 17 486
16 503 -1 7 -7 36 -12 65 -12 55 0 145 -15 178 -30 11 -5 47 -17 80 -26 33 -9
65 -20 70 -24 6 -4 28 -13 50 -20 22 -7 46 -17 53 -23 6 -5 12 -7 12 -4 0 9
344 -169 404 -208 33 -22 67 -44 76 -50 36 -22 169 -137 225 -194 33 -34 64
-61 70 -61 13 0 125 -114 125 -127 0 -6 29 -43 65 -84 36 -40 65 -78 65 -84 0
-6 16 -34 35 -62 19 -29 35 -55 35 -58 0 -4 15 -27 33 -53 17 -26 37 -57 42
-69 6 -12 48 -61 95 -109 79 -80 117 -111 126 -102 2 2 -14 40 -36 84 -38 77
-102 212 -127 267 -12 26 -11 27 14 21 l27 -7 -21 34 c-14 23 -23 60 -28 114
-9 107 -11 112 -56 140 -53 34 -106 34 -119 0 -13 -34 -4 -53 32 -60 71 -16
108 -56 108 -119 0 -49 -34 -75 -48 -37 -4 11 -51 69 -104 130 -54 60 -98 113
-98 117 0 4 -6 15 -14 23 -7 9 -16 28 -20 44 -6 24 -4 27 19 27 26 0 26 1 19
48 -3 26 -10 52 -15 58 -13 16 28 94 49 94 30 0 292 -277 292 -308 0 -6 29
-46 65 -91 36 -44 65 -83 65 -87 0 -4 20 -33 43 -63 24 -31 46 -61 48 -67 2
-6 21 -30 41 -53 l38 -41 94 0 c52 0 97 -4 100 -9 3 -5 91 -12 196 -16 l190
-7 0 -44 c0 -57 -34 -128 -74 -157 -30 -21 -40 -22 -224 -21 -137 0 -199 4
-217 14 -20 11 -29 10 -58 -4 -19 -9 -41 -16 -49 -16 -20 0 -54 -27 -45 -36 4
-4 94 -11 200 -14 163 -7 197 -11 229 -27 l36 -20 -126 -6 c-161 -9 -287 -9
-438 -1 l-120 7 -18 41 c-59 134 -92 194 -148 273 -21 29 -38 55 -38 58 0 13
-90 131 -124 164 -20 19 -36 41 -36 48 0 20 -351 373 -399 403 -23 14 -68 44
-101 68 -33 23 -63 42 -66 42 -4 0 -21 11 -38 24 -39 29 -277 149 -331 166
-22 7 -44 16 -50 20 -5 4 -32 13 -60 19 -27 7 -57 16 -65 19 -8 3 -17 6 -20 6
-3 1 -10 4 -16 8 -5 4 -41 12 -80 18 -38 7 -76 16 -86 20 -9 5 -94 14 -189 21
-137 9 -196 9 -279 -1 -58 -7 -109 -16 -115 -20 -5 -4 -39 -11 -75 -15 -36 -3
-83 -12 -105 -18 -22 -6 -44 -12 -50 -13 -5 0 -17 -3 -25 -6 -8 -3 -35 -12
-60 -19 -25 -7 -56 -19 -70 -26 -14 -7 -31 -13 -37 -13 -7 0 -41 -13 -75 -30
-35 -16 -102 -47 -149 -70 -48 -22 -92 -47 -99 -55 -7 -8 -18 -15 -24 -15 -7
0 -51 -31 -99 -70 -47 -38 -89 -70 -92 -70 -12 0 -169 -123 -195 -152 -16 -18
-83 -93 -149 -166 -67 -73 -121 -138 -121 -143 0 -6 -20 -36 -43 -67 -44 -56
-87 -139 -87 -165 0 -8 -3 -17 -7 -21 -5 -4 -8 -11 -9 -14 0 -4 -4 -16 -8 -27
-4 -11 -12 -33 -18 -50 -6 -16 -16 -43 -23 -60 -8 -16 -19 -44 -25 -62 -7 -17
-20 -39 -31 -49 -10 -9 -19 -23 -19 -30 0 -34 -118 -62 -146 -34 -5 5 -45 11
-89 12 -71 3 -84 0 -113 -20 -54 -39 -30 -51 106 -54 l117 -3 3 -35 c2 -19 8
-39 13 -44 13 -14 12 -229 -2 -243 -5 -5 -13 -52 -16 -102 -5 -77 -8 -90 -19
-79 -9 9 -20 79 -31 208 l-18 195 -164 3 c-90 1 -186 -2 -215 -8 -28 -6 -60
-12 -71 -14 -20 -3 -20 -11 -23 -816 -1 -536 1 -817 8 -825 7 -8 10 -827 10
-2463 0 -1347 2 -2456 4 -2463 3 -8 10 -102 16 -209 6 -107 14 -202 18 -210 3
-8 13 -107 21 -220 l16 -205 160 -3 c88 -1 169 2 180 7 11 5 39 14 61 21 l41
12 7 342 c9 435 -8 1952 -22 1969 -5 6 -14 120 -18 252 l-9 240 -5 -195 -5
-195 -47 -3 c-42 -3 -48 -6 -48 -26 0 -12 -4 -26 -10 -32 -5 -5 -12 -35 -16
-67 -8 -63 -4 -69 64 -102 17 -9 32 -23 32 -31 0 -8 8 -27 18 -41 13 -21 18
-53 20 -153 4 -168 -9 -345 -25 -346 -7 -1 -29 -2 -48 -3 -35 -1 -35 -1 -35
-49 0 -26 -5 -53 -12 -60 -9 -9 -8 -12 5 -12 10 0 25 -4 35 -10 9 -5 29 -14
45 -20 l27 -10 -2 -352 -3 -353 -58 -9 c-31 -5 -57 -14 -57 -19 0 -6 -10 -22
-22 -35 l-23 -24 24 -19 c25 -20 76 -26 86 -9 3 6 14 10 24 10 16 0 19 -13 24
-97 10 -146 8 -438 -2 -466 -19 -49 -66 -71 -163 -75 -48 -3 -95 -1 -105 3
-10 5 -21 9 -25 9 -3 1 -10 4 -14 8 -4 5 -15 8 -25 8 -15 0 -19 12 -25 70 -4
39 -11 73 -15 76 -13 8 -10 57 5 77 19 25 26 21 26 -13 0 -26 4 -30 28 -30 44
0 64 20 60 60 l-3 35 -63 -2 -62 -3 0 520 c0 287 -2 525 -5 529 -3 5 -8 709
-12 1565 l-6 1556 47 0 48 0 -7 53 c-5 44 -13 57 -46 87 -24 22 -41 47 -45 68
-4 18 -11 35 -15 38 -14 8 -11 168 3 182 14 14 18 269 5 315 -7 25 -6 27 25
27 65 0 78 9 78 51 0 31 -10 51 -45 98 -40 53 -46 68 -52 126 -3 36 -10 68
-14 71 -5 3 -9 124 -9 270 0 205 3 264 13 264 6 0 30 -14 51 -30 58 -44 76
-40 76 14 l0 45 -70 7 -70 7 2 586 3 586 110 11 c61 6 121 16 134 23 16 9 30
10 45 3 11 -5 41 -16 66 -24 l45 -15 3 -179 c1 -99 7 -183 12 -188 6 -6 10
-83 10 -181 l0 -171 -64 -63 c-61 -60 -63 -64 -53 -92 6 -16 19 -29 28 -29 8
0 19 -3 23 -7 4 -5 13 -8 19 -8 8 0 15 -30 19 -80 4 -44 12 -88 18 -97 13 -23
13 -415 0 -423 -5 -3 -10 -22 -10 -41 0 -40 -3 -41 -40 -14 l-29 20 -6 -20
c-3 -11 -13 -20 -21 -20 -8 0 -14 -10 -14 -25 0 -15 6 -25 14 -25 24 0 109
-107 123 -153 8 -26 13 -103 13 -203 0 -89 3 -176 6 -193 17 -85 24 -2 24 297
0 249 -3 331 -13 341 -15 15 -17 877 -2 901 6 8 15 62 21 120 l11 105 1 -77
c1 -42 7 -80 13 -83 6 -4 9 -37 8 -80 -1 -39 1 -77 5 -84 5 -7 12 -435 16
-952 5 -589 12 -944 18 -952 5 -7 13 -78 17 -159 7 -136 9 -148 26 -148 18 0
19 23 19 744 0 486 -3 747 -10 751 -13 8 -14 1321 -1 1329 4 3 10 57 13 120 4
85 10 122 22 141 9 14 27 45 40 68 40 74 51 92 64 100 6 4 12 14 12 22 0 7 11
26 24 42 35 42 105 159 122 206 9 23 21 53 27 66 7 13 12 64 12 113 0 48 1 88
2 88 2 0 17 -9 35 -20 47 -28 56 -25 68 21 8 28 29 59 68 98 58 57 222 195
226 189 1 -2 8 -25 16 -53 21 -80 24 -122 7 -145 l-15 -21 -21 29 c-11 17 -21
35 -21 42 0 6 -4 8 -10 5 -14 -8 -14 -612 0 -620 6 -4 11 -128 12 -333 l1
-327 9 320 c5 185 12 323 18 329 6 6 10 44 10 85 0 85 21 291 30 291 3 0 4
-117 2 -261 -3 -169 -1 -268 6 -282 7 -14 15 -321 23 -852 6 -456 16 -835 21
-841 5 -7 8 -134 8 -284 -1 -150 1 -275 4 -278 3 -3 7 -129 8 -281 1 -182 4
-250 8 -201 4 41 8 130 9 197 0 69 5 125 11 128 6 4 10 195 10 541 0 294 4
534 8 534 5 0 18 -10 29 -22 20 -22 21 -36 28 -533 4 -280 9 -513 12 -518 2
-4 4 -122 3 -261 0 -165 3 -257 10 -261 7 -4 10 272 10 872 0 895 0 903 35
903 9 0 15 -238 25 -875 7 -481 17 -875 22 -875 4 0 8 432 8 961 l0 961 23 19
c28 24 37 24 37 0 0 -11 4 -22 9 -25 5 -3 7 -15 4 -27 -3 -11 -1 -30 5 -42 6
-14 13 -165 16 -392 6 -367 11 -445 27 -445 5 0 9 435 9 988 0 975 15 1872 33
1872 4 0 7 -12 6 -28 -2 -15 0 -32 4 -39 4 -7 12 -402 17 -879 7 -570 14 -872
21 -880 5 -7 10 -36 9 -66 0 -29 6 -84 14 -123 13 -64 16 -72 20 -46 0 5 4 13
9 17 4 4 7 28 7 53 0 65 33 331 41 331 12 0 29 -175 29 -303 0 -73 4 -128 10
-132 6 -4 10 -87 11 -213 1 -114 4 -247 8 -297 l6 -90 8 100 c4 55 6 471 6
924 -1 541 2 825 8 830 6 3 14 65 19 136 l9 130 3 -199 c1 -116 7 -205 13
-212 6 -7 9 -86 9 -200 -1 -104 1 -196 3 -204 3 -8 11 -282 18 -607 7 -326 16
-593 19 -593 4 0 10 552 14 1228 6 1192 10 1392 26 1392 18 0 30 -236 33 -631
2 -319 6 -431 15 -442 7 -8 10 -22 6 -30 -3 -9 -2 -22 3 -29 4 -7 11 198 15
457 7 497 12 612 33 652 10 20 14 -96 20 -647 4 -377 11 -673 17 -676 5 -3 8
-149 8 -333 -1 -179 1 -333 4 -341 3 -8 7 -166 9 -350 1 -184 3 199 5 851 1
652 -1 1342 -5 1533 -6 309 -8 347 -22 344 -10 -2 -20 -21 -26 -53 -5 -28 -14
-56 -18 -63 -5 -7 -6 -40 -2 -73 4 -37 3 -59 -3 -59 -6 0 -16 47 -23 105 -7
58 -16 105 -20 105 -4 0 -10 -19 -14 -42 -4 -24 -14 -57 -22 -75 -8 -18 -12
-36 -9 -42 4 -5 2 -12 -3 -15 -5 -3 -12 -26 -16 -52 -10 -70 -18 -45 -16 50 2
96 -15 139 -53 134 -27 -4 -35 -47 -35 -209 -1 -94 -5 -130 -16 -145 -8 -10
-15 -17 -16 -14 0 3 -4 74 -8 159 -6 134 -9 155 -26 167 -43 32 -46 23 -44
-130 1 -103 -3 -152 -13 -172 -29 -61 -35 -39 -42 148 -4 101 -10 191 -12 201
-3 10 0 17 9 17 7 0 23 11 36 24 12 12 41 29 64 36 23 8 47 17 52 21 29 20
138 25 290 12 l90 -8 2 -905 c2 -1478 13 -2679 24 -2755 6 -38 12 -130 14
-204 11 -368 15 -13 15 1325 0 1464 0 1469 20 1482 17 10 21 10 25 0 2 -7 6
-175 8 -373 3 -314 6 -364 20 -390 9 -16 17 -37 17 -45 1 -34 20 15 20 50 0
20 4 40 9 45 5 6 11 87 13 180 4 158 10 205 27 205 3 0 5 -563 3 -1252 -1
-689 2 -1256 6 -1260 5 -5 12 100 15 233 10 340 9 2399 -1 2399 -4 0 -18 -7
-31 -16 -44 -31 -46 -15 -45 296 0 220 3 292 13 304 10 11 14 89 18 298 l5
283 -44 43 -44 43 -19 -21 c-17 -19 -19 -40 -20 -226 -1 -142 -5 -208 -13
-216 -9 -9 -12 50 -12 250 l0 262 128 0 c142 0 263 -19 293 -45 17 -16 19 -32
19 -145 0 -70 3 -130 8 -134 4 -4 12 -130 18 -279 l11 -272 1 409 2 409 38 -7
c21 -3 53 -13 70 -22 l32 -15 0 -337 c0 -185 -5 -1028 -11 -1872 -7 -988 -7
-1718 -1 -2050 l9 -515 1 346 c1 190 4 348 8 351 3 3 5 155 4 338 0 183 3 337
8 344 16 19 27 961 27 2204 l0 1194 29 -6 c16 -4 54 -18 85 -32 31 -15 63 -30
71 -34 8 -4 41 -15 74 -25 l58 -18 -7 -71 c-4 -39 -10 -75 -15 -81 -4 -5 -14
-54 -20 -107 -7 -54 -16 -95 -21 -92 -5 3 -7 9 -4 14 3 5 1 11 -5 15 -6 4 -10
57 -11 128 -1 67 -5 133 -9 147 -4 14 -9 -270 -9 -630 -2 -803 20 -3050 30
-3045 3 3 14 46 24 97 10 51 24 103 32 117 11 23 13 14 13 -85 0 -127 9 -234
20 -234 16 0 23 61 29 245 5 143 11 197 22 217 9 15 19 25 22 21 4 -3 7 -46 7
-95 0 -55 4 -88 10 -88 7 0 10 48 9 139 0 77 2 145 6 151 4 6 9 424 11 928 5
1136 10 1452 24 1466 5 5 10 37 11 70 0 34 4 79 8 101 5 22 9 -773 10 -1767 0
-995 5 -1808 9 -1808 16 0 32 1342 32 2675 0 1219 -2 1367 -15 1341 -8 -15
-13 -32 -10 -36 3 -5 1 -11 -4 -14 -4 -3 -11 -24 -15 -46 -3 -22 -11 -40 -16
-40 -5 0 -7 13 -4 30 4 16 2 36 -4 42 -5 7 -13 44 -17 82 -6 57 -10 65 -19 50
-6 -10 -11 -21 -12 -24 -1 -7 -14 -42 -24 -65 -9 -20 -9 -20 -9 1 -1 11 -5 24
-10 30 -8 8 -31 143 -31 180 0 16 -5 18 76 -31 18 -11 85 -51 149 -89 67 -40
145 -97 185 -135 l70 -66 0 -1102 c0 -724 3 -1104 10 -1108 7 -4 11 -386 12
-1108 1 -619 5 -1014 8 -902 12 326 11 1733 -1 2276 -12 554 3 1582 22 1606 7
7 9 56 7 123 -1 60 -1 110 2 110 3 0 29 -25 57 -56 l53 -57 -6 -256 c-4 -141
-11 -261 -16 -267 -5 -7 -8 -290 -8 -641 1 -346 -1 -636 -4 -644 -2 -7 -10
-61 -17 -119 -6 -58 -16 -110 -21 -117 -5 -7 -5 -14 2 -18 7 -4 11 -441 12
-1403 1 -1343 2 -1379 13 -927 6 259 12 472 14 475 1 3 1 106 1 229 0 123 3
228 8 235 5 6 15 325 22 709 7 383 16 697 20 697 14 0 21 -453 18 -1060 -3
-549 5 -844 21 -823 3 4 5 441 3 970 l-3 962 -22 3 c-21 3 -22 8 -28 153 -14
335 -6 1287 11 1310 4 6 11 108 15 228 4 119 10 217 14 217 21 0 81 -80 90
-120 12 -51 13 -256 2 -343 -9 -74 3 -181 25 -210 15 -21 16 -13 11 129 -6
206 19 336 59 303 7 -6 27 -32 44 -57 l30 -45 0 -537 c0 -295 -3 -540 -7 -544
-23 -22 -28 -454 -25 -2154 1 -1219 5 -1811 12 -1807 7 4 10 190 10 538 -1
501 0 532 17 539 45 17 43 39 43 -599 0 -335 3 -672 6 -750 7 -134 8 -142 28
-145 17 -2 22 -11 24 -43 3 -47 -22 -115 -43 -115 -23 0 -18 -26 9 -43 l23
-16 8 -558 c4 -307 9 -561 11 -565 7 -11 6 -520 -1 -526 -3 -3 -6 -87 -6 -186
-1 -100 -4 -215 -8 -256 l-6 -75 -500 -2 c-275 -2 -594 -4 -710 -5 -351 -4
-1959 23 -1977 33 -10 5 -73 9 -140 9 -68 0 -223 5 -345 12 l-223 12 0 651 c1
769 -18 2082 -30 2110 -5 11 -14 385 -22 830 l-13 810 -30 0 -30 0 -10 -2192
c-8 -1733 -13 -2195 -23 -2205 -9 -9 -74 -12 -255 -13 -215 0 -245 2 -267 18
-13 9 -32 17 -41 17 -15 0 -17 73 -24 897 -4 494 -11 903 -15 908 -4 6 -15
811 -25 1790 -10 979 -22 1784 -26 1790 -5 5 -10 209 -11 455 l-2 445 -7 -450
c-10 -684 -10 -936 -3 -3481 l7 -2360 -35 -17 c-20 -9 -42 -17 -50 -17 -7 0
-22 -6 -33 -14 -11 -7 -35 -17 -54 -21 l-34 -7 6 -59 c4 -51 23 -106 58 -171
5 -10 13 -26 18 -35 5 -10 17 -116 27 -235 18 -225 15 -368 -7 -435 -16 -48
-86 -142 -115 -155 -38 -18 -4 -82 61 -115 68 -34 75 -49 75 -142 0 -106 -21
-198 -57 -252 -16 -23 -33 -50 -38 -59 -6 -10 -16 -25 -23 -33 -10 -11 -10
-21 -1 -39 17 -38 62 -59 139 -65 39 -3 73 -10 76 -14 3 -5 16 -9 28 -9 33 0
76 -37 76 -65 0 -16 -12 -33 -34 -50 -28 -22 -51 -28 -133 -36 -109 -11 -133
-24 -133 -72 0 -23 11 -41 44 -72 42 -41 46 -43 130 -50 47 -4 88 -11 92 -16
7 -13 551 -12 559 1 4 6 59 10 133 10 70 0 233 5 362 11 l235 12 35 33 35 33
335 2 c503 3 816 17 845 39 6 5 42 12 80 16 119 13 40 22 -202 23 -136 1 -224
5 -228 11 -3 6 -27 10 -53 10 -26 0 -54 5 -62 10 -10 6 189 10 572 10 380 0
589 4 593 10 4 6 210 10 586 10 407 0 587 3 601 11 12 6 36 27 55 45 l34 34
219 0 c135 0 221 -4 225 -10 3 -6 14 -10 24 -10 18 0 101 -59 101 -71 0 -4 -8
-5 -19 -2 -10 3 -22 0 -25 -6 -4 -6 -29 -11 -55 -11 -59 0 -108 -20 -156 -61
-28 -25 -35 -38 -35 -68 0 -48 21 -67 85 -76 28 -4 55 -10 60 -15 39 -31 583
-41 978 -18 185 11 207 14 207 29 0 10 5 21 10 24 6 4 8 10 5 15 -3 5 -1 11 5
15 5 3 10 12 10 20 0 7 14 27 30 43 30 30 40 75 20 87 -20 12 -9 22 43 34 28
7 66 19 82 26 17 7 41 17 54 22 23 9 19 12 -54 48 -72 36 -76 40 -54 48 13 5
31 13 40 17 9 5 57 8 107 9 51 0 94 0 97 1 3 0 -13 16 -35 36 -22 20 -38 39
-36 41 3 3 49 6 103 7 l98 1 3 29 c2 16 -1 33 -7 39 -16 16 18 36 61 37 20 0
40 -5 43 -10 11 -18 41 -11 65 15 19 20 21 27 10 40 -10 12 -10 15 3 15 9 0
21 9 27 20 6 11 16 20 23 20 7 0 37 23 67 50 l55 49 -146 1 c-115 0 -149 3
-159 14 -9 12 -5 19 24 38 38 24 42 41 10 46 -10 2 -28 7 -39 12 -11 5 -108
10 -216 12 -194 3 -195 3 -226 29 l-31 26 37 37 c41 40 61 35 61 -14 l0 -27
143 -6 c78 -4 206 -7 284 -7 84 0 144 -4 148 -10 3 -5 23 -10 43 -10 20 0 44
-5 52 -10 11 -7 7 -10 -17 -10 -45 0 -112 -37 -113 -62 0 -5 47 -8 103 -8 122
0 137 9 137 82 0 87 -52 106 -290 107 -75 1 -104 5 -135 21 l-39 20 207 0
c191 0 207 1 207 18 0 10 -15 26 -35 36 -30 16 -56 19 -161 18 -76 0 -131 -5
-137 -11 -14 -14 -310 -15 -335 -2 -9 5 -32 15 -49 21 -37 14 -95 70 -119 115
-9 17 -23 41 -30 55 -16 28 -18 97 -5 132 5 13 9 27 9 31 1 4 10 19 22 34 11
14 20 30 20 35 0 4 20 34 45 66 25 31 45 62 45 68 0 6 7 17 15 24 24 20 18 63
-15 95 -46 46 -66 62 -88 69 -45 15 -52 36 -62 196 -6 84 -12 156 -14 159 -10
16 23 224 38 240 9 10 16 21 16 26 0 4 25 35 56 67 55 57 56 61 51 104 -3 27
-13 55 -26 68 -11 12 -21 27 -21 32 0 14 -63 74 -78 74 -7 0 -12 5 -12 11 0 5
-13 27 -29 47 l-29 37 -7 1015 c-4 558 -10 1020 -14 1025 -3 6 -13 701 -21
1545 -13 1364 -13 1617 0 2272 8 405 18 740 23 744 4 4 7 114 7 245 l0 238 60
57 c52 49 60 62 60 94 0 20 4 40 9 46 4 5 14 45 20 89 9 60 25 106 64 185 28
58 51 110 52 115 0 6 16 42 36 81 20 39 40 86 44 105 4 19 11 39 15 44 13 18
21 113 14 180 l-7 65 -198 0 c-109 0 -200 4 -203 9 -3 5 -187 12 -409 16
l-403 7 -14 32 c-25 59 -581 606 -615 606 -4 0 -38 23 -75 50 -37 28 -70 50
-74 50 -4 0 -31 18 -61 40 -30 22 -57 40 -61 40 -3 0 -37 23 -75 50 -38 28
-71 50 -74 50 -3 0 -36 23 -74 50 -38 28 -72 50 -75 50 -3 0 -28 16 -55 35
-26 19 -51 35 -55 35 -3 0 -34 19 -67 42 -34 23 -75 49 -93 58 -17 10 -56 31
-86 47 -30 17 -89 48 -131 70 -42 22 -101 57 -131 77 -30 20 -59 36 -63 36 -5
0 -16 6 -24 14 -9 7 -41 27 -72 44 -44 25 -63 30 -95 25 -49 -6 -176 12 -218
32 -55 25 -173 39 -235 28z"/>
<path d="M3556 10462 c-15 -1589 -16 -1823 -8 -2057 l9 -250 1 227 c1 146 6
229 13 233 6 4 9 50 8 121 -1 63 1 118 5 121 3 4 6 28 6 55 0 50 20 138 31
138 3 0 10 -82 13 -182 7 -183 11 -218 25 -218 3 0 5 32 3 71 -3 44 0 75 7 82
15 15 16 643 0 653 -6 3 -8 16 -5 27 3 12 1 26 -3 31 -5 6 -14 29 -21 51 -7
22 -16 45 -21 50 -4 6 -14 30 -23 55 -14 39 -16 134 -16 727 0 386 -4 684 -9
687 -5 3 -11 -261 -15 -622z"/>
<path d="M4601 9849 c0 -526 -4 -958 -7 -962 -3 -3 -7 -36 -8 -74 -14 -520
-40 -1162 -46 -1178 -14 -32 -21 -1192 -9 -1440 5 -121 13 -296 17 -390 5
-125 9 33 16 603 5 440 12 775 18 778 5 3 8 170 8 391 -1 212 1 388 4 391 3 3
6 178 6 388 0 369 1 384 19 394 11 5 22 10 25 10 4 0 6 -465 5 -1032 -2 -980
4 -1294 22 -1283 4 3 5 117 2 255 -5 186 -3 253 6 264 18 22 21 1717 3 1739
-9 10 -13 38 -11 80 3 72 -3 87 -34 87 l-22 0 2 807 c2 445 -1 880 -6 968 -5
110 -8 -136 -10 -796z"/>
<path d="M1950 9628 c0 -692 3 -1019 10 -1023 7 -4 11 -70 12 -173 0 -92 4
-243 7 -337 4 -93 8 249 9 760 2 907 -12 1760 -29 1780 -5 5 -9 -434 -9 -1007z"/>
<path d="M1806 10259 c-6 -204 0 -608 11 -639 2 -8 4 -77 3 -153 -1 -91 3
-144 10 -153 9 -9 14 -188 20 -611 7 -532 8 -488 5 397 -3 929 -15 1370 -35
1370 -4 0 -10 -95 -14 -211z"/>
<path d="M5410 10457 c16 -13 31 -38 62 -97 21 -40 21 -36 4 45 -12 58 -13 60
-47 63 -29 2 -32 0 -19 -11z"/>
<path d="M4046 10192 c-5 -117 -12 -215 -17 -218 -13 -7 -11 -221 1 -229 6 -4
10 -72 10 -173 0 -191 21 -682 29 -682 8 0 2 829 -7 1215 l-8 300 -8 -213z"/>
<path d="M5494 10298 c4 -13 8 -27 10 -33 11 -35 19 -44 34 -36 10 5 31 15 47
22 l30 14 -37 3 c-25 2 -44 11 -57 28 -24 30 -35 31 -27 2z"/>
<path d="M5766 10279 c-32 -5 -61 -11 -63 -13 -13 -13 71 -40 135 -44 56 -4
82 -1 112 13 22 10 40 21 40 25 0 9 -104 30 -139 29 -14 -1 -53 -5 -85 -10z"/>
<path d="M1701 10133 c0 -28 -5 -54 -9 -57 -5 -3 -13 -63 -18 -133 -13 -193
-6 -353 15 -353 23 0 40 426 21 545 l-7 50 -2 -52z"/>
<path d="M1525 9847 c-4 -45 -10 -86 -13 -92 -3 -5 -5 -26 -3 -47 3 -46 -11
-49 -52 -10 l-29 27 7 -225 c4 -124 9 -228 12 -232 8 -14 23 -8 23 8 0 15 26
43 41 44 3 0 9 -39 13 -87 6 -69 12 -96 32 -125 13 -21 28 -38 32 -38 14 0 6
49 -11 68 -9 10 -17 26 -17 35 0 10 -6 26 -12 37 -10 16 -10 24 0 40 18 29 16
220 -2 245 -13 19 -15 17 -21 -18 -4 -20 -11 -40 -16 -42 -4 -3 -5 -13 -2 -22
8 -20 -18 -13 -27 8 -4 8 -12 24 -18 36 -21 41 -14 85 27 163 5 8 16 16 25 18
11 3 16 -4 16 -23 0 -34 17 -24 39 24 9 20 25 49 35 64 16 24 18 40 13 114 -4
47 -10 89 -14 93 -4 4 -22 10 -39 13 l-32 6 -7 -82z"/>
<path d="M3022 9604 c4 -3 0 -21 -8 -39 -16 -40 -18 -105 -4 -157 21 -74 30
-51 30 76 0 89 -3 126 -12 126 -6 0 -9 -3 -6 -6z"/>
<path d="M939 9558 c-3 -28 3 -64 12 -72 5 -6 9 -58 9 -116 0 -101 -1 -107
-28 -140 -48 -59 -65 -255 -27 -315 7 -11 18 -47 25 -80 8 -33 17 -64 21 -70
19 -27 41 -172 36 -239 -5 -69 -27 -138 -47 -151 -52 -32 -80 -275 -41 -356
11 -22 25 -66 31 -97 6 -31 17 -70 25 -87 24 -54 38 -153 33 -242 -3 -76 -9
-96 -37 -148 -18 -33 -48 -76 -67 -95 -34 -36 -41 -58 -25 -76 4 -5 14 -31 21
-59 7 -27 18 -57 25 -65 7 -8 27 -44 45 -80 29 -56 34 -78 38 -155 l4 -90 -45
-50 c-36 -40 -46 -60 -53 -105 -9 -55 3 -191 19 -206 4 -4 7 -17 7 -28 0 -25
26 -69 64 -110 36 -38 42 -28 17 27 -12 25 -21 49 -21 53 0 4 -8 26 -19 48
-10 23 -26 60 -36 84 l-18 43 52 53 c59 60 70 92 71 202 0 73 -16 182 -30 199
-4 6 -13 37 -20 69 -7 32 -29 91 -50 131 l-38 73 30 28 c16 16 37 43 45 59 9
17 22 35 29 40 41 32 45 335 5 413 -5 9 -14 46 -21 82 -6 36 -15 69 -18 75 -4
5 -7 12 -8 15 0 3 -4 12 -7 20 -4 8 -13 46 -21 85 l-15 70 53 55 c38 40 56 69
66 105 7 28 12 55 11 62 -1 6 3 14 9 18 13 8 13 142 0 150 -6 4 -10 14 -9 23
3 19 -29 131 -41 147 -4 6 -15 35 -25 65 -10 30 -21 60 -26 65 -4 6 -14 30
-22 54 -20 55 -9 100 57 243 34 72 50 165 41 247 -5 51 -12 72 -36 103 -31 39
-48 48 -50 26z"/>
<path d="M3746 8333 c3 -670 8 -1220 10 -1222 2 -2 7 -1 10 2 10 10 10 2050 1
2065 -5 7 -8 94 -7 192 0 127 -3 180 -10 180 -9 0 -10 -324 -4 -1217z"/>
<path d="M5080 8385 c0 -650 4 -1052 10 -1063 5 -9 13 -183 17 -387 6 -293 9
-332 11 -185 1 102 4 191 7 199 7 18 7 1543 0 1549 -3 3 -5 60 -5 126 0 208
-23 806 -32 806 -4 0 -8 -470 -8 -1045z"/>
<path d="M1450 9120 c0 -73 9 -97 25 -69 10 15 -5 149 -16 149 -5 0 -9 -36 -9
-80z"/>
<path d="M1529 8830 c-6 -129 -4 -148 29 -184 37 -44 27 -155 -21 -229 -38
-58 -44 -39 -54 161 l-10 187 -1 -260 c0 -186 2 -251 10 -230 5 17 12 37 15
45 4 8 5 21 4 29 -1 7 4 11 11 9 24 -7 68 -110 74 -175 4 -35 11 -63 16 -63
15 0 0 547 -15 590 -3 8 -11 49 -17 90 -7 41 -16 80 -20 85 -5 6 -10 21 -12
35 -2 14 -6 -27 -9 -90z"/>
<path d="M4070 7447 c0 -692 3 -1066 10 -1073 6 -6 11 -395 12 -1104 l3 -1095
10 1465 c10 1455 10 1465 30 1465 20 0 20 -8 23 -474 1 -300 6 -479 12 -486 7
-8 10 -176 10 -470 -1 -252 2 -460 5 -463 7 -8 6 1616 -2 1851 -3 109 -10 197
-15 197 -4 0 -8 -30 -8 -66 0 -62 -1 -65 -22 -62 -20 3 -24 11 -30 63 -3 33
-7 311 -7 617 -1 550 -6 698 -22 698 -5 0 -9 -478 -9 -1063z"/>
<path d="M3644 7865 c0 -170 2 -242 3 -158 2 83 2 223 0 310 -1 87 -3 19 -3
-152z"/>
<path d="M3545 7685 c0 -220 1 -309 2 -197 2 112 2 292 0 400 -1 108 -2 17 -2
-203z"/>
<path d="M1201 6993 l-1 -462 -61 42 -61 42 -19 -24 c-29 -35 -34 -67 -15 -96
14 -21 24 -25 70 -25 92 0 86 49 88 -636 1 -456 3 -569 10 -474 5 69 14 135
20 148 14 28 16 1641 2 1663 -5 8 -14 75 -20 149 -10 122 -11 91 -13 -327z"/>
<path d="M4340 7043 c0 -124 12 -163 24 -77 11 81 7 159 -9 180 -13 17 -14 6
-15 -103z"/>
<path d="M3985 7057 c-3 -6 -4 -189 -3 -406 2 -305 6 -395 16 -399 9 -3 12 83
12 407 0 276 -3 411 -10 411 -6 0 -13 -6 -15 -13z"/>
<path d="M2460 6715 c0 -63 4 -105 10 -105 6 0 10 42 10 105 0 63 -4 105 -10
105 -6 0 -10 -42 -10 -105z"/>
<path d="M4421 6698 c-8 -46 -8 -126 1 -301 13 -258 6 -348 -32 -424 l-19 -38
-1 233 c0 144 -4 232 -10 232 -6 0 -10 -227 -10 -635 0 -416 3 -635 10 -635 6
0 10 139 10 395 0 374 1 395 18 395 41 0 42 -7 42 -439 0 -280 3 -412 10 -405
16 16 27 1248 11 1278 -10 17 -12 74 -9 215 1 105 0 191 -3 191 -4 0 -12 -28
-18 -62z"/>
<path d="M5115 5930 c0 -283 1 -399 2 -257 2 141 2 373 0 515 -1 141 -2 25 -2
-258z"/>
<path d="M874 6242 c-7 -5 -7 -40 0 -114 9 -102 10 -108 31 -108 43 0 83 103
51 129 -9 8 -16 21 -16 31 0 18 -36 70 -48 70 -4 0 -12 -4 -18 -8z"/>
<path d="M4974 6193 c-17 -130 -7 -779 12 -760 7 6 7 808 0 814 -2 3 -8 -22
-12 -54z"/>
<path d="M1061 6068 c-1 -26 -6 -50 -12 -53 -6 -4 -8 -13 -5 -20 6 -18 -44
-96 -103 -159 -44 -46 -50 -58 -61 -122 -13 -79 -1 -173 29 -229 17 -33 81
-105 92 -105 4 0 -1 17 -12 38 -10 20 -30 64 -45 97 -14 33 -31 71 -37 84 -27
55 -16 91 57 181 90 112 116 165 115 232 -1 29 -5 64 -9 78 -7 20 -8 16 -9
-22z"/>
<path d="M1119 5713 c-23 -32 -47 -64 -52 -71 -13 -17 36 -67 76 -76 l27 -6 0
105 c0 58 -2 105 -5 105 -2 0 -23 -26 -46 -57z"/>
<path d="M3880 5495 c0 -104 2 -125 15 -125 13 0 15 21 15 125 0 104 -2 125
-15 125 -13 0 -15 -21 -15 -125z"/>
<path d="M4530 4856 c0 -272 4 -497 9 -500 5 -3 12 -91 16 -196 14 -379 16
-169 4 504 -7 377 -17 686 -21 686 -4 0 -8 -222 -8 -494z"/>
<path d="M1049 5285 c0 -5 -1 -35 -1 -65 0 -30 -3 -59 -7 -65 -4 -5 -13 -28
-20 -50 -8 -22 -22 -52 -32 -67 -11 -14 -19 -31 -19 -38 0 -6 -8 -28 -19 -48
-36 -71 -61 -127 -63 -142 -3 -22 13 -99 21 -105 4 -2 13 25 20 61 8 44 22 80
45 112 18 26 36 61 40 77 4 17 19 42 33 57 23 24 26 37 30 120 4 70 1 102 -11
128 -8 19 -16 31 -17 25z"/>
<path d="M4430 4781 c0 -154 4 -241 10 -241 6 0 10 85 10 234 0 146 -4 237
-10 241 -7 4 -10 -77 -10 -234z"/>
<path d="M1010 4416 c0 -25 -4 -47 -9 -50 -4 -3 -11 -49 -15 -103 -3 -54 -9
-123 -12 -153 l-5 -55 35 69 c20 38 39 72 44 75 40 28 41 176 1 230 -12 17
-26 31 -31 31 -4 0 -8 -20 -8 -44z"/>
<path d="M945 4020 c-3 -5 1 -10 9 -10 9 0 16 5 16 10 0 6 -4 10 -9 10 -6 0
-13 -4 -16 -10z"/>
<path d="M946 3958 c-9 -34 -7 -78 3 -78 4 0 11 -35 14 -77 5 -82 40 -177 80
-221 l21 -22 -36 -38 c-19 -20 -43 -53 -53 -72 -10 -19 -23 -44 -28 -55 -6
-11 -17 -51 -24 -90 -8 -38 -17 -83 -20 -98 -3 -16 -1 -38 5 -50 6 -12 13 -33
15 -47 2 -14 5 8 6 49 1 71 2 75 44 124 23 28 57 64 75 80 l32 29 0 107 c0
114 -15 227 -32 248 -6 7 -7 13 -3 13 4 0 3 6 -2 13 -6 6 -16 35 -23 62 -8 28
-19 59 -26 70 -6 11 -14 32 -18 48 -8 33 -21 35 -30 5z"/>
<path d="M940 2987 c0 -13 3 -27 7 -31 4 -3 8 -17 10 -29 6 -46 35 -163 44
-179 5 -10 9 -73 9 -140 l0 -123 20 25 c11 15 17 34 14 46 -3 12 -1 25 5 28
14 9 14 103 0 112 -6 3 -8 17 -5 29 3 13 2 26 -3 29 -4 3 -11 26 -14 51 -4 25
-18 65 -31 88 -14 23 -28 59 -31 80 -8 41 -25 51 -25 14z"/>
<path d="M7465 1381 c-3 -6 -14 -11 -23 -11 -10 0 -33 -13 -52 -29 l-35 -30
37 13 c21 7 41 15 44 19 11 10 82 8 102 -2 23 -13 104 -31 137 -31 23 0 26 4
23 28 -3 24 -8 28 -53 35 -95 16 -173 19 -180 8z"/>
</g>
</svg>
