<?xml version="1.0" standalone="no"?>
<!DOCTYPE svg PUBLIC "-//W3C//DTD SVG 20010904//EN"
 "http://www.w3.org/TR/2001/REC-SVG-20010904/DTD/svg10.dtd">
<svg version="1.0" xmlns="http://www.w3.org/2000/svg"
 width="1280.000000pt" height="953.000000pt" viewBox="0 0 1280.000000 953.000000"
 preserveAspectRatio="xMidYMid meet">
<metadata>
Created by potrace 1.15, written by Peter Selinger 2001-2017
</metadata>
<g transform="translate(0.000000,953.000000) scale(0.100000,-0.100000)"
fill="#000000" stroke="none">
<path d="M3785 9514 c-5 -1 -98 -5 -205 -8 -107 -3 -208 -8 -225 -10 -16 -2
-55 -7 -85 -10 -30 -4 -77 -11 -105 -16 -27 -5 -88 -14 -135 -20 -198 -26
-358 -63 -606 -141 -142 -44 -279 -86 -304 -93 -80 -23 -471 -195 -490 -216
-3 -3 -54 -36 -115 -72 -201 -120 -222 -134 -311 -199 -49 -36 -102 -71 -119
-79 -34 -17 -309 -292 -398 -396 -82 -99 -159 -209 -202 -289 -20 -38 -42 -76
-48 -83 -6 -7 -26 -41 -44 -75 -100 -184 -136 -295 -208 -632 -23 -106 -36
-209 -50 -395 -3 -41 -10 -111 -14 -155 -10 -104 -4 -539 9 -635 5 -41 15
-115 20 -165 6 -49 15 -117 19 -150 10 -72 78 -348 96 -390 18 -42 51 -155 95
-325 20 -80 54 -191 74 -247 20 -56 46 -137 57 -180 26 -99 132 -398 169 -478
5 -11 23 -56 39 -100 16 -44 35 -93 42 -110 7 -16 13 -32 14 -35 2 -6 3 -8 76
-185 31 -77 74 -192 94 -255 20 -63 45 -137 55 -165 11 -27 24 -70 31 -95 7
-25 15 -49 19 -55 3 -5 12 -28 18 -50 6 -22 25 -85 41 -140 17 -55 40 -143 51
-195 12 -52 34 -149 50 -215 64 -273 56 -267 -133 84 -83 155 -217 333 -324
430 -74 68 -311 231 -377 260 -100 45 -153 56 -242 52 -28 -1 -39 -29 -19 -51
8 -9 15 -21 15 -26 1 -17 159 -122 315 -209 30 -16 76 -46 101 -65 26 -19 66
-48 88 -64 85 -61 206 -169 262 -234 32 -37 61 -69 65 -72 21 -18 126 -191
169 -280 4 -8 23 -45 41 -82 18 -37 30 -70 26 -74 -4 -4 -9 -5 -11 -3 -1 2
-33 45 -70 94 -113 151 -169 225 -208 274 -56 68 -174 166 -253 208 l-70 38
-130 -1 c-186 -1 -217 -25 -129 -103 48 -42 221 -137 287 -157 57 -18 232
-141 313 -219 76 -75 279 -327 308 -384 10 -18 24 -52 32 -74 18 -51 3 -64
-42 -36 -41 25 -237 89 -273 89 -16 0 -47 6 -69 14 -65 23 -392 11 -408 -15
-3 -5 -14 -9 -24 -9 -40 0 -168 -61 -215 -102 -156 -136 -192 -217 -196 -438
-3 -166 26 -237 149 -370 18 -19 32 -38 32 -42 0 -5 6 -8 13 -8 11 0 40 -22
110 -82 17 -16 46 -33 64 -39 18 -6 33 -14 33 -17 0 -4 12 -8 26 -8 14 -1 33
-8 42 -16 22 -18 89 -41 101 -34 5 3 14 -1 21 -9 6 -7 18 -11 25 -9 7 3 23 0
35 -6 13 -7 32 -13 44 -15 11 -2 44 -8 71 -13 28 -6 86 -8 130 -6 68 5 93 12
175 50 120 57 147 71 189 103 87 65 206 250 231 358 6 28 20 59 31 68 17 17
22 16 81 -15 81 -41 192 -83 293 -110 44 -12 112 -33 150 -47 39 -14 93 -29
120 -34 28 -6 68 -18 90 -28 22 -10 74 -29 115 -41 41 -13 95 -31 120 -40 25
-10 61 -21 80 -26 44 -10 42 -9 62 -18 9 -4 22 -9 30 -10 70 -14 89 -20 94
-27 3 -5 9 -7 14 -4 4 3 21 -2 36 -10 16 -8 36 -15 44 -15 14 0 147 -35 180
-48 8 -3 25 -7 36 -8 12 -1 55 -14 95 -27 41 -14 108 -35 149 -47 41 -12 91
-27 110 -33 34 -11 59 -16 90 -19 8 0 20 -4 25 -8 6 -5 39 -13 75 -20 36 -6
110 -23 165 -37 95 -24 116 -28 168 -37 12 -2 42 -9 66 -15 24 -7 60 -14 80
-16 117 -13 277 -30 380 -40 35 -3 67 -8 70 -10 3 -1 42 -6 86 -9 102 -9 253
-25 285 -31 14 -2 43 -7 65 -10 22 -3 78 -12 125 -20 47 -8 102 -17 122 -19
20 -3 54 -9 75 -15 21 -5 64 -12 96 -15 32 -3 62 -8 66 -10 4 -3 21 -7 37 -10
16 -3 54 -10 84 -16 30 -6 71 -13 91 -15 20 -3 53 -12 73 -20 40 -17 185 -46
301 -60 17 -2 31 -4 33 -5 4 -4 14 -6 72 -14 30 -5 64 -10 75 -13 11 -2 33 -6
49 -8 16 -3 43 -9 61 -15 17 -6 47 -13 66 -15 19 -3 45 -7 59 -10 14 -3 48 -8
75 -11 28 -3 66 -8 85 -10 54 -8 196 -19 365 -28 306 -17 373 -20 400 -19 112
3 283 13 300 17 11 2 65 7 120 10 55 4 125 11 156 17 31 5 89 12 129 14 39 3
75 7 78 9 4 2 39 7 77 11 95 8 147 15 165 20 9 3 40 7 70 11 30 3 71 7 90 10
19 2 78 9 130 14 52 5 112 11 133 14 53 6 198 36 222 46 11 4 43 14 70 21 28
6 55 15 60 19 6 4 53 21 105 38 88 29 196 68 295 105 22 9 73 31 112 51 40 20
77 36 83 36 5 0 10 5 10 10 0 6 7 10 16 10 23 0 164 148 204 214 43 71 108
146 126 146 8 0 14 4 14 8 0 9 48 27 95 36 43 9 108 -32 238 -149 94 -85 119
-101 200 -134 51 -21 96 -38 100 -38 4 -1 20 -6 35 -11 92 -36 289 -92 357
-102 44 -7 139 -13 210 -13 l130 -1 125 48 c145 55 222 98 342 195 48 38 103
78 121 90 57 35 219 238 309 386 65 109 80 153 153 457 49 206 64 374 59 653
-5 261 -17 412 -44 585 -61 382 -120 634 -169 730 -5 8 -27 76 -50 150 -23 74
-52 158 -63 185 -62 151 -82 196 -108 250 -50 106 -59 131 -85 226 -28 106
-45 296 -35 379 8 67 36 130 107 238 60 92 84 150 81 194 -3 33 -30 58 -64 58
-36 0 -109 -57 -143 -111 -47 -76 -67 -155 -75 -299 -7 -105 -22 -111 -54 -20
-18 48 -25 95 -29 181 -13 275 66 518 275 838 132 201 133 339 5 462 -57 56
-227 132 -341 154 -92 18 -192 65 -261 123 -58 49 -76 81 -87 158 -21 132 9
224 101 318 54 54 187 153 267 198 107 61 406 297 510 404 261 267 408 562
388 779 -18 197 -98 292 -291 344 -91 26 -404 39 -473 20 -22 -6 -52 -13 -66
-16 -52 -9 -227 -55 -280 -73 -111 -38 -200 -43 -200 -10 0 4 16 23 36 42 35
32 84 101 131 185 15 28 28 77 37 143 22 153 9 216 -57 284 -77 77 -109 91
-212 90 -100 -1 -153 -17 -229 -71 -82 -58 -125 -188 -128 -391 -2 -109 8
-160 52 -277 35 -94 38 -86 -47 -156 -86 -71 -247 -171 -363 -226 -41 -19 -79
-36 -85 -38 -5 -1 -23 -8 -40 -14 -175 -73 -325 -95 -710 -104 -238 -6 -429
11 -715 63 -58 11 -121 21 -140 24 -310 37 -662 117 -810 183 -30 14 -120 47
-200 73 -80 27 -183 64 -230 83 -47 18 -110 42 -140 51 -30 10 -118 42 -195
71 -77 30 -180 67 -230 83 -49 16 -186 64 -304 106 -118 42 -254 85 -303 96
-48 10 -132 32 -185 49 -131 39 -440 114 -583 140 -63 12 -164 35 -225 51
-146 38 -327 78 -395 86 -30 3 -64 8 -75 10 -11 3 -36 7 -55 10 -19 3 -41 7
-48 9 -7 3 -74 14 -150 25 -75 11 -164 27 -196 35 -54 14 -136 24 -321 40 -38
3 -95 8 -125 11 -30 2 -75 7 -100 10 -48 7 -318 13 -335 8z m7632 -247 c52
-49 62 -148 27 -254 -18 -53 -82 -152 -128 -198 -46 -46 -61 -37 -119 70 -30
57 -32 65 -31 165 0 92 4 112 28 161 33 70 45 80 99 86 23 3 44 7 46 9 10 9
48 -10 78 -39z m-10462 -7669 c49 -13 113 -47 145 -78 9 -8 38 -33 63 -54 61
-51 65 -92 12 -153 -19 -23 -35 -46 -35 -52 0 -6 -4 -11 -10 -11 -5 0 -16 -13
-24 -29 -26 -50 -101 -116 -178 -156 -71 -38 -76 -39 -178 -39 -102 -1 -107 0
-181 36 -80 40 -127 87 -156 156 -22 53 -13 184 16 223 12 15 21 32 21 36 0 5
18 27 41 50 40 42 114 73 204 86 51 8 208 -2 260 -15z"/>
</g>
</svg>
