<?xml version="1.0" standalone="no"?>
<!DOCTYPE svg PUBLIC "-//W3C//DTD SVG 20010904//EN"
 "http://www.w3.org/TR/2001/REC-SVG-20010904/DTD/svg10.dtd">
<svg version="1.0" xmlns="http://www.w3.org/2000/svg"
 width="1280.000000pt" height="1163.000000pt" viewBox="0 0 1280.000000 1163.000000"
 preserveAspectRatio="xMidYMid meet">
<metadata>
Created by potrace 1.15, written by Peter Selinger 2001-2017
</metadata>
<g transform="translate(0.000000,1163.000000) scale(0.100000,-0.100000)"
fill="#000000" stroke="none">
<path d="M3290 10023 c-162 -2 -250 -7 -240 -13 12 -7 7 -12 -22 -24 -52 -22
-98 -92 -105 -160 -4 -40 0 -70 17 -122 26 -76 43 -107 155 -279 151 -232 163
-250 182 -285 21 -40 112 -194 189 -323 29 -48 65 -121 79 -163 29 -83 75
-329 75 -399 0 -68 -24 -60 -125 43 -92 93 -128 144 -371 537 -33 55 -106 165
-266 408 -104 158 -176 244 -265 317 -335 277 -641 367 -1068 316 -150 -18
-255 -49 -420 -124 -89 -40 -117 -47 -162 -43 -6 1 -48 37 -93 81 -45 45 -96
90 -113 100 -92 57 -257 -18 -257 -117 0 -32 66 -163 89 -178 5 -3 24 -31 42
-63 31 -53 33 -64 37 -170 5 -136 0 -159 -123 -532 -117 -357 -135 -430 -155
-628 -31 -316 14 -637 125 -897 61 -141 72 -163 145 -279 173 -274 433 -542
735 -756 50 -35 94 -67 99 -72 6 -5 -5 -37 -28 -82 -47 -91 -52 -167 -16 -239
37 -74 99 -91 258 -71 59 8 114 17 122 20 8 3 64 0 125 -6 101 -10 173 -26
310 -68 65 -20 269 -117 309 -147 17 -12 50 -34 73 -46 127 -72 407 -332 492
-459 21 -30 59 -85 84 -122 62 -90 140 -247 221 -447 89 -217 102 -245 209
-459 107 -213 128 -250 183 -329 22 -32 56 -80 75 -108 103 -151 411 -443 618
-586 251 -174 404 -267 546 -330 44 -20 99 -46 123 -58 l43 -22 -1 -92 c-2
-133 -11 -160 -67 -199 -144 -99 -282 -313 -369 -573 -34 -102 -36 -118 -37
-240 -1 -71 0 -146 2 -165 5 -53 49 -137 90 -171 39 -33 206 -119 230 -119 8
0 42 -8 75 -19 77 -24 220 -56 361 -80 61 -11 162 -29 225 -41 63 -11 138 -22
165 -25 28 -3 106 -13 175 -24 332 -52 474 -65 950 -92 295 -16 737 -11 925
11 94 11 190 20 215 20 42 0 99 7 455 61 72 11 142 19 157 19 25 0 86 10 423
70 66 12 152 30 192 41 39 10 79 19 88 19 18 0 123 27 238 61 38 11 80 23 94
25 45 8 139 62 159 91 84 125 91 351 20 592 -73 245 -133 352 -280 494 l-101
98 -3 102 -4 103 34 25 c18 14 94 62 168 106 74 44 169 104 210 132 41 28 111
76 155 106 134 90 178 122 225 163 25 21 83 67 130 102 47 35 157 136 246 225
251 251 388 454 490 725 65 172 148 446 158 519 2 14 14 87 26 161 20 121 22
160 17 370 -3 153 -10 265 -20 320 -9 47 -19 105 -22 130 -13 109 -57 327
-106 530 -9 41 -27 116 -39 165 -12 50 -23 102 -25 116 -2 15 -11 51 -19 80
-8 30 -18 68 -20 84 -3 17 -14 73 -25 125 -44 211 -60 313 -80 490 -26 228
-26 285 -1 486 11 87 20 179 20 204 0 80 59 358 102 484 27 77 101 231 157
326 24 41 69 118 99 170 30 52 65 109 78 126 13 17 24 34 24 38 0 4 13 26 29
49 16 23 63 94 105 157 65 98 104 156 181 265 8 11 19 62 26 112 9 75 9 102
-2 140 -15 55 -67 116 -121 144 -21 11 -37 23 -34 27 2 4 -795 8 -1772 9 -978
1 -2828 3 -4112 5 -1284 3 -2450 3 -2590 1z m-1413 -847 c171 -49 324 -170
383 -301 17 -39 35 -77 39 -85 32 -60 71 -271 71 -379 0 -114 -38 -271 -99
-406 -88 -197 -111 -327 -81 -444 27 -102 134 -188 202 -162 12 5 38 30 57 56
75 105 174 168 312 201 29 7 286 7 314 0 121 -30 284 -96 315 -128 9 -8 34
-27 57 -41 52 -33 137 -134 179 -213 69 -129 93 -313 58 -448 -7 -28 -15 -62
-17 -76 -3 -14 -14 -61 -26 -105 -11 -44 -39 -159 -62 -255 -23 -96 -50 -209
-61 -250 -11 -41 -21 -84 -23 -95 -4 -40 -38 -180 -45 -188 -4 -5 -50 29 -101
75 -52 46 -122 106 -157 134 -35 27 -81 63 -103 80 -21 18 -120 75 -219 129
-99 53 -182 100 -185 105 -3 5 16 35 43 67 78 95 94 127 99 201 7 107 -35 177
-116 192 -34 6 -52 1 -138 -41 -205 -98 -337 -123 -504 -94 -200 35 -365 119
-594 304 -128 103 -146 121 -308 316 -17 20 -97 147 -97 154 0 3 -11 27 -24
52 -33 62 -63 158 -77 254 -16 101 -16 352 0 470 6 50 13 106 16 125 4 34 21
116 45 210 20 78 79 204 138 292 53 81 178 203 247 242 140 80 303 99 462 52z
m5848 -1686 c71 -6 150 -16 175 -22 25 -6 77 -16 115 -23 107 -19 271 -74 393
-131 41 -19 76 -34 78 -34 2 0 46 -23 96 -52 262 -147 461 -352 574 -588 96
-201 118 -471 58 -690 -53 -193 -197 -407 -381 -565 -111 -94 -198 -151 -365
-235 -74 -36 -109 -50 -273 -107 -73 -26 -79 -27 -158 -43 -27 -5 -52 -12 -57
-15 -4 -2 -29 -7 -56 -10 -27 -4 -76 -10 -109 -16 -202 -32 -487 -32 -661 0
-28 5 -75 12 -104 15 -29 3 -69 10 -89 16 -47 12 -93 23 -106 24 -5 1 -39 11
-75 23 -271 90 -489 205 -650 343 -199 169 -337 380 -394 604 -29 109 -35 280
-15 378 32 152 106 318 207 459 74 104 233 258 332 323 41 26 88 57 103 68 38
26 190 100 262 127 33 13 72 29 87 37 14 8 33 14 41 14 9 0 51 11 94 24 124
39 277 66 428 77 77 5 145 12 150 14 11 5 108 0 300 -15z"/>
</g>
</svg>
