<?xml version="1.0" standalone="no"?>
<!DOCTYPE svg PUBLIC "-//W3C//DTD SVG 20010904//EN"
 "http://www.w3.org/TR/2001/REC-SVG-20010904/DTD/svg10.dtd">
<svg version="1.0" xmlns="http://www.w3.org/2000/svg"
 width="1280.000000pt" height="1280.000000pt" viewBox="0 0 1280.000000 1280.000000"
 preserveAspectRatio="xMidYMid meet">
<metadata>
Created by potrace 1.15, written by Peter Selinger 2001-2017
</metadata>
<g transform="translate(0.000000,1280.000000) scale(0.100000,-0.100000)"
fill="#000000" stroke="none">
<path d="M0 6400 l0 -6400 6370 0 c6060 0 6370 1 6371 18 4 49 5 103 7 270 2
171 3 182 21 182 10 0 21 7 25 15 3 9 6 2783 6 6165 l0 6150 -6400 0 -6400 0
0 -6400z m7228 3591 c7 -4 15 -23 17 -42 5 -54 12 -62 77 -93 93 -43 163 -57
196 -40 15 8 37 14 50 14 26 0 132 57 139 75 12 34 142 18 202 -25 16 -11 34
-20 40 -20 6 0 11 -5 11 -11 0 -7 6 -17 14 -23 8 -6 16 -29 18 -51 2 -35 0
-39 -17 -36 -28 6 -152 6 -199 -1 -36 -5 -39 -8 -56 -56 -10 -29 -16 -52 -14
-52 2 0 -2 -13 -11 -30 -9 -17 -13 -44 -10 -64 2 -22 -1 -41 -9 -49 -26 -26
-57 -107 -48 -124 7 -11 11 -12 17 -3 5 8 16 3 36 -20 16 -17 29 -35 29 -41 0
-14 16 -11 30 6 7 8 22 15 33 15 27 0 87 22 87 32 0 4 6 8 13 8 6 0 31 21 54
47 23 26 46 44 49 40 4 -4 2 -13 -4 -19 -15 -15 -16 -94 -1 -103 5 -4 9 -17 8
-28 -3 -41 1 -52 25 -77 59 -62 87 -81 116 -82 16 -1 30 -5 30 -10 0 -14 35
-9 57 9 19 15 19 19 7 49 -13 30 -11 41 10 111 36 118 37 125 19 145 -22 24
-12 31 23 18 41 -16 130 -3 175 26 21 13 45 24 54 24 8 0 15 5 15 10 0 6 15
26 34 45 19 19 36 42 38 52 2 13 14 19 38 21 44 3 68 -11 53 -30 -6 -7 -20
-48 -31 -92 -16 -62 -18 -85 -9 -110 17 -49 48 -85 94 -108 38 -19 50 -20 91
-12 44 9 50 8 65 -12 9 -13 17 -28 17 -34 0 -16 63 -40 107 -40 35 0 98 18
150 43 12 5 27 25 34 44 13 41 23 42 43 1 18 -35 21 -68 6 -68 -5 0 -10 -9
-10 -20 0 -11 5 -20 10 -20 6 0 10 -18 10 -39 0 -51 46 -158 71 -166 11 -4 19
-11 19 -16 0 -5 5 -9 11 -9 11 0 76 -49 134 -101 35 -31 101 -50 134 -37 18 6
22 14 18 33 -5 29 8 109 22 140 15 31 41 143 41 176 0 28 -57 161 -72 167 -12
5 -10 32 2 32 5 0 27 -6 47 -14 74 -26 110 -36 131 -36 26 0 30 -30 8 -52 -22
-23 -28 -70 -11 -102 8 -15 15 -33 15 -38 0 -11 45 -71 80 -108 54 -55 244
-122 281 -99 21 13 56 -12 92 -65 60 -88 71 -164 32 -209 -22 -25 -27 -27 -40
-13 -8 8 -15 19 -15 25 0 6 -4 11 -10 11 -5 0 -24 13 -42 29 -18 15 -43 31
-54 35 -12 4 -29 15 -38 25 -16 18 -19 18 -71 -11 -30 -16 -57 -34 -60 -39 -4
-5 -13 -9 -21 -9 -9 0 -26 -13 -40 -29 -13 -16 -38 -32 -54 -36 -16 -3 -34
-13 -40 -21 -7 -7 -16 -12 -20 -9 -11 7 -43 -26 -64 -66 -33 -63 -10 -98 63
-99 14 0 32 -6 40 -14 24 -20 105 -34 151 -26 46 8 48 3 19 -34 -44 -56 -71
-120 -70 -166 2 -75 7 -100 28 -118 11 -9 23 -27 27 -39 11 -35 86 -27 86 9 0
26 51 73 111 103 52 27 91 69 83 90 -3 7 -1 16 5 20 6 3 11 1 11 -4 0 -20 41
-59 81 -76 21 -10 39 -21 39 -24 0 -7 68 -14 125 -13 69 1 104 7 117 20 17 17
24 15 53 -10 28 -25 33 -58 8 -58 -9 0 -30 -11 -47 -24 -17 -12 -46 -31 -63
-40 -20 -10 -41 -33 -53 -58 -20 -43 -27 -113 -11 -122 4 -3 11 -19 14 -35 5
-23 16 -34 55 -51 49 -22 49 -22 41 -59 -5 -20 -6 -45 -3 -56 9 -31 76 -95 99
-95 12 0 25 -4 30 -9 6 -5 28 -14 50 -20 35 -9 44 -8 67 9 36 27 52 26 44 -2
-4 -13 -8 -32 -9 -42 -2 -19 -15 -29 -49 -40 -10 -3 -18 -13 -18 -22 0 -10
-11 -31 -24 -49 -40 -52 -57 -125 -44 -193 6 -31 13 -64 16 -72 8 -22 12 -40
18 -90 7 -52 36 -97 70 -110 27 -11 54 -4 54 14 0 16 48 60 87 80 45 23 131
86 162 119 27 30 60 130 61 185 0 34 14 43 24 16 11 -29 80 -129 99 -142 28
-21 16 -45 -33 -62 -31 -11 -49 -24 -59 -45 -8 -17 -19 -39 -24 -49 -18 -37
-19 -165 -1 -199 30 -57 34 -67 34 -79 0 -15 87 -108 100 -108 21 0 23 -146 2
-200 -6 -14 -19 -36 -30 -48 -12 -13 -22 -28 -24 -32 -2 -5 -23 -12 -47 -16
-43 -7 -44 -7 -39 20 5 25 -5 75 -33 172 -12 39 -15 42 -58 48 -81 12 -197 23
-258 25 -12 1 -25 6 -28 11 -16 26 -124 -12 -145 -50 -13 -24 0 -54 29 -70 11
-5 22 -23 26 -39 7 -32 55 -88 98 -115 32 -19 27 -36 -9 -36 -14 0 -35 -6 -47
-12 -12 -7 -38 -17 -57 -23 -53 -16 -116 -104 -124 -175 -5 -52 -4 -56 22 -71
25 -14 30 -14 59 2 17 10 44 16 59 14 16 -2 66 -7 110 -11 77 -6 83 -5 93 15
18 32 30 25 24 -14 -4 -22 1 -53 12 -83 20 -51 82 -131 103 -132 6 0 12 -4 12
-10 0 -5 6 -10 14 -10 7 0 25 -9 40 -21 15 -11 33 -18 41 -15 17 6 21 1 29
-39 8 -42 -4 -58 -35 -46 -42 15 -171 16 -204 1 -42 -19 -95 -71 -95 -92 0
-10 -5 -26 -11 -36 -9 -14 -7 -28 10 -63 l21 -44 -38 -33 c-34 -30 -37 -38
-37 -85 0 -61 22 -112 70 -163 27 -28 40 -35 60 -32 39 8 39 -7 -2 -38 -31
-24 -40 -26 -64 -17 -21 8 -31 8 -39 -2 -6 -7 -27 -16 -48 -20 -20 -4 -62 -22
-93 -41 -43 -26 -61 -44 -73 -73 -8 -22 -20 -42 -25 -46 -6 -3 -18 -23 -27
-43 -10 -20 -27 -51 -40 -68 -22 -31 -39 -114 -22 -114 4 0 8 -6 8 -14 0 -19
30 -29 46 -15 9 7 38 9 81 6 38 -4 114 -7 170 -9 l101 -2 59 38 c32 21 68 47
79 58 19 17 22 17 28 3 3 -9 4 -21 1 -25 -6 -9 -16 -89 -19 -145 -1 -27 -4
-30 -31 -28 -16 1 -31 7 -33 13 -7 21 -63 9 -114 -24 -80 -51 -137 -117 -155
-179 -21 -69 -28 -184 -13 -202 15 -18 0 -48 -56 -103 -69 -69 -157 -97 -215
-67 -30 16 -30 24 1 55 23 23 59 82 70 115 7 22 16 45 21 50 9 12 -105 137
-134 148 -9 4 -27 22 -38 41 -11 19 -26 37 -34 40 -8 3 -15 12 -15 20 0 16
-50 42 -101 51 -50 9 -73 -14 -65 -65 4 -23 1 -43 -8 -56 -14 -20 -15 -103 -1
-158 7 -26 6 -28 -16 -21 -13 4 -26 11 -29 15 -3 4 -18 10 -35 13 -16 3 -49
11 -72 18 -35 11 -49 11 -80 -1 -21 -7 -45 -14 -54 -15 -9 0 -35 -17 -59 -38
-38 -33 -42 -39 -36 -70 6 -30 9 -33 43 -34 32 -1 46 -11 111 -78 66 -69 77
-76 103 -71 15 3 31 1 34 -4 3 -6 1 -10 -5 -10 -17 0 -53 -48 -68 -90 -15 -41
-20 -139 -8 -158 4 -7 5 -16 2 -19 -3 -3 1 -15 9 -27 8 -11 15 -28 15 -37 0
-9 7 -19 15 -23 22 -8 18 -29 -10 -60 -26 -28 -45 -34 -45 -14 0 7 -29 40 -64
74 -49 47 -73 63 -104 68 -46 7 -101 -1 -122 -19 -8 -7 -25 -16 -37 -19 -14
-5 -24 -18 -29 -39 -12 -56 -24 -67 -76 -67 -42 0 -50 -4 -86 -45 -28 -32 -42
-58 -46 -89 -4 -23 -9 -55 -12 -70 -4 -21 2 -34 27 -57 39 -36 22 -44 -74 -30
-4 1 -12 13 -17 27 -7 19 -15 24 -29 19 -10 -3 -34 3 -52 14 -19 10 -62 22
-95 26 -51 6 -69 3 -105 -14 -23 -12 -49 -21 -56 -21 -7 0 -22 -5 -33 -10 -11
-5 -28 -14 -39 -19 -10 -5 -34 -13 -54 -16 -43 -8 -85 -50 -89 -90 -2 -25 1
-31 21 -33 12 -2 51 -30 85 -62 178 -169 180 -170 311 -172 53 -1 92 -4 88 -8
-4 -4 -21 -17 -38 -29 -45 -34 -103 -89 -113 -108 -9 -16 -12 -16 -37 1 -14 9
-24 23 -22 29 4 13 -39 50 -62 54 -9 1 -35 4 -58 8 -46 7 -171 -12 -192 -28
-16 -14 -49 -33 -77 -46 -22 -10 -104 -102 -104 -117 -1 -24 -68 -41 -145 -39
-93 4 -111 7 -127 23 -7 7 -17 12 -23 12 -11 0 -49 69 -42 76 2 2 17 5 33 7
40 4 116 28 134 42 18 14 52 29 63 27 6 -2 9 31 10 139 0 20 -4 42 -8 49 -5 8
-8 43 -7 79 1 36 2 76 2 89 0 31 -47 91 -77 98 -21 6 -32 -1 -63 -35 -21 -22
-43 -41 -50 -41 -19 0 -70 -60 -87 -103 -8 -20 -19 -37 -23 -37 -8 0 -26 41
-21 48 1 2 -9 17 -23 33 -15 17 -26 35 -26 40 0 15 -62 69 -80 69 -8 0 -28 7
-44 15 -30 16 -120 12 -142 -6 -19 -16 -24 -50 -8 -56 8 -3 14 -11 14 -18 0
-7 4 -15 10 -17 5 -1 12 -46 15 -98 7 -99 16 -130 40 -130 8 0 15 -6 15 -13 0
-9 -11 -12 -32 -10 -18 2 -44 -3 -58 -11 -14 -8 -34 -19 -45 -24 -27 -13 -105
-91 -105 -106 0 -7 -5 -17 -12 -24 -7 -7 -8 -12 -4 -12 5 0 1 -11 -8 -25 -10
-14 -14 -35 -11 -48 5 -19 0 -25 -28 -35 -56 -20 -62 -12 -65 89 -3 106 -22
144 -87 177 -68 35 -108 37 -160 6 -48 -27 -58 -26 -93 15 -26 32 -141 9 -189
-38 -12 -11 -26 -21 -31 -21 -20 0 -44 -52 -38 -81 8 -40 -6 -43 -44 -9 -27
24 -31 33 -25 59 5 23 2 32 -14 40 -10 6 -24 26 -30 44 -12 35 -82 109 -116
122 -11 4 -31 9 -44 11 -14 1 -34 7 -45 13 -12 5 -46 17 -76 27 -30 9 -60 20
-66 25 -14 11 -78 3 -104 -13 -22 -14 -26 -38 -8 -56 6 -6 15 -48 19 -94 22
-233 27 -244 158 -346 l35 -27 -105 -6 c-57 -3 -111 -7 -119 -10 -12 -3 -15 8
-15 57 0 58 -3 64 -39 104 -95 103 -229 145 -370 116 -78 -17 -118 -12 -160
18 -46 34 -106 100 -106 116 0 9 -5 21 -11 27 -8 8 -8 21 1 47 6 20 13 36 16
36 2 0 21 -9 41 -20 21 -11 45 -20 55 -20 9 0 20 -4 23 -10 3 -5 19 -10 35
-10 16 0 41 -5 56 -10 24 -10 30 -7 65 31 22 23 39 45 39 49 0 3 11 16 25 28
14 12 25 28 25 36 0 8 27 42 60 76 56 58 60 65 60 108 0 26 -4 52 -8 58 -11
17 -52 24 -78 12 -17 -8 -31 -8 -48 0 -26 12 -100 0 -154 -25 -41 -18 -46 -14
-31 23 12 30 18 71 20 135 1 47 -46 137 -80 152 -14 7 -32 17 -39 24 -17 16
-21 16 -55 1 -15 -7 -25 -18 -23 -25 10 -25 -17 -81 -69 -146 -55 -68 -65 -93
-44 -114 8 -8 8 -13 0 -17 -6 -4 -11 -2 -11 4 0 28 -135 59 -205 46 -66 -12
-163 -56 -170 -78 -4 -10 -11 -18 -16 -18 -17 0 -69 30 -69 40 0 5 26 43 57
85 31 41 59 87 61 102 5 40 -18 112 -39 124 -11 5 -19 16 -19 25 0 17 -32 31
-86 36 -36 4 -40 7 -49 45 -18 74 -58 100 -170 106 -74 5 -109 -6 -124 -40
-15 -33 -27 -21 -36 35 -6 38 -5 44 13 49 23 6 32 48 36 170 2 52 -1 76 -10
84 -8 6 -14 18 -14 25 0 8 -5 14 -10 14 -6 0 -16 12 -23 28 -6 15 -14 29 -18
32 -3 3 -21 31 -38 62 -34 60 -68 89 -112 94 -26 3 -52 -15 -47 -32 4 -16 -29
-79 -51 -99 -28 -24 -106 -142 -117 -175 -11 -34 -6 -148 8 -183 15 -39 5 -43
-28 -11 -37 34 -128 94 -143 94 -17 0 -13 35 7 53 10 10 21 15 24 12 3 -3 13
7 23 21 22 34 16 135 -12 206 -34 87 -173 207 -240 208 -39 1 -72 86 -73 186
0 28 3 54 8 58 4 4 8 12 8 17 1 5 2 13 3 17 1 9 71 45 76 40 2 -2 5 -12 7 -23
3 -21 32 -70 83 -142 l30 -42 55 6 c30 3 60 10 67 15 6 5 20 8 30 7 10 -2 33
5 50 14 18 10 45 17 60 17 82 -1 115 8 149 41 58 56 54 87 -15 116 -18 8 -35
22 -38 31 -4 15 -72 53 -143 79 l-24 10 29 19 c17 10 39 27 51 39 11 11 30 26
42 34 42 29 66 126 50 199 -11 46 -17 54 -43 61 -26 7 -34 4 -58 -21 -22 -24
-43 -33 -118 -48 -87 -17 -129 -39 -129 -67 0 -7 -5 -13 -11 -13 -6 0 -9 6 -6
13 6 18 -14 59 -49 99 -38 43 -113 85 -179 98 -63 14 -67 14 -87 5 -12 -5 -21
1 -32 24 -23 44 -20 61 9 61 50 0 174 40 197 63 34 35 56 86 56 134 1 35 -5
48 -33 78 -29 29 -33 39 -25 59 5 13 14 27 19 31 14 8 14 55 1 89 -9 24 -73
96 -85 96 -3 0 -15 10 -26 21 -18 18 -29 20 -65 15 -47 -6 -59 9 -29 34 8 7
15 19 15 26 0 10 13 14 40 14 29 0 40 4 40 15 0 8 15 23 34 32 53 28 115 112
120 164 3 24 10 76 17 114 18 105 16 141 -8 172 -19 26 -49 32 -63 15 -13 -17
-70 -41 -105 -45 -51 -5 -183 -46 -213 -65 -29 -19 -107 -119 -116 -149 -8
-24 -29 -32 -25 -10 4 20 -20 129 -37 165 -8 18 -12 37 -9 42 6 10 65 19 65 9
0 -18 69 16 84 42 9 16 21 29 25 29 4 0 21 26 36 58 16 31 33 63 39 71 14 18
16 41 4 41 -6 0 -8 13 -6 30 3 17 1 30 -3 30 -4 0 -5 9 -2 20 5 19 -30 124
-49 144 -15 18 -8 83 12 109 11 14 20 30 20 36 0 19 61 81 96 97 44 21 109 12
99 -14 -19 -45 -35 -122 -35 -168 0 -50 1 -51 49 -82 27 -18 54 -32 61 -32 6
0 18 -7 26 -15 9 -8 28 -15 44 -15 16 0 42 -11 58 -25 17 -14 33 -25 37 -25 4
0 13 -7 20 -16 14 -20 114 -21 145 -2 23 15 26 45 6 74 -8 11 -14 40 -14 64 0
46 -9 71 -49 127 l-23 31 94 0 c78 -1 101 3 140 22 25 13 46 27 46 32 0 4 6 8
13 8 11 0 37 37 42 60 0 3 6 15 13 28 11 19 10 26 -5 46 -12 17 -25 23 -38 20
-43 -11 -63 -6 -147 36 -60 29 -96 41 -114 37 -24 -4 -25 -2 -19 22 13 50 13
126 -1 160 -8 18 -14 40 -14 47 0 8 -16 30 -35 50 -19 19 -35 40 -35 45 0 5
-12 14 -26 19 -23 9 -25 14 -19 43 10 45 21 54 43 34 10 -9 24 -17 30 -17 7 0
36 -12 65 -26 89 -44 168 -30 235 45 29 32 33 42 30 82 -3 43 -1 47 27 58 53
22 60 27 77 62 20 41 23 64 13 134 -8 61 -27 93 -61 101 -28 7 -27 27 2 32 10
2 26 6 34 9 22 9 42 3 55 -14 8 -11 18 -13 36 -8 13 5 41 7 61 6 67 -4 146 18
184 52 19 18 48 44 64 59 16 14 49 40 73 57 47 32 56 46 63 98 4 30 -15 51
-36 38 -12 -8 -95 20 -127 43 -15 11 -47 25 -70 31 -23 6 -45 16 -48 20 -3 5
-27 14 -53 20 -39 8 -62 6 -118 -8 -38 -10 -80 -23 -93 -30 -23 -13 -45 -6
-25 7 17 11 81 127 88 159 6 25 11 29 32 25 13 -2 30 -13 37 -23 22 -30 55
-37 114 -23 143 33 241 119 287 249 23 66 68 115 106 115 9 0 21 5 27 11 17
17 122 39 129 28 3 -6 14 -7 24 -4 14 4 28 -4 49 -27 34 -37 38 -48 16 -48 -8
0 -15 -3 -15 -8 0 -4 -13 -13 -30 -20 -16 -8 -50 -34 -74 -59 -45 -46 -56 -80
-33 -110 5 -7 6 -17 2 -23 -3 -5 1 -17 9 -26 9 -8 16 -23 16 -32 0 -10 11 -29
25 -44 13 -15 29 -48 35 -75 6 -26 12 -57 15 -68 2 -11 14 -26 26 -33 19 -12
21 -12 16 2 -6 14 0 16 40 13 48 -5 68 -22 39 -33 -9 -3 -16 -11 -16 -17 0 -5
9 -2 20 8 11 10 20 28 20 41 0 12 10 31 23 41 36 29 52 71 62 163 6 53 15 81
15 46 0 -21 50 -86 66 -86 6 0 17 -7 25 -16 7 -8 25 -22 40 -29 61 -32 189
-35 189 -4 0 5 13 9 30 9 27 0 29 3 28 35 -1 22 -6 35 -15 35 -7 0 -13 4 -13
9 0 5 -8 11 -17 14 -10 2 -29 30 -42 63 -48 117 -52 124 -84 132 -42 11 -45
28 -6 36 65 13 143 134 148 230 1 28 4 53 7 57 2 4 0 10 -6 14 -17 10 -11 36
13 56 26 22 67 25 67 5 0 -8 16 -49 36 -90 32 -66 42 -78 83 -98 33 -17 61
-22 101 -21 52 2 57 5 96 47 22 26 44 43 48 39 10 -11 37 -16 82 -17 30 0 51
7 78 27 20 16 36 35 36 43 0 7 5 14 10 14 6 0 10 6 10 14 0 7 7 19 15 26 8 7
15 20 15 29 0 14 -2 14 -10 1 -7 -12 -10 -11 -15 5 -3 11 -14 37 -25 58 -15
30 -16 37 -4 37 8 0 19 -11 24 -25 11 -30 20 -33 13 -5 -5 20 13 26 56 21 7
-2 10 2 6 8 -3 6 -1 11 4 11 6 0 11 -7 11 -15 0 -8 -6 -15 -12 -15 -7 0 -2 -6
12 -13 16 -8 25 -21 25 -36 0 -14 8 -27 20 -31 11 -4 31 -20 45 -35 27 -29
134 -88 143 -79 3 3 64 5 135 5 137 -1 168 5 200 39 21 23 19 50 -3 50 -12 0
-27 27 -96 175 -17 39 -43 83 -56 99 -24 29 -151 96 -182 96 -44 0 -24 15 57
42 48 17 94 36 102 44 17 16 20 17 38 5z m-323 -291 c3 -5 1 -10 -4 -10 -6 0
-11 5 -11 10 0 6 2 10 4 10 3 0 8 -4 11 -10z m55 -24 c0 -3 -4 -8 -10 -11 -5
-3 -10 -1 -10 4 0 6 5 11 10 11 6 0 10 -2 10 -4z m170 -16 c0 -5 -4 -10 -10
-10 -5 0 -10 5 -10 10 0 6 5 10 10 10 6 0 10 -4 10 -10z m-226 -15 c-4 -8 -7
-15 -9 -15 -2 0 -5 7 -9 15 -3 9 0 15 9 15 9 0 12 -6 9 -15z m246 -19 c0 -2
-7 -6 -15 -10 -8 -3 -15 -1 -15 4 0 6 7 10 15 10 8 0 15 -2 15 -4z m-130 -21
c0 -8 -4 -15 -10 -15 -5 0 -10 7 -10 15 0 8 5 15 10 15 6 0 10 -7 10 -15z
m-940 -5 c0 -5 -5 -10 -11 -10 -5 0 -7 5 -4 10 3 6 8 10 11 10 2 0 4 -4 4 -10z
m1785 0 c3 -5 1 -10 -4 -10 -6 0 -11 5 -11 10 0 6 2 10 4 10 3 0 8 -4 11 -10z
m-1900 -30 c-3 -5 -11 -10 -16 -10 -6 0 -7 5 -4 10 3 6 11 10 16 10 6 0 7 -4
4 -10z m455 6 c0 -3 -4 -8 -10 -11 -5 -3 -10 -1 -10 4 0 6 5 11 10 11 6 0 10
-2 10 -4z m790 0 c0 -3 -4 -8 -10 -11 -5 -3 -10 -1 -10 4 0 6 5 11 10 11 6 0
10 -2 10 -4z m500 -11 c0 -8 -2 -15 -4 -15 -2 0 -6 7 -10 15 -3 8 -1 15 4 15
6 0 10 -7 10 -15z m-680 -10 c0 -8 -4 -15 -10 -15 -5 0 -10 7 -10 15 0 8 5 15
10 15 6 0 10 -7 10 -15z m-760 -5 c0 -5 -2 -10 -4 -10 -3 0 -8 5 -11 10 -3 6
-1 10 4 10 6 0 11 -4 11 -10z m250 5 c0 -2 -7 -8 -15 -15 -12 -10 -15 -10 -15
2 0 8 7 15 15 15 8 0 15 -1 15 -2z m1307 -17 c-3 -8 -6 -5 -6 6 -1 11 2 17 5
13 3 -3 4 -12 1 -19z m-1360 -4 c-3 -3 -12 -4 -19 -1 -8 3 -5 6 6 6 11 1 17
-2 13 -5z m-47 -14 c0 -5 -10 -10 -22 -9 -22 0 -22 1 -3 9 11 5 21 9 23 9 1 1
2 -3 2 -9z m130 6 c0 -3 -4 -8 -10 -11 -5 -3 -10 -1 -10 4 0 6 5 11 10 11 6 0
10 -2 10 -4z m80 -6 c0 -5 -2 -10 -4 -10 -3 0 -8 5 -11 10 -3 6 -1 10 4 10 6
0 11 -4 11 -10z m-770 -15 c10 -9 40 -16 73 -18 37 -1 53 -5 46 -12 -13 -13
-159 -12 -183 2 -18 10 -18 12 10 26 36 20 34 20 54 2z m1934 0 c-4 -8 -11
-15 -16 -15 -6 0 -5 6 2 15 7 8 14 15 16 15 2 0 1 -7 -2 -15z m-1437 -1 c-3
-3 -12 -4 -19 -1 -8 3 -5 6 6 6 11 1 17 -2 13 -5z m253 -15 c0 -15 -22 -21
-31 -8 -14 22 -11 28 11 22 11 -3 20 -9 20 -14z m1507 15 c-3 -3 -12 -4 -19
-1 -8 3 -5 6 6 6 11 1 17 -2 13 -5z m-1722 -34 c8 -13 -5 -13 -25 0 -13 8 -13
10 2 10 9 0 20 -4 23 -10z m1675 -4 c0 -8 -4 -18 -10 -21 -5 -3 -10 3 -10 14
0 12 5 21 10 21 6 0 10 -6 10 -14z m-1737 -13 c-7 -2 -19 -2 -25 0 -7 3 -2 5
12 5 14 0 19 -2 13 -5z m1687 -19 c0 -8 -5 -12 -10 -9 -6 4 -8 11 -5 16 9 14
15 11 15 -7z m-1671 -13 c8 -5 9 -11 3 -15 -5 -3 -15 1 -22 9 -14 16 -3 20 19
6z m1711 -11 c0 -5 -4 -10 -10 -10 -5 0 -10 5 -10 10 0 6 5 10 10 10 6 0 10
-4 10 -10z m-1757 -7 c-7 -2 -19 -2 -25 0 -7 3 -2 5 12 5 14 0 19 -2 13 -5z
m1707 -29 c0 -8 -4 -12 -10 -9 -5 3 -10 10 -10 16 0 5 5 9 10 9 6 0 10 -7 10
-16z m37 -26 c-3 -8 -6 -5 -6 6 -1 11 2 17 5 13 3 -3 4 -12 1 -19z m-2469 -13
c0 -29 -10 -32 -29 -9 -10 13 -10 17 2 25 22 14 27 11 27 -16z m402 5 c0 -5
-8 -10 -17 -10 -15 0 -16 2 -3 10 19 12 20 12 20 0z m2130 6 c0 -3 -4 -8 -10
-11 -5 -3 -10 -1 -10 4 0 6 5 11 10 11 6 0 10 -2 10 -4z m40 0 c0 -2 -7 -7
-16 -10 -8 -3 -12 -2 -9 4 6 10 25 14 25 6z m-143 -28 c-3 -8 -6 -5 -6 6 -1
11 2 17 5 13 3 -3 4 -12 1 -19z m-2077 -18 c0 -5 -4 -10 -10 -10 -5 0 -10 5
-10 10 0 6 5 10 10 10 6 0 10 -4 10 -10z m-42 -21 c-2 -6 -8 -10 -13 -10 -5 0
-11 4 -13 10 -2 6 4 11 13 11 9 0 15 -5 13 -11z m42 -29 c0 -5 -5 -10 -11 -10
-5 0 -7 5 -4 10 3 6 8 10 11 10 2 0 4 -4 4 -10z m-150 -10 c0 -5 -4 -10 -10
-10 -5 0 -10 5 -10 10 0 6 5 10 10 10 6 0 10 -4 10 -10z m110 -9 c0 -5 -7 -14
-15 -21 -12 -10 -15 -10 -15 2 0 8 3 18 7 21 9 10 23 9 23 -2z m-80 -31 c-8
-5 -17 -7 -19 -4 -3 3 1 9 9 14 8 5 17 7 19 4 3 -3 -1 -9 -9 -14z m-3 -72 c-3
-8 -6 -5 -6 6 -1 11 2 17 5 13 3 -3 4 -12 1 -19z m-317 3 c0 -6 -4 -13 -10
-16 -5 -3 -10 1 -10 9 0 9 5 16 10 16 6 0 10 -4 10 -9z m-430 -36 c-7 -9 -15
-13 -18 -10 -3 2 1 11 8 20 7 9 15 13 18 10 3 -2 -1 -11 -8 -20z m700 15 c0
-5 -5 -10 -11 -10 -5 0 -7 5 -4 10 3 6 8 10 11 10 2 0 4 -4 4 -10z m-750 -60
c0 -5 -5 -10 -11 -10 -5 0 -7 5 -4 10 3 6 8 10 11 10 2 0 4 -4 4 -10z m750
-11 c0 -5 -4 -9 -10 -9 -5 0 -10 7 -10 16 0 8 5 12 10 9 6 -3 10 -10 10 -16z
m-250 -9 c0 -5 -2 -10 -4 -10 -3 0 -8 5 -11 10 -3 6 -1 10 4 10 6 0 11 -4 11
-10z m267 -32 c-3 -8 -6 -5 -6 6 -1 11 2 17 5 13 3 -3 4 -12 1 -19z m-37 2 c0
-5 -4 -10 -10 -10 -5 0 -10 5 -10 10 0 6 5 10 10 10 6 0 10 -4 10 -10z m160 6
c0 -3 -4 -8 -10 -11 -5 -3 -10 -1 -10 4 0 6 5 11 10 11 6 0 10 -2 10 -4z
m-382 -41 c-3 -3 -9 2 -12 12 -6 14 -5 15 5 6 7 -7 10 -15 7 -18z m352 15 c0
-5 -4 -10 -10 -10 -5 0 -10 5 -10 10 0 6 5 10 10 10 6 0 10 -4 10 -10z m-55
-20 c3 -5 1 -10 -4 -10 -6 0 -11 5 -11 10 0 6 2 10 4 10 3 0 8 -4 11 -10z
m-340 -10 c3 -5 1 -10 -4 -10 -6 0 -11 5 -11 10 0 6 2 10 4 10 3 0 8 -4 11
-10z m295 0 c0 -5 -4 -10 -10 -10 -5 0 -10 5 -10 10 0 6 5 10 10 10 6 0 10 -4
10 -10z m-352 -38 c2 -7 -2 -10 -12 -6 -9 3 -16 11 -16 16 0 13 23 5 28 -10z
m102 -3 c0 -5 -4 -9 -8 -9 -5 0 -9 7 -9 15 0 8 4 12 9 9 4 -3 8 -9 8 -15z
m290 1 c0 -5 -4 -10 -9 -10 -6 0 -13 5 -16 10 -3 6 1 10 9 10 9 0 16 -4 16
-10z m100 -50 c0 -5 -2 -10 -4 -10 -3 0 -8 5 -11 10 -3 6 -1 10 4 10 6 0 11
-4 11 -10z m-1010 -264 c0 -3 -4 -8 -10 -11 -5 -3 -10 -1 -10 4 0 6 5 11 10
11 6 0 10 -2 10 -4z m80 -6 c0 -5 -2 -10 -4 -10 -3 0 -8 5 -11 10 -3 6 -1 10
4 10 6 0 11 -4 11 -10z m-160 -91 c0 -5 -4 -9 -10 -9 -5 0 -10 7 -10 16 0 8 5
12 10 9 6 -3 10 -10 10 -16z m-65 -9 c3 -5 1 -10 -4 -10 -6 0 -11 5 -11 10 0
6 2 10 4 10 3 0 8 -4 11 -10z m102 -26 c-9 -9 -28 6 -21 18 4 6 10 6 17 -1 6
-6 8 -13 4 -17z m-52 -14 c3 -5 1 -10 -4 -10 -6 0 -11 5 -11 10 0 6 2 10 4 10
3 0 8 -4 11 -10z m7985 -7205 c0 -19 -12 -25 -27 -14 -19 16 -16 25 7 25 11 0
20 -5 20 -11z"/>
<path d="M7662 9294 c9 -9 21 -15 27 -13 6 2 -2 10 -17 17 -25 11 -25 11 -10
-4z"/>
<path d="M3800 6840 c0 -5 5 -10 11 -10 5 0 7 5 4 10 -3 6 -8 10 -11 10 -2 0
-4 -4 -4 -10z"/>
<path d="M4000 6700 c0 -5 5 -10 11 -10 5 0 7 5 4 10 -3 6 -8 10 -11 10 -2 0
-4 -4 -4 -10z"/>
</g>
</svg>
