<?xml version="1.0" standalone="no"?>
<!DOCTYPE svg PUBLIC "-//W3C//DTD SVG 20010904//EN"
 "http://www.w3.org/TR/2001/REC-SVG-20010904/DTD/svg10.dtd">
<svg version="1.0" xmlns="http://www.w3.org/2000/svg"
 width="640.000000pt" height="1280.000000pt" viewBox="0 0 640.000000 1280.000000"
 preserveAspectRatio="xMidYMid meet">
<metadata>
Created by potrace 1.15, written by Peter Selinger 2001-2017
</metadata>
<g transform="translate(0.000000,1280.000000) scale(0.100000,-0.100000)"
fill="#000000" stroke="none">
<path d="M2560 12790 c-30 -4 -125 -15 -210 -25 -336 -36 -510 -71 -862 -170
-323 -91 -463 -150 -648 -273 -177 -118 -348 -314 -430 -496 -71 -155 -84
-286 -55 -539 13 -111 15 -282 13 -1092 l-3 -960 -28 -95 c-27 -90 -29 -110
-37 -370 -6 -175 -14 -303 -24 -352 -9 -42 -20 -119 -26 -170 -6 -51 -18 -131
-26 -177 -11 -68 -14 -247 -14 -975 1 -498 5 -922 10 -961 18 -132 39 -330 55
-510 22 -259 31 -341 59 -526 14 -90 30 -240 36 -334 14 -229 15 -1072 1
-1150 -14 -78 -14 -431 0 -532 11 -86 49 -178 104 -253 27 -37 35 -58 35 -91
0 -24 7 -89 15 -144 8 -58 15 -178 15 -285 0 -130 6 -225 20 -320 30 -201 37
-270 49 -435 12 -164 36 -419 52 -560 11 -101 44 -185 82 -209 32 -21 142 -42
297 -55 215 -19 252 -30 405 -122 17 -9 87 -43 157 -73 70 -31 147 -68 170
-82 84 -52 208 -148 208 -161 0 -7 7 -13 15 -13 8 0 36 -16 61 -35 60 -46 83
-57 222 -112 154 -59 182 -67 347 -99 127 -24 164 -26 395 -27 242 -1 262 0
390 26 74 16 182 34 240 42 58 8 141 19 185 25 67 10 183 42 442 125 30 10 43
10 43 3 0 -6 7 -5 18 4 9 8 76 37 147 63 199 74 283 120 433 237 34 28 62 48
62 45 0 -2 18 13 41 35 22 21 44 36 50 33 5 -4 9 0 9 7 0 7 17 24 37 38 36 25
39 25 322 32 307 7 337 11 421 50 85 39 134 81 158 132 34 72 55 215 48 326
-3 52 -10 160 -15 240 -6 80 -10 420 -10 755 l-1 610 41 25 c30 18 48 39 65
77 23 50 23 60 24 370 1 193 -3 338 -9 368 -6 28 -18 106 -26 175 -20 169 -51
395 -70 505 -8 50 -24 196 -35 325 -19 218 -20 322 -20 1445 0 1017 -3 1224
-15 1300 -12 72 -15 214 -15 730 0 352 4 681 10 730 15 138 12 572 -5 695 -19
138 -21 800 -3 818 9 9 9 12 0 12 -15 0 -17 435 -2 445 6 3 10 11 10 16 0 6
-4 8 -9 5 -4 -3 -11 76 -14 177 -6 195 -22 275 -73 362 -12 22 -37 81 -55 130
-17 50 -57 135 -89 190 -31 55 -67 120 -80 145 -53 105 -113 154 -361 297
-173 100 -194 110 -614 288 -91 39 -441 145 -856 261 -210 58 -307 67 -784 70
-242 1 -465 -1 -495 -6z m835 -120 c169 -19 304 -50 682 -159 393 -113 413
-120 708 -246 279 -119 593 -292 670 -371 43 -44 199 -322 233 -415 21 -56 21
-56 1 -135 -11 -46 -33 -98 -52 -126 -28 -42 -36 -48 -69 -48 -20 0 -65 9
-100 20 -34 11 -76 20 -93 20 -37 0 -123 -51 -216 -128 -138 -113 -150 -122
-192 -133 -29 -8 -145 -9 -392 -5 -192 4 -365 7 -383 7 -21 0 -60 -15 -110
-44 -90 -52 -228 -106 -363 -142 -111 -29 -291 -57 -322 -50 -12 3 -134 12
-272 20 -267 16 -330 25 -541 80 -109 28 -139 40 -160 62 -24 26 -25 27 -21 6
3 -13 3 -23 1 -23 -2 0 -52 14 -111 31 l-106 32 -111 -22 c-96 -18 -145 -21
-367 -21 -238 0 -263 2 -352 24 -56 14 -134 44 -186 71 -86 44 -116 71 -212
184 -19 22 -36 31 -56 31 -47 0 -181 37 -254 71 -97 45 -134 88 -148 170 -22
133 -4 274 53 403 70 157 274 395 407 473 82 49 239 105 500 178 262 74 462
116 654 140 432 52 441 53 820 54 204 0 411 -4 460 -9z m2401 -1477 c3 -16 8
-34 10 -42 3 -8 -15 -46 -38 -85 l-43 -71 -8 66 c-9 65 -8 67 25 112 18 25 36
46 40 46 4 1 10 -11 14 -26z m-5247 -52 c10 -7 13 -30 12 -92 -1 -46 -4 -86
-6 -88 -3 -2 -11 2 -20 9 -11 9 -15 33 -15 96 0 84 3 91 29 75z m5105 -248 c3
-8 -6 -36 -22 -61 l-27 -47 -7 55 c-11 100 -9 228 5 233 8 2 17 -23 29 -81 9
-47 19 -91 22 -99z m-380 -36 c-9 -5 -58 -46 -108 -91 -50 -45 -126 -110 -168
-145 -72 -59 -118 -110 -410 -452 -170 -200 -245 -249 -407 -266 -55 -5 -61
-4 -61 13 0 10 -5 84 -11 164 -7 91 -8 258 -4 445 l7 300 402 0 401 0 66 31
c94 44 169 95 241 161 l63 58 3 -104 c2 -90 0 -106 -14 -114z m-4362 101 c43
-43 151 -108 227 -138 135 -53 219 -64 496 -64 143 -1 280 3 304 8 l44 8 -7
-358 c-3 -198 -9 -417 -13 -487 l-6 -129 -46 7 c-125 17 -345 80 -481 138
-131 55 -151 67 -205 122 -87 86 -148 185 -206 332 -67 168 -82 196 -123 230
-33 27 -36 35 -51 123 -8 52 -15 142 -15 200 l1 105 21 -30 c12 -16 39 -47 60
-67z m4581 50 c4 -24 9 -104 12 -178 l7 -135 -31 -29 -31 -30 0 207 c0 196 1
207 19 207 15 0 20 -10 24 -42z m-4816 -145 c-3 -10 -5 -4 -5 12 0 17 2 24 5
18 2 -7 2 -21 0 -30z m5119 -77 l-26 -25 0 30 c0 16 10 49 23 72 l22 42 3 -47
c3 -38 -1 -50 -22 -72z m-5256 3 c0 -11 -4 -17 -10 -14 -5 3 -10 13 -10 21 0
8 5 14 10 14 6 0 10 -9 10 -21z m1768 -50 c21 -8 22 -14 22 -120 0 -111 0
-111 -22 -105 -13 3 -56 13 -95 22 l-73 16 0 118 0 118 73 -20 c39 -11 82 -24
95 -29z m2997 -835 l7 -471 -83 28 c-156 51 -393 90 -609 100 -213 9 -440 26
-447 33 -4 4 -34 189 -30 191 1 1 29 7 62 14 85 18 230 93 325 168 84 68 119
105 368 399 104 124 183 206 250 261 53 45 106 91 117 103 l20 22 6 -188 c4
-104 10 -401 14 -660z m-1355 711 l0 -125 -49 0 c-27 0 -56 -3 -65 -6 -14 -5
-16 8 -16 104 l0 109 53 21 c28 11 58 21 65 21 9 1 12 -30 12 -124z m1693 -12
l-38 -46 -3 42 c-3 39 0 46 35 76 l38 33 3 -29 c2 -22 -6 -41 -35 -76z m-3055
67 l42 -11 -6 -87 c-4 -48 -8 -89 -10 -90 -1 -2 -32 -1 -68 3 l-66 7 0 103 0
103 33 -8 c17 -5 51 -14 75 -20z m-1903 -10 c27 -30 12 -34 -15 -5 -13 14 -19
25 -13 25 5 0 18 -9 28 -20z m2975 -100 l0 -80 -55 0 -55 0 0 48 c0 26 -3 57
-6 69 -5 19 0 23 38 31 81 18 78 21 78 -68z m2144 13 c-39 -29 -45 -7 -11 40
l22 32 3 -30 c3 -19 -2 -33 -14 -42z m-2781 41 l127 -6 0 -64 0 -64 -185 0
-185 0 0 76 0 76 58 -6 c31 -3 114 -8 185 -12z m-2496 -66 c-2 -13 -4 -3 -4
22 0 25 2 35 4 23 2 -13 2 -33 0 -45z m2865 -13 l3 -55 -42 0 -43 0 0 55 0 55
39 0 39 0 4 -55z m2121 -17 c5 -50 3 -55 -29 -88 l-34 -35 0 74 c0 59 4 77 18
87 30 23 39 16 45 -38z m-4817 -65 c21 -18 34 -37 34 -51 l0 -23 -40 28 c-26
18 -40 36 -40 51 0 28 4 28 46 -5z m4962 -115 l-22 -43 -8 64 c-8 62 -8 65 19
93 l28 29 3 -50 c2 -37 -3 -61 -20 -93z m-3405 50 l77 -11 0 -105 0 -104 -27
6 c-16 3 -63 11 -106 18 -71 11 -78 14 -73 33 3 11 6 58 6 104 0 82 0 83 23
77 12 -3 57 -11 100 -18z m1697 -93 c0 -47 -3 -85 -7 -85 -5 -1 -34 -7 -65
-14 l-58 -14 0 93 0 94 48 4 c26 2 55 4 65 5 15 2 17 -8 17 -83z m-1330 -55
l0 -121 -62 7 c-35 4 -66 9 -70 11 -5 2 -8 53 -8 114 l0 109 70 0 70 0 0 -120z
m530 0 l0 -120 -185 0 -185 0 0 120 0 120 185 0 185 0 0 -120z m254 74 c3 -26
6 -77 6 -114 l0 -68 -50 -4 -50 -3 0 118 0 117 44 0 43 0 7 -46z m254 -56 l-3
-103 -41 -6 -42 -5 -6 44 c-3 25 -6 73 -6 108 l0 64 50 0 51 0 -3 -102z m2154
80 c-7 -7 -12 -8 -12 -2 0 14 12 26 19 19 2 -3 -1 -11 -7 -17z m-272 -103 c0
-84 -1 -86 -36 -125 -20 -22 -40 -40 -45 -40 -5 0 -9 43 -9 95 0 90 1 96 23
104 12 5 31 18 41 30 11 11 21 21 23 21 1 0 3 -38 3 -85z m-4846 -10 c21 -19
41 -35 46 -35 4 0 10 -20 12 -45 2 -25 1 -45 -2 -45 -2 0 -26 21 -52 47 -38
37 -48 54 -48 80 0 18 2 33 4 33 2 0 20 -16 40 -35z m280 -114 c28 -42 82
-108 120 -146 66 -65 82 -75 214 -133 176 -76 420 -142 560 -150 l92 -5 0 -62
c0 -57 -2 -63 -22 -68 -124 -28 -391 -80 -508 -97 -184 -27 -217 -37 -376
-121 -72 -38 -134 -69 -138 -69 -3 0 -7 216 -8 481 -2 324 0 475 7 463 6 -9
32 -51 59 -93z m4684 -8 c-12 -20 -24 -31 -26 -24 -3 10 34 61 44 61 2 0 -6
-16 -18 -37z m162 -18 c0 -37 -4 -47 -22 -56 -23 -10 -90 -125 -160 -274 -50
-106 -105 -190 -145 -221 l-33 -25 0 64 0 65 68 68 c69 69 142 174 234 336 28
49 52 88 54 88 2 0 4 -20 4 -45z m-1865 -42 c3 -38 8 -92 11 -120 l5 -53 -75
0 -76 0 0 104 0 104 58 15 c31 8 60 15 64 16 3 1 9 -29 13 -66z m-1730 7 c53
-11 99 -20 101 -20 2 0 4 -35 4 -79 l0 -79 -106 -7 c-58 -4 -107 -5 -108 -4
-4 5 5 209 9 209 2 0 47 -9 100 -20z m1435 -90 l0 -90 -45 0 -45 0 0 84 0 85
38 4 c20 2 40 4 45 5 4 1 7 -38 7 -88z m-250 -20 l0 -70 -50 0 -50 0 0 70 0
70 50 0 50 0 0 -70z m2093 -92 l-38 -62 -3 78 -3 78 38 33 38 33 3 -49 c3 -42
-2 -58 -35 -111z m-4745 22 c-2 -19 -11 -11 -55 48 -29 39 -53 74 -53 79 0 4
25 -17 56 -48 41 -41 55 -62 52 -79z m1862 65 l0 -65 -70 0 -70 0 0 65 0 65
70 0 70 0 0 -65z m530 0 l0 -65 -185 0 -185 0 0 65 0 65 185 0 185 0 0 -65z
m-2591 -49 c17 -24 69 -92 116 -150 80 -100 86 -110 83 -148 l-3 -40 -117 174
c-101 149 -133 208 -113 208 2 0 18 -20 34 -44z m5280 -421 c16 -105 15 -105
-27 -121 -25 -10 -47 -30 -64 -57 -15 -23 -53 -72 -85 -108 -32 -36 -85 -99
-117 -139 -56 -70 -60 -73 -68 -50 -5 13 -12 88 -15 167 -5 114 -3 146 8 159
11 13 11 18 2 21 -23 8 -15 57 11 73 62 39 188 156 221 205 19 30 52 90 73
132 l37 78 7 -145 c3 -80 11 -176 17 -215z m-1841 203 c7 -46 12 -89 12 -95 0
-10 -26 -13 -95 -13 l-95 0 0 89 0 90 48 4 c26 2 63 4 83 5 l36 2 11 -82z
m-1668 -8 l0 -80 -110 0 -110 0 0 80 0 80 110 0 110 0 0 -80z m290 0 l0 -80
-70 0 -70 0 0 80 0 80 70 0 70 0 0 -80z m530 5 l0 -75 -185 0 -185 0 0 75 0
75 185 0 185 0 0 -75z m270 31 c0 -24 3 -58 6 -75 l7 -31 -62 0 -61 0 0 75 0
75 55 0 55 0 0 -44z m240 -37 l0 -80 -37 3 -38 3 -5 78 -5 77 43 0 42 0 0 -81z
m-3041 -146 c44 -67 94 -132 111 -145 l30 -22 0 -198 c0 -109 -4 -198 -8 -198
-12 0 -103 97 -168 180 l-59 75 -3 225 c-3 144 0 221 6 215 5 -5 46 -65 91
-132z m2531 -153 l0 -110 -185 0 -185 0 0 110 0 110 185 0 185 0 0 -110z m292
-6 l3 -104 -67 0 -68 0 0 108 0 107 64 -3 65 -4 3 -104z m-1112 6 l0 -100
-110 0 -110 0 0 100 0 100 110 0 110 0 0 -100z m290 -5 l0 -105 -70 0 -70 0 0
105 0 105 70 0 70 0 0 -105z m1048 -7 l3 -98 -35 0 -35 0 -3 100 -3 101 35 -3
35 -3 3 -97z m358 79 c9 -9 33 -165 26 -172 -3 -3 -54 -5 -114 -5 l-108 0 0
49 c0 26 -3 70 -6 96 l-7 47 101 -4 c55 -1 104 -6 108 -11z m320 -10 c1 -1 4
-26 8 -54 l7 -53 -76 0 c-53 0 -75 4 -76 13 0 6 -4 34 -8 61 l-8 49 76 -7 c41
-4 76 -8 77 -9z m-2396 -79 l0 -83 -98 -19 c-53 -11 -107 -21 -119 -24 -22 -4
-23 -2 -23 75 l0 80 93 25 c50 15 104 27 120 27 l27 1 0 -82z m2720 64 c11 -5
15 -24 15 -71 l0 -63 -57 4 c-32 2 -59 6 -61 9 -2 2 -7 32 -10 67 l-7 62 53
-1 c28 0 59 -3 67 -7z m276 -50 c6 -4 14 -37 17 -74 l6 -67 -32 5 c-57 10 -57
10 -57 79 0 64 0 65 28 65 15 0 32 -4 38 -8z m-3436 -112 c0 -49 -4 -90 -8
-90 -11 0 -35 157 -27 170 3 6 13 10 21 10 11 0 14 -18 14 -90z m-221 -117 c1
-32 -3 -43 -14 -43 -11 0 -15 13 -15 54 0 29 3 69 7 87 l7 34 7 -45 c4 -25 8
-64 8 -87z m3064 18 c14 -1 17 -11 17 -60 l0 -59 -62 -4 c-35 -3 -64 -5 -65
-4 -1 1 -4 33 -8 72 l-7 71 53 -8 c30 -4 62 -8 72 -8z m-2090 -8 l67 -6 0 -88
c0 -49 -1 -89 -2 -89 -2 0 -31 9 -65 19 -35 11 -85 22 -113 26 l-50 7 0 62 c0
35 3 66 7 69 8 9 68 9 156 0z m357 -113 c0 -125 7 -117 -94 -104 l-46 7 0 97
c0 53 3 100 7 103 3 4 35 7 70 7 l63 0 0 -110z m530 -2 l0 -108 -185 0 -185 0
0 111 0 111 185 -3 185 -4 0 -107z m305 17 c4 -53 6 -97 4 -99 -2 -2 -37 -7
-76 -10 l-73 -7 0 105 0 106 69 0 69 0 7 -95z m239 43 c4 -29 9 -72 12 -95 l6
-43 -45 0 c-44 0 -44 1 -51 38 -3 20 -6 63 -6 95 l0 57 39 0 38 0 7 -52z m380
15 c18 -123 18 -130 2 -136 -9 -4 -59 -10 -110 -13 l-93 -7 -11 84 c-7 46 -12
90 -12 97 0 9 28 12 109 12 l109 0 6 -37z m-2126 -35 l-3 -61 -102 -26 c-56
-14 -105 -23 -108 -20 -3 3 -6 34 -7 70 l-3 64 90 16 c145 27 136 29 133 -43z
m2716 32 c19 -7 22 -14 18 -40 -3 -22 -9 -30 -19 -26 -8 3 -32 6 -54 6 l-39 0
0 41 0 41 36 -7 c20 -3 46 -10 58 -15z m1081 -57 c-12 -110 -17 -444 -16
-1008 2 -492 5 -650 17 -720 11 -71 14 -217 14 -700 l0 -610 -53 -24 c-98 -44
-442 -182 -553 -221 -128 -45 -257 -75 -411 -95 -159 -20 -466 -65 -484 -71
-10 -3 -29 11 -51 38 -20 24 -54 54 -77 68 -22 14 -41 28 -41 31 0 3 63 25
141 49 114 36 174 62 319 141 98 53 204 114 237 135 160 105 438 452 545 680
16 34 48 131 73 215 99 348 156 543 203 700 83 271 104 448 62 517 -43 70
-107 73 -257 11 -40 -17 -127 -46 -194 -65 -118 -33 -151 -48 -386 -177 -249
-137 -501 -313 -688 -481 -71 -65 -173 -148 -225 -186 -135 -96 -220 -202
-313 -387 -99 -196 -158 -367 -182 -528 -14 -88 -18 -115 -50 -285 -30 -161
-35 -195 -35 -250 0 -54 1 -56 43 -82 59 -37 108 -48 215 -48 105 0 165 -17
296 -82 119 -59 197 -140 175 -181 -7 -12 -6 -17 2 -17 8 0 10 -25 7 -87 -5
-92 -25 -149 -66 -186 -19 -17 -19 -17 -26 33 -11 79 -75 267 -110 318 -47 70
-84 87 -186 87 -104 0 -156 -23 -240 -105 -47 -45 -63 -70 -89 -139 -18 -47
-37 -110 -41 -140 -41 -262 -43 -278 -36 -382 l6 -107 -27 -7 c-31 -7 -160 2
-216 16 l-37 10 2 97 c3 114 -15 311 -36 398 -8 33 -29 105 -46 159 -26 79
-40 107 -75 144 -54 58 -123 93 -191 99 -64 5 -113 -10 -186 -59 -43 -30 -63
-51 -83 -94 -40 -81 -109 -319 -121 -415 -8 -69 -10 -73 -35 -59 -61 32 -147
138 -120 147 19 6 12 22 -9 22 -33 0 -43 44 -42 174 1 113 2 121 35 190 19 39
53 95 76 124 l41 52 118 0 c158 0 281 26 364 76 93 55 98 61 98 112 0 47 -61
282 -131 504 -41 133 -122 302 -230 485 -53 90 -86 130 -194 238 -71 72 -186
173 -254 225 -68 52 -185 142 -259 200 -208 162 -218 169 -352 238 -69 35
-181 97 -250 137 -69 40 -173 95 -231 123 -119 57 -176 111 -165 156 5 21 3
23 -23 22 -16 -1 -67 -23 -113 -49 l-83 -49 -5 -61 c-9 -116 -4 -392 8 -462
16 -87 88 -338 111 -385 10 -19 47 -91 83 -160 37 -69 112 -226 168 -350 56
-124 108 -235 116 -247 8 -13 32 -64 54 -114 108 -245 254 -390 500 -500 110
-49 178 -70 373 -114 81 -18 115 -30 110 -38 -3 -7 -19 -31 -35 -53 l-30 -41
-86 19 c-96 21 -105 23 -374 103 -182 53 -367 128 -623 250 -176 84 -202 95
-280 111 -38 7 -79 16 -91 19 -42 9 -46 103 -42 1130 3 700 7 971 17 1030 53
339 60 396 63 508 1 48 3 87 6 87 2 0 22 -15 45 -33 68 -54 301 -197 457 -282
229 -123 290 -159 458 -269 199 -129 408 -260 587 -367 148 -88 223 -142 379
-278 70 -61 94 -86 84 -92 -9 -6 -7 -9 8 -9 11 0 34 -15 51 -32 33 -35 142
-198 207 -310 22 -36 50 -71 64 -77 42 -20 138 37 262 154 58 55 159 145 225
199 66 55 197 177 290 271 129 130 187 182 240 212 39 22 108 62 154 88 73 42
86 47 104 36 18 -12 19 -11 15 7 -5 18 16 34 146 110 83 50 187 109 231 132
165 87 538 299 784 446 163 98 190 118 288 216 59 59 109 108 110 108 1 0 1
-17 -2 -37z m-785 7 c19 -5 26 -14 28 -39 3 -32 2 -33 -23 -27 -15 4 -40 10
-56 13 -25 5 -29 10 -29 39 0 37 -5 37 80 14z m-3435 -53 c10 -63 3 -101 -17
-105 -16 -3 -18 5 -18 66 0 38 3 72 7 75 14 15 22 5 28 -36z m-225 -117 c0
-79 -2 -91 -20 -100 -19 -10 -20 -8 -20 89 0 70 4 101 13 104 23 8 27 -4 27
-93z m3080 -35 c0 -42 -1 -44 -34 -50 -18 -4 -44 -5 -57 -3 -21 3 -24 9 -27
51 l-3 47 60 0 61 0 0 -45z m-2438 -64 l-3 -100 -52 -10 c-29 -6 -65 -11 -82
-13 -33 -3 -31 -9 -51 132 l-6 46 78 21 c127 34 120 39 116 -76z m321 53 l67
-16 0 -69 0 -69 -121 0 -121 0 6 31 c3 17 6 62 6 100 l0 68 48 -15 c26 -8 77
-22 115 -30z m2416 30 c2 -2 4 -24 5 -50 l1 -46 -35 6 c-19 3 -43 6 -52 6 -15
0 -18 9 -18 50 l0 50 48 -7 c26 -3 49 -7 51 -9z m-578 -11 c0 -5 4 -47 7 -95
l7 -87 -25 -5 c-120 -22 -162 -28 -167 -23 -6 7 -33 180 -28 185 3 3 155 28
188 31 9 0 17 -2 18 -6z m-359 -115 l14 -93 -54 -3 c-30 -2 -57 -1 -59 2 -3 3
-8 46 -11 96 l-5 90 51 0 50 0 14 -92z m-272 38 c0 -24 3 -64 6 -90 l7 -46
-87 0 -86 0 0 90 0 90 80 0 80 0 0 -44z m1493 25 c22 -9 27 -17 27 -46 0 -19
-2 -35 -5 -35 -2 0 -27 5 -55 11 l-50 11 0 40 c0 39 1 40 28 35 15 -3 39 -10
55 -16z m-1813 -76 l0 -85 -185 0 -185 0 0 80 0 80 183 3 c100 1 183 3 185 5
1 1 2 -36 2 -83z m-530 5 c0 -78 5 -75 -87 -64 l-53 7 0 63 0 64 70 0 70 0 0
-70z m-1066 18 c3 -18 8 -55 11 -83 l6 -50 -40 -17 -41 -17 0 94 c0 81 2 94
18 98 35 9 40 6 46 -25z m2804 -104 c17 -5 22 -13 22 -41 0 -32 -2 -35 -22
-29 -13 3 -38 6 -55 6 -31 0 -33 2 -33 35 0 33 2 35 33 35 17 0 42 -3 55 -6z
m295 -39 c30 -5 37 -10 37 -28 0 -12 3 -31 6 -43 5 -21 5 -21 -55 -6 l-61 15
0 39 c0 33 3 39 18 35 9 -3 34 -8 55 -12z m-2325 -154 l3 -104 -68 6 c-37 4
-88 7 -113 7 -33 0 -41 3 -30 10 13 8 11 11 -7 16 -22 6 -23 12 -23 90 l0 85
118 -3 117 -3 3 -104z m1792 30 c0 -67 -3 -80 -17 -85 -23 -7 -146 -26 -149
-23 -1 1 -6 37 -11 79 l-9 77 75 14 c121 23 111 28 111 -62z m-2180 3 c0 -64
-1 -66 -22 -60 -13 3 -47 6 -76 6 l-53 0 3 48 3 47 60 11 c33 7 66 12 73 13 8
1 12 -18 12 -65z m676 42 c1 0 4 -45 7 -98 l5 -98 -27 0 c-16 0 -49 3 -75 6
l-46 7 0 99 0 99 68 -7 c37 -4 68 -7 68 -8z m534 -101 l0 -95 -185 0 -185 0 0
95 0 95 185 0 185 0 0 -95z m338 6 c2 -61 -1 -87 -10 -92 -7 -5 -48 -9 -90 -9
l-78 0 0 95 0 96 88 -3 87 -3 3 -84z m285 82 c3 -5 8 -43 12 -85 l7 -78 -76 0
-76 0 0 85 0 85 64 0 c36 0 67 -3 69 -7z m-2175 -40 c5 -18 -10 -16 -34 2 -18
15 -18 15 5 13 14 -2 26 -9 29 -15z m2760 -59 c19 -4 22 -10 22 -58 l0 -53
-49 -26 c-27 -15 -51 -27 -55 -27 -7 0 -8 164 -1 172 5 5 33 2 83 -8z m-240
-195 l-3 -72 -69 -39 c-38 -21 -70 -37 -71 -36 -1 2 -5 45 -8 95 -6 104 -16
91 83 112 75 15 71 18 68 -60z m-1790 2 c1 0 2 -37 2 -81 l0 -80 -59 0 c-40 0
-63 5 -71 15 -7 8 -18 15 -24 15 -6 0 -28 11 -49 25 -33 23 -37 30 -37 69 0
23 2 45 4 47 4 3 225 -6 234 -10z m1476 -3 c3 -13 7 -71 10 -130 l6 -108 -90
0 -90 0 0 125 0 124 68 4 c37 2 73 4 79 5 7 1 15 -8 17 -20z m-314 -114 l0
-116 -31 6 c-17 3 -58 6 -90 6 l-59 0 0 104 0 105 53 4 c28 2 69 4 90 5 l37 2
0 -116z m-850 76 c4 -14 10 -51 14 -84 6 -53 5 -58 -11 -51 -10 4 -51 10 -90
13 l-73 5 0 74 0 74 77 -3 c72 -3 77 -4 83 -28z m510 -77 l0 -106 -142 7 c-79
3 -153 9 -165 12 -23 6 -27 21 -39 132 l-7 62 177 0 176 0 0 -107z m2324 -29
c48 -18 24 -202 -64 -484 -21 -69 -57 -188 -79 -265 -64 -229 -149 -519 -167
-571 -34 -102 -193 -342 -332 -504 -146 -169 -275 -249 -544 -335 -246 -78
-384 -91 -620 -58 l-128 18 0 45 c0 24 7 78 15 120 30 156 65 347 71 400 11
90 79 286 148 427 109 223 177 309 335 422 53 38 146 115 206 171 156 144 376
301 580 413 90 49 149 73 235 96 63 18 153 47 200 65 129 51 121 49 144 40z
m-2949 -145 c22 -7 63 -14 90 -18 l50 -6 7 -85 c4 -46 5 -86 3 -89 -3 -2 -40
27 -82 66 -43 38 -100 86 -127 106 l-49 37 34 0 c19 0 52 -5 74 -11z m-1538
-157 c65 -38 177 -99 248 -136 84 -42 164 -93 225 -142 52 -42 158 -124 235
-182 382 -288 467 -376 613 -634 120 -212 162 -321 247 -637 37 -138 44 -176
33 -182 -7 -5 -108 -9 -225 -9 -200 0 -219 2 -350 31 -76 17 -165 40 -197 50
-177 60 -367 180 -453 288 -46 58 -171 306 -300 591 -41 91 -116 246 -167 345
-126 243 -183 434 -193 648 l-6 117 86 -39 c47 -22 139 -71 204 -109z m2163
-7 l0 -115 -154 0 c-131 0 -155 2 -160 16 -3 9 -6 61 -6 117 l0 102 160 -3
160 -3 0 -114z m293 100 l47 -6 0 -59 c0 -32 2 -65 6 -73 3 -8 -7 -28 -21 -46
-25 -29 -31 -31 -96 -31 l-69 0 0 116 0 115 43 -5 c23 -3 63 -8 90 -11z m-143
-339 c0 -2 -39 -37 -87 -77 -49 -40 -111 -95 -139 -122 l-52 -48 -45 74 c-25
41 -59 94 -76 117 -17 24 -31 47 -31 52 0 4 97 8 215 8 118 0 215 -2 215 -4z
m2459 -1948 l0 -313 -57 -47 c-31 -26 -86 -59 -122 -74 -36 -14 -93 -39 -127
-55 l-63 -29 -16 32 c-22 43 -102 126 -139 145 -87 46 -144 55 -360 60 -164 4
-232 1 -310 -12 -55 -9 -140 -20 -190 -25 -49 -5 -99 -12 -109 -16 -16 -6 -18
-4 -11 12 4 10 12 55 18 99 l9 81 206 28 c250 34 371 58 477 93 130 43 530
206 665 271 69 33 126 61 128 61 1 1 2 -140 1 -311z m-5136 241 c181 -91 488
-221 621 -263 197 -62 465 -134 555 -148 l76 -12 -3 -100 c-2 -56 -6 -103 -8
-105 -2 -2 -63 10 -136 27 -164 38 -327 56 -436 49 -73 -5 -93 -11 -164 -49
-44 -24 -107 -64 -139 -90 l-58 -47 -69 62 c-38 34 -117 103 -176 152 -60 50
-114 96 -121 102 -8 7 -16 49 -19 100 -3 49 -12 150 -19 226 -10 112 -10 137
1 137 7 0 49 -19 95 -41z m2014 -384 c50 -33 72 -67 103 -161 30 -87 74 -273
67 -281 -2 -2 -14 24 -26 57 -17 45 -31 66 -54 81 -44 27 -101 24 -154 -6 -47
-28 -71 -67 -98 -158 -10 -35 -22 -57 -31 -57 -8 0 -14 4 -14 9 0 19 53 261
71 323 10 38 28 100 40 140 11 39 22 75 25 79 6 10 30 1 71 -26z m1027 -26
c33 -26 58 -75 91 -175 14 -42 25 -78 25 -80 0 -2 -16 8 -36 21 -66 45 -183
28 -232 -33 -32 -41 14 180 55 261 17 34 58 36 97 6z m1314 -274 c88 -21 126
-43 173 -100 59 -71 93 -145 140 -302 23 -76 62 -189 86 -252 32 -81 41 -117
34 -124 -17 -17 -13 -26 8 -20 15 4 21 -6 37 -64 17 -59 19 -103 18 -333 0
-248 -2 -279 -33 -475 -18 -115 -34 -230 -37 -255 -20 -195 -80 -434 -140
-552 -13 -26 -33 -69 -43 -95 -41 -105 -212 -437 -245 -478 -51 -62 -105 -85
-197 -85 -115 0 -281 19 -419 47 -125 25 -127 26 -710 29 -322 1 -634 -1 -695
-6 -60 -5 -200 -26 -310 -47 -196 -37 -205 -38 -420 -37 -256 1 -280 5 -550
93 -204 67 -313 113 -363 155 -32 28 -109 153 -99 162 3 3 10 -4 16 -15 29
-53 246 -186 379 -232 107 -37 231 -50 487 -49 l240 1 115 39 c227 79 305 92
580 97 275 6 407 -7 547 -53 43 -14 119 -30 168 -36 50 -5 131 -18 180 -28
123 -25 383 -44 535 -38 111 4 137 9 235 42 127 43 227 98 277 154 49 55 140
210 193 330 43 97 140 402 169 534 8 34 20 106 26 158 6 52 13 102 16 110 3 8
5 182 5 385 -1 407 -6 448 -63 580 -42 96 -123 227 -178 288 -53 60 -140 118
-219 148 -64 24 -196 49 -258 49 -24 0 -43 5 -46 13 -4 10 -7 10 -18 0 -8 -8
-41 -13 -86 -13 -93 0 -153 -20 -331 -110 -75 -37 -200 -94 -277 -125 -146
-59 -184 -78 -378 -193 -142 -85 -159 -88 -468 -97 -182 -5 -226 -4 -280 10
-91 24 -326 125 -524 226 -192 98 -383 181 -469 203 -62 16 -334 23 -436 11
-80 -10 -266 -102 -318 -159 -45 -49 -85 -123 -128 -236 l-28 -75 -7 -460 c-6
-430 -2 -562 21 -670 7 -33 149 -461 176 -530 l7 -20 -22 20 c-42 36 -85 98
-87 122 0 13 -8 29 -17 36 -17 12 -31 79 -61 292 -36 263 -38 312 -33 804 4
408 9 509 25 631 26 188 33 214 97 345 37 75 73 131 110 173 l57 62 99 0 c114
0 198 -12 361 -51 65 -15 163 -34 218 -40 l101 -13 39 -52 c45 -59 103 -103
188 -141 31 -14 216 -78 409 -143 569 -191 605 -190 988 45 88 54 187 117 220
140 113 80 360 222 407 233 26 7 71 12 100 12 29 0 94 9 143 19 118 26 465 29
563 6z m-1303 -49 c13 -13 35 -46 49 -74 l26 -51 -76 -47 c-41 -25 -77 -44
-80 -41 -9 8 -18 203 -11 221 10 25 64 20 92 -8z m2088 -242 l6 -221 -82 -44
c-45 -24 -87 -45 -93 -47 -13 -4 -63 123 -108 278 -19 63 -37 122 -40 130 -5
12 8 21 56 37 35 12 106 37 158 56 52 19 96 34 96 33 1 0 4 -100 7 -222z
m-3106 204 c31 -39 67 -235 41 -226 -7 3 -43 15 -80 27 -38 13 -68 25 -68 27
0 7 52 168 57 177 7 11 40 8 50 -5z m-2004 -78 c18 -17 55 -47 84 -66 l52 -36
-26 -57 c-13 -31 -29 -67 -34 -80 -7 -17 -14 -21 -27 -16 -9 4 -29 11 -43 17
-25 8 -27 14 -33 91 -4 45 -10 103 -13 130 -3 26 -3 47 1 47 4 0 21 -14 39
-30z m2840 -138 c4 -21 3 -31 -3 -27 -6 3 -10 20 -10 37 0 38 5 34 13 -10z
m-669 -14 c4 -17 2 -28 -4 -28 -5 0 -10 14 -10 32 0 36 4 35 14 -4z m1676
-113 l0 -75 -38 0 c-21 0 -60 -6 -88 -13 l-51 -13 -25 57 -26 58 52 20 c28 12
71 25 96 30 84 16 80 20 80 -64z m275 45 c77 -16 80 -20 69 -82 -7 -39 -14
-52 -24 -49 -8 2 -59 6 -112 9 l-98 5 0 70 0 70 58 -6 c31 -3 80 -11 107 -17z
m-3212 -117 c-9 -38 -17 -70 -18 -71 -2 -2 -18 -8 -37 -12 -18 -5 -43 -12 -55
-15 -21 -7 -22 -4 -25 79 l-3 86 77 0 76 0 -15 -67z m177 52 c14 -4 49 -16 77
-27 l53 -19 -7 -62 c-3 -34 -7 -63 -8 -64 -1 -2 -17 2 -36 8 -19 5 -63 16 -99
23 -73 14 -71 10 -49 109 9 37 15 47 28 43 9 -2 27 -8 41 -11z m-420 -99 l0
-104 -36 -21 -36 -21 -31 27 c-18 16 -53 42 -79 58 -27 17 -48 34 -48 39 0 35
146 124 208 125 21 1 22 -2 22 -103z m3782 -57 c32 -46 58 -90 58 -97 0 -13
-34 -29 -81 -39 -24 -4 -29 2 -73 91 -34 67 -51 93 -62 89 -17 -6 -17 -7 -3
57 l11 51 46 -35 c27 -19 72 -70 104 -117z m-919 119 c3 -7 12 -30 21 -50 l16
-36 -96 -52 c-53 -28 -97 -50 -98 -48 -11 15 -57 110 -54 112 22 13 186 84
194 85 7 1 14 -5 17 -11z m-2084 -114 l112 -56 -6 -42 c-4 -22 -9 -43 -11 -45
-2 -3 -54 15 -114 40 l-110 44 0 57 c0 32 4 58 8 58 5 0 59 -25 121 -56z
m1794 -59 c15 -31 27 -61 27 -68 0 -7 -21 -23 -47 -37 -26 -14 -72 -40 -101
-57 -30 -18 -56 -33 -57 -33 -2 0 -5 10 -9 23 -3 13 -21 44 -41 70 l-35 46
112 56 c62 30 115 55 118 55 3 0 18 -25 33 -55z m-3217 -49 c-3 -23 -8 -76
-12 -119 -4 -53 -10 -77 -17 -74 -8 2 -13 45 -15 130 l-3 127 26 -12 c23 -10
25 -16 21 -52z m5114 22 c0 -24 9 -97 20 -163 11 -66 20 -125 20 -132 0 -14
-75 -49 -124 -59 l-33 -6 -5 119 c-3 68 -11 136 -20 160 l-15 43 71 39 c39 22
74 40 79 41 4 0 7 -19 7 -42z m-1416 -125 c2 -87 6 -170 8 -184 3 -23 -10 -37
-106 -108 -59 -44 -110 -81 -112 -81 -2 0 -4 27 -4 60 0 88 -19 241 -39 321
l-18 70 31 16 c54 29 160 62 198 62 l36 1 6 -157z m346 138 c20 -6 45 -17 55
-25 19 -14 19 -15 -11 -53 -29 -35 -169 -143 -186 -143 -5 0 -8 55 -8 121 l0
122 58 -6 c31 -3 73 -11 92 -16z m-3621 -41 c28 -22 51 -44 51 -48 -1 -4 -14
-23 -30 -42 -17 -19 -30 -45 -30 -57 0 -13 -3 -23 -6 -23 -13 0 -94 64 -94 75
0 22 42 135 50 135 5 0 31 -18 59 -40z m1314 -41 l77 -33 0 -44 c0 -50 9 -50
-107 1 l-73 32 0 44 c0 30 4 42 13 38 6 -2 47 -20 90 -38z m-826 20 l63 -11 0
-84 0 -84 -24 15 c-20 13 -55 52 -144 158 -14 16 -13 17 13 17 16 0 57 -5 92
-11z m3357 -47 c4 -10 35 -68 71 -128 66 -110 75 -133 53 -135 -7 0 -3 -5 8
-11 35 -16 43 -50 58 -226 34 -398 39 -505 27 -582 -20 -131 -88 -323 -137
-388 -1 -2 -33 6 -71 17 -106 32 -226 53 -718 126 -126 19 -293 44 -370 55
-125 19 -167 21 -385 16 -778 -19 -878 -27 -1103 -81 -56 -13 -145 -32 -197
-40 -209 -36 -436 -101 -530 -152 -36 -20 -110 -60 -166 -89 l-101 -54 -43 61
c-55 79 -124 219 -141 289 -15 60 -15 109 -12 811 3 440 3 447 25 474 l21 27
131 -134 c145 -149 276 -251 502 -391 259 -160 476 -248 704 -285 69 -12 181
-30 250 -42 111 -19 154 -21 380 -17 243 3 259 5 340 30 117 37 193 75 438
216 190 110 299 183 424 284 24 19 142 100 263 181 121 81 229 156 240 167 24
24 32 24 39 1z m311 -138 c6 -40 5 -42 -26 -53 -41 -14 -49 -14 -49 2 0 8 -18
42 -40 76 -22 34 -40 65 -40 69 0 4 21 18 48 32 l47 26 27 -56 c14 -30 29 -74
33 -96z m-1687 103 c17 -24 34 -55 37 -70 6 -24 4 -27 -37 -37 -23 -6 -67 -18
-96 -27 -30 -8 -55 -13 -56 -11 -1 1 -7 26 -12 55 l-10 52 64 33 c35 18 66 36
69 41 7 11 7 10 41 -36z m-1633 -26 l70 -30 13 -128 c7 -70 11 -140 10 -155
l-3 -26 -76 46 -77 47 -11 95 c-16 147 -18 180 -6 180 6 0 42 -13 80 -29z
m795 -73 c0 -30 -4 -38 -17 -37 -29 1 -118 33 -115 42 1 4 2 22 2 40 l0 33 65
-20 c64 -21 65 -21 65 -58z m1204 6 c8 -38 20 -145 27 -238 l12 -169 -24 -18
c-34 -26 -247 -134 -253 -128 -3 2 -8 52 -11 109 -6 87 -28 224 -52 326 -4 18
10 29 94 77 54 31 118 70 143 86 24 17 45 29 47 28 1 -2 9 -34 17 -73z m-635
-26 c6 -28 9 -53 7 -56 -3 -2 -55 -7 -116 -10 l-110 -5 0 46 c0 25 -3 52 -6
61 -5 13 9 16 98 18 56 2 106 2 110 0 3 -1 11 -25 17 -54z m-328 -17 l6 -43
-45 6 c-25 3 -55 6 -68 6 -21 0 -24 5 -24 40 l0 41 63 -3 62 -3 6 -44z m-1949
-26 c20 -14 42 -25 47 -25 7 0 11 -44 11 -124 l0 -124 -37 10 c-77 21 -74 15
-72 159 1 71 5 129 8 129 4 0 23 -11 43 -25z m1354 -57 c6 -4 14 -52 18 -110
3 -57 9 -131 12 -165 4 -35 2 -63 -2 -63 -5 0 -46 16 -90 36 l-82 36 -6 45
c-3 25 -6 101 -6 169 l0 123 73 -32 c39 -18 77 -35 83 -39z m2894 -113 c0 -91
-3 -115 -14 -115 -10 0 -16 20 -20 68 -4 37 -9 84 -12 104 -6 37 2 47 44 57 1
1 2 -51 2 -114z m-1831 33 c22 -69 40 -177 47 -285 l7 -113 -182 0 c-99 0
-181 2 -181 5 0 3 -9 65 -19 138 -11 73 -22 151 -24 173 l-5 42 87 11 c47 6
122 22 166 35 44 13 83 24 87 25 3 1 11 -14 17 -31z m-697 -13 c68 -10 126
-20 130 -24 4 -3 14 -65 23 -136 8 -72 18 -147 21 -167 7 -43 11 -42 -76 -24
-36 7 -104 19 -152 26 l-86 13 1 96 c1 53 -2 129 -7 170 -7 65 -6 73 7 68 9
-3 71 -13 139 -22z m3138 -220 c12 -88 23 -180 26 -205 9 -67 -22 -92 -148
-119 -149 -32 -137 -46 -111 132 12 83 22 195 23 247 l0 95 88 47 87 47 8 -42
c4 -23 16 -114 27 -202z m-5220 -22 l0 -204 -22 3 c-27 4 -26 -15 -14 230 7
153 11 186 22 181 11 -4 14 -44 14 -210z m420 -91 l0 -114 -31 6 c-17 3 -42 6
-55 6 -24 0 -24 0 -24 118 l0 118 55 -10 55 -10 0 -114z m4190 -9 c0 -69 -2
-124 -4 -122 -2 2 -7 59 -11 127 -5 85 -4 122 4 122 7 0 11 -42 11 -127z
m-4222 -193 l32 0 0 -115 0 -115 -43 0 -43 0 -12 78 c-7 42 -12 97 -12 121 0
40 2 43 23 37 12 -3 37 -6 55 -6z m4862 -512 c-7 -26 -23 -46 -53 -66 -44 -31
-416 -252 -423 -252 -3 0 6 21 20 48 47 92 95 257 121 417 15 88 29 163 31
167 3 4 32 10 65 14 42 5 88 21 152 53 l92 46 3 -195 c2 -120 -1 -209 -8 -232z
m-5263 354 c6 -4 16 -50 22 -102 6 -52 13 -117 16 -145 l6 -50 -27 50 c-23 42
-54 181 -54 243 0 13 19 16 37 4z m417 -172 c9 0 15 -23 19 -67 3 -38 17 -99
30 -138 33 -99 33 -97 21 -101 -8 -4 -114 285 -114 311 0 4 7 4 16 1 9 -3 21
-6 28 -6z m4100 -244 c-25 -82 -28 -86 -55 -86 l-29 0 39 59 c21 33 44 73 51
90 24 60 21 23 -6 -63z m-1764 -132 l0 -186 -37 5 c-21 3 -98 11 -170 18
l-133 13 0 163 0 162 68 4 c37 2 113 4 170 5 l102 2 0 -186z m400 160 c63 -9
116 -17 116 -18 1 0 4 -95 8 -209 l7 -209 -38 6 c-42 6 -280 43 -330 52 l-33
5 0 201 0 201 78 -6 c42 -3 129 -14 192 -23z m-864 -10 c-3 -9 -6 -80 -6 -158
l0 -143 -70 -7 c-38 -3 -97 -13 -132 -21 -34 -8 -63 -13 -63 -12 -1 1 -9 37
-18 80 -19 89 -33 238 -24 261 5 14 29 16 163 16 138 0 155 -2 150 -16z m-433
-136 c4 -73 13 -160 21 -193 8 -32 14 -60 13 -61 -17 -16 -257 -99 -262 -91
-6 7 -66 272 -75 327 -13 88 -14 87 18 94 93 21 259 55 268 55 7 1 13 -44 17
-131z m1669 91 c40 -6 105 -17 143 -23 l70 -11 6 -60 c4 -33 9 -113 13 -177
l6 -118 -173 0 -174 0 -6 128 c-4 70 -7 160 -7 200 0 83 -6 81 122 61z m-2108
-81 c21 -125 30 -174 51 -260 l23 -98 -52 0 c-46 1 -173 22 -180 31 -2 2 -13
63 -25 134 -11 72 -24 142 -27 156 -6 26 -4 27 78 47 119 29 126 28 132 -10z
m2746 -33 c76 -24 83 -32 75 -74 -11 -62 -72 -178 -97 -185 -13 -4 -73 -10
-134 -13 l-112 -6 -6 94 c-4 52 -9 128 -12 170 l-6 76 119 -22 c65 -12 143
-30 173 -40z m-3561 -78 c61 -86 62 -88 47 -112 -18 -27 -15 -30 13 -16 15 8
21 3 38 -33 21 -43 21 -100 -1 -93 -21 7 -85 102 -141 208 -57 110 -64 134
-42 142 15 6 11 10 86 -96z m4680 -1357 c14 -109 14 -216 0 -299 -15 -88 -25
-95 -25 -18 0 34 -4 438 -8 898 -6 486 -6 844 0 855 5 11 11 -255 15 -666 4
-392 12 -721 18 -770z m-4201 1383 c15 -50 35 -183 29 -189 -3 -3 -27 6 -54
19 -47 24 -147 58 -208 72 l-30 7 36 17 c19 10 56 32 82 50 39 27 104 57 128
60 3 1 11 -16 17 -36z m3353 -51 c-24 -60 -88 -191 -104 -210 -8 -10 -14 -9
-29 5 -18 16 -18 18 16 52 28 29 96 145 96 165 0 2 5 17 10 32 7 18 14 24 21
17 7 -7 3 -27 -10 -61z m692 -997 c5 -700 4 -796 -8 -710 -10 76 -13 294 -13
925 1 454 4 773 8 710 4 -63 10 -479 13 -925z m-4990 993 c9 -12 15 -28 13
-37 -18 -59 -26 -294 -27 -770 0 -314 -4 -538 -9 -526 -5 11 -9 54 -9 95 -1
41 -5 118 -11 170 -5 52 -14 145 -21 205 -6 61 -18 148 -26 195 -9 50 -19 193
-23 350 -5 146 -12 284 -16 307 l-6 42 58 -6 c42 -4 64 -11 77 -25z m4837
-807 c0 -691 6 -928 26 -993 3 -12 0 -18 -9 -18 -20 0 -25 156 -32 1053 -4
503 -3 727 5 727 7 0 10 -240 10 -769z m-140 -44 c0 -409 3 -792 7 -850 l6
-107 -36 0 -36 0 4 99 c4 98 -4 241 -25 456 -24 245 -31 340 -40 565 -9 232
-10 235 -40 296 -16 34 -30 67 -30 73 0 6 20 51 44 100 38 75 49 89 78 98 18
6 41 11 51 12 16 1 17 -41 17 -742z m-4548 676 l25 -38 -8 -755 c-4 -415 -10
-767 -14 -782 -4 -16 -12 -28 -19 -28 -13 0 -14 19 -22 520 -5 316 3 1120 11
1120 1 0 13 -17 27 -37z m2068 -78 l0 -65 -42 0 c-24 0 -86 -7 -138 -14 -52
-8 -96 -13 -97 -12 -2 1 -7 25 -13 52 -5 27 -12 59 -16 71 -8 28 3 30 169 32
l137 1 0 -65z m225 42 l80 -12 3 -48 3 -47 -100 0 -101 0 0 29 c0 16 -3 43 -6
60 -8 36 -7 37 121 18z m-1652 -53 l67 -34 0 -50 c0 -28 -3 -50 -7 -50 -5 0
-49 21 -100 47 -99 51 -95 45 -76 116 6 22 21 18 116 -29z m1027 -41 c7 -35
11 -65 9 -67 -9 -8 -251 -87 -255 -84 -2 2 -6 35 -10 74 l-6 69 118 47 c80 31
121 43 126 35 3 -6 12 -39 18 -74z m2288 -2 c16 -23 15 -25 -22 -57 -37 -32
-118 -69 -177 -81 -23 -4 -29 1 -57 56 -18 33 -32 65 -32 71 0 5 15 10 33 10
36 0 125 28 173 53 31 17 35 14 82 -52z m-1339 40 c64 -11 137 -22 164 -26
l47 -6 0 -55 0 -56 -32 7 c-18 4 -60 16 -93 27 -45 14 -200 48 -222 48 -2 0
-3 18 -3 40 0 23 5 40 11 40 7 0 64 -9 128 -19z m601 -75 c0 -13 3 -44 6 -70
l7 -46 -60 0 c-34 0 -73 7 -89 15 -16 8 -45 15 -64 15 -72 0 -80 7 -80 64 l0
51 140 -3 c139 -3 140 -3 140 -26z m362 -56 l36 -80 -137 0 -137 0 -10 80 -9
80 110 0 110 0 37 -80z m-2612 -11 c0 -47 -1 -48 -27 -44 -16 2 -49 7 -75 10
l-48 6 0 53 0 53 75 -15 75 -15 0 -48z m340 0 l0 -49 -115 0 -115 0 0 45 0 45
83 1 c45 1 93 4 107 8 36 11 40 6 40 -50z m2984 -121 c3 -29 10 -153 16 -274
9 -214 17 -321 43 -564 7 -63 12 -189 12 -280 l0 -165 -42 -6 -43 -5 0 590 c0
357 -4 616 -10 654 -11 63 -7 102 10 102 4 0 11 -24 14 -52z m-3964 -81 l85
-42 2 -275 c2 -151 -1 -417 -5 -590 l-7 -316 -42 9 -43 8 0 53 c0 29 -19 171
-41 317 -38 238 -42 287 -46 498 -4 188 1 382 10 381 1 0 40 -20 87 -43z
m3818 -589 c-1 -315 -3 -546 -5 -513 -3 83 -22 252 -39 360 -21 134 -34 262
-44 430 -4 83 -11 168 -15 190 -6 40 -6 40 47 72 29 18 54 32 56 33 1 0 1
-258 0 -572z m-3585 480 c3 -13 9 -151 12 -308 7 -317 15 -426 50 -675 31
-223 34 -255 28 -255 -4 0 -34 16 -69 35 -62 35 -62 35 -53 68 5 18 9 279 9
594 0 508 5 617 23 541z m1597 -907 l0 -909 -102 5 c-57 3 -104 7 -106 8 -1 1
-7 114 -12 251 -6 137 -15 296 -20 354 -5 58 -9 349 -9 647 -1 424 2 542 12
546 6 3 63 6 125 6 l112 1 0 -909z m360 896 c0 -6 6 -68 14 -137 10 -90 16
-336 21 -876 l7 -752 -63 -11 c-35 -7 -96 -15 -135 -18 l-71 -6 -6 54 c-4 30
-7 438 -7 907 l0 852 120 0 c90 0 120 -3 120 -13z m224 -18 c3 -17 6 -125 6
-240 0 -280 15 -529 45 -729 13 -91 40 -280 60 -420 19 -140 38 -266 40 -280
6 -26 6 -26 -97 -37 -56 -7 -104 -11 -105 -9 -1 1 -5 312 -8 692 -6 622 -14
887 -32 1012 l-6 42 45 0 c43 0 46 -2 52 -31z m339 24 c3 -5 8 -382 12 -840 7
-802 6 -832 -12 -841 -10 -6 -27 -12 -37 -13 -18 -4 -23 25 -82 431 -68 472
-81 626 -87 1018 l-4 252 103 0 c57 0 105 -3 107 -7z m212 -23 c28 -5 59 -12
70 -15 20 -4 20 -12 20 -779 l0 -774 -65 -18 c-36 -9 -70 -19 -77 -21 -20 -8
-23 85 -26 864 -2 674 0 762 13 758 8 -2 38 -9 65 -15z m-2454 -332 c4 -185
13 -341 24 -423 13 -97 16 -181 13 -332 -1 -111 -6 -205 -10 -209 -4 -4 -25 1
-45 10 l-38 17 -1 72 c-1 40 -16 164 -32 277 -35 234 -49 404 -57 712 l-6 216
73 -23 73 -23 6 -294z m944 -251 c1 -431 4 -619 14 -692 7 -55 15 -187 18
-294 l5 -194 -48 7 c-27 3 -53 11 -58 16 -5 5 -12 230 -17 552 -7 507 -15 692
-39 928 -6 52 -10 129 -10 171 l0 75 63 11 c34 5 64 11 67 11 3 1 5 -265 5
-591z m2139 517 c3 -26 6 -72 6 -104 0 -69 32 -354 60 -545 13 -82 24 -216 27
-326 l6 -185 -75 -61 -75 -61 -6 142 c-4 77 -7 371 -7 653 0 477 1 513 18 522
31 18 39 12 46 -35z m-2404 -51 c0 -43 5 -105 10 -138 6 -33 15 -134 20 -225
5 -91 14 -237 19 -325 6 -88 10 -328 11 -532 0 -391 1 -382 -42 -365 -16 7
-18 40 -21 447 -4 423 -5 446 -31 605 -21 128 -29 213 -33 382 l-6 216 24 5
c13 2 30 5 37 6 9 1 12 -20 12 -76z m2211 56 c5 -8 9 -321 9 -696 l0 -682 -82
-31 c-46 -17 -94 -35 -107 -41 -13 -5 -26 -7 -30 -4 -13 14 -19 422 -13 939
l5 539 105 -6 c72 -3 107 -9 113 -18z m-2683 -682 c2 -749 8 -690 -56 -640
-19 16 -21 23 -13 48 32 95 41 407 17 597 -23 181 -36 372 -36 531 l0 148 43
-3 42 -3 3 -678z m275 471 c3 -140 13 -256 30 -373 14 -93 31 -244 37 -335 12
-172 10 -643 -2 -656 -12 -11 -149 60 -181 94 l-28 29 -6 721 -6 722 75 0 75
0 6 -202z m-1149 -603 c9 -71 19 -142 21 -157 4 -25 2 -28 -24 -28 -57 0 -60
4 -43 73 8 34 15 108 16 164 1 56 4 96 7 90 3 -7 14 -70 23 -142z"/>
<path d="M5125 7695 c-118 -21 -268 -92 -377 -177 -103 -81 -302 -274 -397
-386 -235 -278 -267 -324 -334 -483 -32 -75 -37 -97 -37 -166 0 -92 22 -178
50 -193 23 -13 253 -13 340 0 71 10 142 44 258 122 151 102 217 178 461 535
146 212 188 317 235 587 23 135 23 139 5 157 -23 23 -96 24 -204 4z m85 -98
c0 -8 -9 -65 -20 -128 -47 -263 -76 -319 -362 -725 -99 -141 -142 -188 -233
-260 -113 -87 -135 -94 -320 -94 -130 0 -154 2 -159 16 -3 9 -6 53 -6 99 0 70
5 94 31 156 60 141 100 199 287 415 120 140 195 216 352 360 115 106 209 148
375 167 17 2 36 5 43 6 6 0 12 -5 12 -12z"/>
<path d="M882 7591 c-56 -28 -97 -71 -68 -71 12 0 16 -11 16 -48 0 -73 66
-283 126 -403 53 -107 193 -350 244 -424 15 -22 41 -67 58 -100 52 -103 134
-168 317 -252 156 -71 185 -78 335 -78 130 0 137 1 188 29 59 33 102 90 122
162 20 70 2 164 -51 272 -65 130 -139 199 -393 368 -193 128 -306 218 -471
374 -90 85 -197 146 -321 183 -48 14 -51 14 -102 -12z m302 -242 c187 -173
298 -262 481 -383 287 -190 361 -266 414 -423 25 -74 27 -129 5 -182 -18 -45
-31 -51 -129 -51 -90 0 -158 18 -286 75 -182 82 -241 129 -305 244 -17 31 -75
128 -128 216 -137 227 -199 353 -240 488 -52 170 -53 167 46 115 45 -24 109
-68 142 -99z"/>
</g>
</svg>
